<?xml version="1.0" encoding="UTF-8"?>
<svg xmlns="http://www.w3.org/2000/svg" version="1.1" viewBox="0 0 512 512">
  <defs>
    <style>
      .cls-1 {
        fill: #b71db0;
      }
    </style>
  </defs>
  <!-- Generator: Adobe Illustrator 28.6.0, SVG Export Plug-In . SVG Version: 1.2.0 Build 709)  -->
  <g>
    <g id="Layer_1">
      <g>
        <circle class="cls-1" cx="256" cy="85.3" r="85.3"/>
        <path class="cls-1" d="M341.3,213.3h-170.7c-47.1,0-85.3,38.2-85.3,85.3v213.3h341.3v-213.3c0-47.1-38.2-85.3-85.3-85.3ZM256,490.7c-11.8,0-21.3-9.5-21.3-21.3s9.5-21.3,21.3-21.3,21.3,9.5,21.3,21.3-9.5,21.3-21.3,21.3ZM294.2,378.6c-11.7,10.4-16.8,15.5-16.8,26.7s-9.5,21.3-21.3,21.3-21.3-9.5-21.3-21.3c0-30.9,18-46.9,31.2-58.6,11.7-10.4,16.8-15.5,16.8-26.7s-12-26.7-26.7-26.7-26.7,12-26.7,26.7-9.5,21.3-21.3,21.3-21.3-9.5-21.3-21.3c0-38.2,31.1-69.3,69.3-69.3s69.3,31.1,69.3,69.3-18,46.9-31.2,58.6Z"/>
      </g>
    </g>
  </g>
</svg>
