<?xml version="1.0" encoding="UTF-8"?>
<svg xmlns="http://www.w3.org/2000/svg" version="1.1" viewBox="0 0 512 512">
  <defs>
    <style>
      .cls-1 {
        fill: #1cba51;
      }
    </style>
  </defs>
  <!-- Generator: Adobe Illustrator 28.6.0, SVG Export Plug-In . SVG Version: 1.2.0 Build 709)  -->
  <g>
    <g id="Layer_1">
      <circle class="cls-1" cx="256" cy="138" r="134.9"/>
      <path class="cls-1" d="M70.6,508.9h208.4c-61.4-49.2-74.8-137.2-30.8-202.5-43.6-2.2-84.6-21.1-114.6-52.8-68.7,29-113.4,96.3-113.4,170.9v33.7c0,27.9,22.7,50.5,50.6,50.6Z"/>
      <path class="cls-1" d="M256,390.9c0,65.2,52.8,118,118,118s118-52.8,118-118-52.8-118-118-118c-65.1,0-117.9,52.9-118,118ZM390.9,357.1v16.9h16.9c9.3,0,16.9,7.5,16.9,16.9s-7.5,16.9-16.9,16.9h-16.9v16.9c0,9.3-7.5,16.9-16.9,16.9s-16.9-7.5-16.9-16.9v-16.9h-16.9c-9.3,0-16.9-7.5-16.9-16.9s7.5-16.9,16.9-16.9h16.9v-16.9c0-9.3,7.5-16.9,16.9-16.9s16.9,7.5,16.9,16.9Z"/>
    </g>
  </g>
</svg>
