<svg id="Layer_1" height="512" viewBox="0 0 128 128" width="512" xmlns="http://www.w3.org/2000/svg"><g><path d="m10.127 26.904h58.979c1.842 8.508 9.419 14.904 18.47 14.904s16.628-6.396 18.47-14.904h11.827c2.209 0 4-1.791 4-4s-1.791-4-4-4h-11.827c-1.842-8.508-9.419-14.904-18.47-14.904s-16.628 6.396-18.47 14.904h-58.979c-2.209 0-4 1.791-4 4s1.791 4 4 4zm77.449-14.904c6.013 0 10.904 4.892 10.904 10.904s-4.892 10.904-10.904 10.904-10.904-4.892-10.904-10.904 4.891-10.904 10.904-10.904z"/><path d="m117.873 60h-58.979c-1.842-8.508-9.419-14.904-18.47-14.904s-16.628 6.396-18.47 14.904h-11.827c-2.209 0-4 1.791-4 4s1.791 4 4 4h11.827c1.842 8.508 9.419 14.904 18.47 14.904s16.628-6.396 18.47-14.904h58.979c2.209 0 4-1.791 4-4s-1.791-4-4-4zm-77.449 14.904c-6.013 0-10.904-4.892-10.904-10.904s4.892-10.904 10.904-10.904 10.904 4.891 10.904 10.904-4.891 10.904-10.904 10.904z"/><path d="m117.873 101.096h-11.827c-1.842-8.508-9.419-14.904-18.47-14.904s-16.628 6.396-18.47 14.904h-58.979c-2.209 0-4 1.791-4 4s1.791 4 4 4h58.979c1.842 8.508 9.419 14.904 18.47 14.904s16.628-6.396 18.47-14.904h11.827c2.209 0 4-1.791 4-4s-1.791-4-4-4zm-30.297 14.904c-6.013 0-10.904-4.892-10.904-10.904s4.892-10.904 10.904-10.904 10.904 4.892 10.904 10.904-4.891 10.904-10.904 10.904z"/></g></svg>