<?xml version="1.0" encoding="UTF-8"?>
<svg xmlns="http://www.w3.org/2000/svg" version="1.1" viewBox="0 0 32 32">
  <defs>
    <style>
      .cls-1 {
        fill: #ea7f2f;
      }
    </style>
  </defs>
  <!-- Generator: Adobe Illustrator 28.6.0, SVG Export Plug-In . SVG Version: 1.2.0 Build 709)  -->
  <g>
    <g id="Layer_1">
      <g id="_02_archive">
        <path class="cls-1" d="M26,3H6c-1.7,0-3,1.3-3,3v9h6.9c.6,0,1,.4,1,1v1c0,.6.4,1,1,1h8.1c.6,0,1-.4,1-1v-1c0-.6.4-1,1-1h7V6c0-1.7-1.3-3-3-3Z"/>
        <path class="cls-1" d="M23,17c0,1.7-1.3,3-3,3h-8c-1.6,0-3-1.3-3-2.9h0c0,0-6,0-6,0v10c0,1.7,1.3,3,3,3h20c1.7,0,3-1.3,3-3v-10h-6ZM10,23h12v2h-12v-2Z"/>
      </g>
    </g>
  </g>
</svg>
