<svg height="512" viewBox="0 0 24 24" width="512" xmlns="http://www.w3.org/2000/svg"><g id="Layer_2" data-name="Layer 2"><path d="m20 22.75h-16a2.752 2.752 0 0 1 -2.75-2.75v-12a.75.75 0 0 1 .75-.75h20a.75.75 0 0 1 .75.75v12a2.752 2.752 0 0 1 -2.75 2.75zm-17.25-14v11.25a1.252 1.252 0 0 0 1.25 1.25h16a1.252 1.252 0 0 0 1.25-1.25v-11.25z"/><path d="m22 8.75h-20a.75.75 0 0 1 -.671-1.085l2.724-5.448a1.74 1.74 0 0 1 1.565-.967h12.764a1.739 1.739 0 0 1 1.565.968l2.724 5.447a.75.75 0 0 1 -.671 1.085zm-18.786-1.5h17.572l-2.181-4.362a.247.247 0 0 0 -.223-.138h-12.764a.249.249 0 0 0 -.223.137z"/><path d="m12 18.75a.75.75 0 0 1 -.75-.75v-6a.75.75 0 0 1 1.5 0v6a.75.75 0 0 1 -.75.75z"/><path d="m12 18.75a.744.744 0 0 1 -.53-.22l-3-3a.75.75 0 0 1 1.06-1.06l2.47 2.469 2.47-2.469a.75.75 0 0 1 1.06 1.06l-3 3a.744.744 0 0 1 -.53.22z"/></g></svg>
