<?xml version="1.0" encoding="UTF-8"?>
<svg xmlns="http://www.w3.org/2000/svg" version="1.1" viewBox="0 0 512 512">
  <defs>
    <style>
      .cls-1 {
        fill: #bb2ab3;
      }
    </style>
  </defs>
  <!-- Generator: Adobe Illustrator 28.6.0, SVG Export Plug-In . SVG Version: 1.2.0 Build 709)  -->
  <g>
    <g id="Layer_1">
      <path class="cls-1" d="M448.8,0h-192.8c-34.9,0-63.2,28.2-63.2,63.2v289.2c0,12.3,14.1,19.4,24,12l60.3-45.2h171.7c34.9,0,63.2-28.2,63.2-63.2V63.2c0-34.9-28.2-63.2-63.2-63.2ZM352.4,246.9c-8.3,0-15-6.7-15-15s6.7-15,15-15,15,6.7,15,15-6.7,15-15,15ZM367.4,180.6v3.1c0,8.3-6.7,15-15,15s-15-6.7-15-15v-16.1c0-8.3,6.7-15,15-15,13.9,0,25.2-11.3,25.2-25.2s-11.3-25.2-25.2-25.2-25.2,11.3-25.2,25.1-6.7,15-15,15-15-6.7-15-15h0c0-30.5,24.7-55.2,55.1-55.2s55.2,24.7,55.2,55.2-17,46.5-40.2,53.1Z"/>
      <path class="cls-1" d="M166.2,311.9c0,39.2-31.7,70.9-70.9,70.9s-70.9-31.7-70.9-70.9,31.7-70.9,70.9-70.9,70.9,31.7,70.9,70.9Z"/>
      <path class="cls-1" d="M95.3,382.8c-52.6,0-95.3,42.7-95.3,95.3v18.9c0,8.3,6.7,15,15,15h160.7c8.3,0,15-6.7,15-15v-18.9c0-52.6-42.7-95.3-95.3-95.3Z"/>
    </g>
  </g>
</svg>
