<?xml version="1.0" encoding="UTF-8"?>
<svg xmlns="http://www.w3.org/2000/svg" version="1.1" viewBox="0 0 64 64">
  <defs>
    <style>
      .cls-1 {
        fill: #1cba51;
      }
    </style>
  </defs>
  <!-- Generator: Adobe Illustrator 28.6.0, SVG Export Plug-In . SVG Version: 1.2.0 Build 709)  -->
  <g>
    <g id="Glyph">
      <path class="cls-1" d="M59.8,13.5c-.3-1-1.2-1.6-2.2-1.7-2-.2-2.9,2.1-2.8,3.9v7.1c2.1.3,3.5,2.2,3.2,4.2,0,.1,0,.3,0,.4-2.2,8.2-10,11.9-10.3,12.1-.4.2-.9,0-1.1-.4-.2-.4,0-.9.4-1.1,0,0,7.4-3.5,9.4-11,.3-1.1-.4-2.2-1.4-2.5-.2,0-.5,0-.7,0-1.5.3-2.9,1.1-3.7,2.4-1.3,1.7-3.8,4.6-6.8,5.5-4,1.1-7.1,4.2-8.3,8.2-.9,2.6-.4,10-.5,12.8h9.4c-.3-2.7.6-5.7,3.2-6.7,0,0,11.9-6.2,12.9-13.6,0-.2,2-11.6-.4-19.5Z"/>
      <path class="cls-1" d="M19.9,53.3h9.4v-8.8c.2-5.6-3.5-10.6-8.9-12.2-3-.9-5.6-3.8-6.9-5.5-1.2-1.6-3.8-3.4-5.4-1.7-.5.5-.6,1.2-.5,1.9,2,7.4,9.4,10.9,9.4,11,.4.2.6.7.4,1.1-.1.3-.4.5-.8.5-5.2-2.3-9.1-6.7-10.7-12.1-.5-2,.7-4.1,2.7-4.6.1,0,.3,0,.4,0v-7.1c0-.9-.2-1.8-.5-2.6-.6-1.2-2-1.7-3.2-1.1-.6.3-1.1.8-1.3,1.5-2.5,7.9-.5,19.4-.4,19.5,1,7.4,12.9,13.6,13,13.7,2,.9,3.2,2.9,3.1,5.1v1.6Z"/>
      <path class="cls-1" d="M32,4.6l-11.4,3.8,11.4,4,11.5-4-11.5-3.8Z"/>
      <path class="cls-1" d="M45.4,9.6l-12.5,4.4v14.9l12.5-3.5v-15.8Z"/>
      <path class="cls-1" d="M18.6,25.5l12.5,3.5v-14.9l-12.5-4.4v15.8Z"/>
      <path class="cls-1" d="M33,55h12.7v4.4h-12.7v-4.4Z"/>
      <path class="cls-1" d="M18.3,55h12.7v4.4h-12.7v-4.4Z"/>
    </g>
  </g>
</svg>
