<?xml version="1.0" encoding="UTF-8"?>
<svg xmlns="http://www.w3.org/2000/svg" version="1.1" viewBox="0 0 512 512">
  <defs>
    <style>
      .cls-1 {
        fill: #66e6ff;
      }

      .cls-2 {
        fill: #4dc3ff;
      }
    </style>
  </defs>
  <!-- Generator: Adobe Illustrator 28.6.0, SVG Export Plug-In . SVG Version: 1.2.0 Build 709)  -->
  <g>
    <g id="Capa_1">
      <g>
        <path class="cls-1" d="M260.8,288.1l35.3,22.5-35.3,55.4c-8.3,0-16.5-3.2-22.9-9.5l-59.8-59.8-127.8,127.8c-6.3,6.3-16.5,6.3-22.7,0l-23-23c-6.3-6.3-6.3-16.5,0-22.7l150.6-150.6c12.6-12.6,33.1-12.6,45.7,0l59.8,59.8Z"/>
        <path class="cls-2" d="M512,98.7v163.1c0,8.9-7.2,16.1-16.1,16.1h-32.5c-8.9,0-16.1-7.2-16.1-16.1v-68.9l-163.8,163.8c-6.3,6.3-14.6,9.5-22.8,9.5v-78l141-140.9h-68.9c-8.9,0-16.1-7.2-16.1-16.1v-32.5c0-8.9,7.2-16.1,16.1-16.1h163.1c8.9,0,16.1,7.2,16.1,16.1h0Z"/>
      </g>
    </g>
  </g>
</svg>
