<?xml version="1.0" encoding="UTF-8"?>
<svg xmlns="http://www.w3.org/2000/svg" version="1.1" viewBox="0 0 459.4 459.4">
  <defs>
    <style>
      .cls-1 {
        fill: #ea7f2f;
      }
    </style>
  </defs>
  <!-- Generator: Adobe Illustrator 28.6.0, SVG Export Plug-In . SVG Version: 1.2.0 Build 709)  -->
  <g>
    <g id="Layer_1">
      <g>
        <path class="cls-1" d="M87.7,135.5c0-58.2,47.3-105.5,105.5-105.5s105.5,47.3,105.5,105.5-1.4,19.7-4.1,29.2l28.8,8.3c3.5-12.2,5.3-24.8,5.3-37.5C328.7,60.8,267.9,0,193.2,0S57.7,60.8,57.7,135.5s12.2,65.1,34.2,89.9l22.4-19.9c-17.2-19.3-26.7-44.2-26.7-70Z"/>
        <path class="cls-1" d="M278,145.9c.4-3.6.7-7.1.7-10.4,0-47.1-38.4-85.5-85.5-85.5s-85.5,38.4-85.5,85.5,6.3,37.5,18.2,52.6l23.6-18.5c-7.7-9.9-11.8-21.7-11.8-34.1,0-30.6,24.9-55.5,55.5-55.5s55.5,24.9,55.5,55.5-.1,4.4-.4,6.8l29.8,3.6Z"/>
        <path class="cls-1" d="M376.2,226c-14.1,0-25.5,11.4-25.5,25.5h-10v-27.5c0-14.1-11.4-25.5-25.5-25.5s-25.5,11.4-25.5,25.5v27.5h-10v-52.6c0-14.1-11.4-25.5-25.5-25.5s-25.5,11.4-25.5,25.5v52.6h-10v-116c0-14.1-11.4-25.5-25.5-25.5s-25.5,11.4-25.5,25.5v188.8h-10v-61.6c0-14.1-11.4-25.5-25.5-25.5s-25.5,11.4-25.5,25.5v93.9c0,56.7,46.1,102.8,102.8,102.8h89.3c56.7,0,102.8-46.1,102.8-102.8v-105.1c0-14.1-11.4-25.5-25.5-25.5Z"/>
      </g>
    </g>
  </g>
</svg>
