<?xml version="1.0" encoding="UTF-8"?>
<svg xmlns="http://www.w3.org/2000/svg" version="1.1" viewBox="0 0 510 510">
  <defs>
    <style>
      .cls-1 {
        fill: #1cba51;
        fill-rule: evenodd;
      }
    </style>
  </defs>
  <!-- Generator: Adobe Illustrator 28.6.0, SVG Export Plug-In . SVG Version: 1.2.0 Build 709)  -->
  <g>
    <g id="Layer_1">
      <g id="Artboard11">
        <path class="cls-1" d="M76,29h17c4.7,0,8.6,3.8,8.6,8.6v43.3c0,4.7-3.8,8.6-8.6,8.6h-17c-4.7,0-8.6-3.8-8.6-8.6v-43.3c0-4.7,3.8-8.6,8.6-8.6ZM361.2,29h17c4.7,0,8.6,3.8,8.6,8.6v43.3c0,4.7-3.8,8.6-8.6,8.6h-17c-4.7,0-8.5-3.8-8.5-8.6v-43.3c0-4.7,3.8-8.6,8.5-8.6h0ZM266.2,29h17c4.7,0,8.6,3.8,8.6,8.6v43.3c0,4.7-3.8,8.6-8.6,8.6h-17c-4.7,0-8.6-3.8-8.6-8.6v-43.3c0-4.7,3.8-8.6,8.6-8.6ZM171.1,29h17c4.7,0,8.6,3.8,8.6,8.6v43.3c0,4.7-3.8,8.6-8.6,8.6h-17c-4.7,0-8.6-3.8-8.6-8.6v-43.3c0-4.7,3.8-8.6,8.6-8.6ZM292.9,414.1H49.2c-18.8,0-34.2-15.4-34.2-34.2v-239.8h424.2v142.3c-12.1-4.6-25.3-7.1-39-7.1-61.1,0-110.9,49.8-110.9,110.9s1.2,19,3.6,27.9h0ZM69.7,183.1c-2.2,0-4,1.8-4,4v30c0,2.2,1.8,4,4,4h30c2.2,0,4-1.8,4-4v-30c0-2.2-1.8-4-4-4h-30ZM354.5,183.1c-2.2,0-4,1.8-4,4v30c0,2.2,1.8,4,4,4h30c2.2,0,4-1.8,4-4v-30c0-2.2-1.8-4-4-4h-30ZM140.9,254.3c-2.2,0-4,1.8-4,4v30c0,2.2,1.8,4,4,4h30c2.2,0,4-1.8,4-4v-30c0-2.2-1.8-4-4-4h-30ZM212.1,183.1c-2.2,0-4,1.8-4,4v30c0,2.2,1.8,4,4,4h30c2.2,0,4-1.8,4-4v-30c0-2.2-1.8-4-4-4h-30ZM140.9,183.1c-2.2,0-4,1.8-4,4v30c0,2.2,1.8,4,4,4h30c2.2,0,4-1.8,4-4v-30c0-2.2-1.8-4-4-4h-30ZM69.7,325.5c-2.2,0-4,1.8-4,4v30c0,2.2,1.8,4,4,4h30c2.2,0,4-1.8,4-4v-30c0-2.2-1.8-4-4-4h-30ZM140.9,325.5c-2.2,0-4,1.8-4,4v30c0,2.2,1.8,4,4,4h30c2.2,0,4-1.8,4-4v-30c0-2.2-1.8-4-4-4h-30ZM212.1,325.5c-2.2,0-4,1.8-4,4v30c0,2.2,1.8,4,4,4h30c2.2,0,4-1.8,4-4v-30c0-2.2-1.8-4-4-4h-30ZM69.7,254.3c-2.2,0-4,1.8-4,4v30c0,2.2,1.8,4,4,4h30c2.2,0,4-1.8,4-4v-30c0-2.2-1.8-4-4-4h-30ZM283.3,183.1c-2.2,0-4,1.8-4,4v30c0,2.2,1.8,4,4,4h30c2.2,0,4-1.8,4-4v-30c0-2.2-1.8-4-4-4h-30ZM283.3,254.3c-2.2,0-4,1.8-4,4v30c0,2.2,1.8,4,4,4h30c2.2,0,4-1.8,4-4v-30c0-2.2-1.8-4-4-4h-30ZM212.1,254.3c-2.2,0-4,1.8-4,4v30c0,2.2,1.8,4,4,4h30c2.2,0,4-1.8,4-4v-30c0-2.2-1.8-4-4-4h-30ZM402.8,57.5h2.2c18.8,0,34.2,15.4,34.2,34.2v32.4H15v-32.4c0-18.8,15.4-34.2,34.2-34.2h2.2v23.3c0,13.5,11,24.6,24.6,24.6h17c13.5,0,24.6-11,24.6-24.6v-23.3h29v23.3c0,13.5,11,24.6,24.6,24.6h17c13.5,0,24.6-11,24.6-24.6v-23.3h29v23.3c0,13.5,11,24.6,24.6,24.6h17c13.5,0,24.6-11,24.6-24.6v-23.3h29v23.3c0,13.5,11,24.6,24.5,24.6h17c13.5,0,24.6-11,24.6-24.6v-23.3ZM400.2,481c-52.2,0-94.9-42.6-94.9-94.8s42.6-94.9,94.9-94.9,94.8,42.6,94.8,94.9-42.6,94.8-94.8,94.8h0ZM387.7,394.6l-21.2-21.2c-5.5-5.5-14.4-5.5-19.9,0-5.5,5.5-5.5,14.4,0,19.9l31.2,31.2c5.5,5.5,14.4,5.5,19.9,0,18.8-18.8,37.4-37.8,56.1-56.7,5.5-5.5,5.4-14.4,0-19.9s-14.4-5.4-19.9,0l-46.1,46.6Z"/>
      </g>
    </g>
  </g>
</svg>
