<svg id="bold" enable-background="new 0 0 24 24" height="512" viewBox="0 0 24 24" width="512" xmlns="http://www.w3.org/2000/svg"><path d="m13.03 1.87-10.99-1.67c-.51-.08-1.03.06-1.42.39-.39.34-.62.83-.62 1.34v21.07c0 .55.45 1 1 1h3.25v-5.25c0-.97.78-1.75 1.75-1.75h2.5c.97 0 1.75.78 1.75 1.75v5.25h4.25v-20.4c0-.86-.62-1.59-1.47-1.73zm-7.53 12.88h-1.5c-.414 0-.75-.336-.75-.75s.336-.75.75-.75h1.5c.414 0 .75.336.75.75s-.336.75-.75.75zm0-3h-1.5c-.414 0-.75-.336-.75-.75s.336-.75.75-.75h1.5c.414 0 .75.336.75.75s-.336.75-.75.75zm0-3h-1.5c-.414 0-.75-.336-.75-.75s.336-.75.75-.75h1.5c.414 0 .75.336.75.75s-.336.75-.75.75zm0-3h-1.5c-.414 0-.75-.336-.75-.75s.336-.75.75-.75h1.5c.414 0 .75.336.75.75s-.336.75-.75.75zm5 9h-1.5c-.414 0-.75-.336-.75-.75s.336-.75.75-.75h1.5c.414 0 .75.336.75.75s-.336.75-.75.75zm0-3h-1.5c-.414 0-.75-.336-.75-.75s.336-.75.75-.75h1.5c.414 0 .75.336.75.75s-.336.75-.75.75zm0-3h-1.5c-.414 0-.75-.336-.75-.75s.336-.75.75-.75h1.5c.414 0 .75.336.75.75s-.336.75-.75.75zm0-3h-1.5c-.414 0-.75-.336-.75-.75s.336-.75.75-.75h1.5c.414 0 .75.336.75.75s-.336.75-.75.75z"/><path d="m22.62 10.842-7.12-1.491v14.649h6.75c.965 0 1.75-.785 1.75-1.75v-9.698c0-.826-.563-1.529-1.38-1.71zm-2.37 10.158h-1.5c-.414 0-.75-.336-.75-.75s.336-.75.75-.75h1.5c.414 0 .75.336.75.75s-.336.75-.75.75zm0-3h-1.5c-.414 0-.75-.336-.75-.75s.336-.75.75-.75h1.5c.414 0 .75.336.75.75s-.336.75-.75.75zm0-3h-1.5c-.414 0-.75-.336-.75-.75s.336-.75.75-.75h1.5c.414 0 .75.336.75.75s-.336.75-.75.75z"/></svg>