<svg viewBox="0 0 24 24" xmlns="http://www.w3.org/2000/svg"><g id="Layer_2" data-name="Layer 2"><path d="m22 8h-20a.99974.99974 0 0 0 -1 1v11a2.00229 2.00229 0 0 0 2 2h18a2.0026 2.0026 0 0 0 2-2v-11a.99943.99943 0 0 0 -1-1zm-5.293 5.04-5.33349 5.334a.99964.99964 0 0 1 -1.41407 0l-2.66644-2.667a.99989.99989 0 0 1 1.414-1.414l1.95947 1.96 4.62653-4.627a.99989.99989 0 0 1 1.414 1.414z"/><path d="m22 10h-20a.99974.99974 0 0 1 -1-1v-4a2.00229 2.00229 0 0 1 2-2h18a2.0026 2.0026 0 0 1 2 2v4a.99943.99943 0 0 1 -1 1zm-19-2h18v-3h-18z"/><path d="m14.167 7a.99943.99943 0 0 1 -1-1v-3a1 1 0 1 1 2 0v3a.99942.99942 0 0 1 -1 1z"/><path d="m9.8335 7a.99974.99974 0 0 1 -1-1v-3a1 1 0 0 1 2 0v3a.99974.99974 0 0 1 -1 1z"/><path d="m5.5 7a.99974.99974 0 0 1 -1-1v-3a1 1 0 0 1 2 0v3a.99974.99974 0 0 1 -1 1z"/><path d="m18.5 7a.99943.99943 0 0 1 -1-1v-3a1 1 0 0 1 2 0v3a.99943.99943 0 0 1 -1 1z"/></g></svg>
