<?xml version="1.0" encoding="UTF-8"?>
<svg xmlns="http://www.w3.org/2000/svg" version="1.1" viewBox="0 0 24 24">
  <!-- Generator: Adobe Illustrator 28.6.0, SVG Export Plug-In . SVG Version: 1.2.0 Build 709)  -->
  <g>
    <g id="Layer_1">
      <path d="M8.3,15c.1-.2.2-.3.3-.3,3.7-3.7,7.5-7.5,11.2-11.2.9-.9,2-.9,2.9,0,.2.2.4.4.7.7.8.8.8,1.9,0,2.7-1.2,1.2-2.3,2.3-3.5,3.5-3.5,3.5-7.1,7.1-10.6,10.6-.4.4-.8.6-1.4.4-.2,0-.4-.2-.5-.3-2.3-2.3-4.6-4.5-6.8-6.8-.8-.8-.8-1.9,0-2.7.3-.3.5-.5.8-.8.8-.8,1.9-.8,2.7,0,1.4,1.3,2.7,2.7,4,4,0,0,.1.2.2.3Z"/>
    </g>
  </g>
</svg>
