<?xml version="1.0" encoding="utf-8"?>
<!-- Generator: Adobe Illustrator 27.0.0, SVG Export Plug-In . SVG Version: 6.00 Build 0)  -->
<svg version="1.1" id="Layer_1" xmlns="http://www.w3.org/2000/svg" xmlns:xlink="http://www.w3.org/1999/xlink" x="0px" y="0px"
	 viewBox="0 0 60 60" style="enable-background:new 0 0 60 60;" xml:space="preserve">
<g>
	<path d="M28.1,0c1.2,0,2.5,0,3.7,0c0.2,0,0.3,0.1,0.5,0.1c1.3,0.2,2.7,0.3,4,0.6c18.2,3.9,28.5,23.7,21.3,40.8
		c-5.6,13.4-19.7,20.8-34,17.8C11.8,56.8,2.5,47.1,0.5,35.2C0.3,34.1,0.1,33,0,31.9c0-1.2,0-2.5,0-3.7c0.2-1.3,0.3-2.7,0.6-4
		C2.8,12.2,12.8,2.5,24.8,0.5C25.9,0.3,27,0.2,28.1,0z M30,4.7C16.1,4.7,4.7,16,4.7,30c0,14,11.3,25.3,25.3,25.4
		c14,0,25.3-11.3,25.3-25.2C55.3,16.1,44,4.7,30,4.7z"/>
	<path d="M39.8,16.7c1.2,1.2,2.3,2.3,3.4,3.4c-3.3,3.3-6.6,6.6-9.8,9.8c3.3,3.3,6.6,6.6,9.9,9.8C42,40.9,41,42,39.9,43.1
		c-3.2-3.2-6.5-6.5-9.8-9.8c-3.4,3.4-6.7,6.7-9.9,9.9c-1.2-1.2-2.2-2.3-3.3-3.4c3.2-3.2,6.5-6.5,9.8-9.8c-3.3-3.3-6.6-6.6-9.9-9.9
		c1.2-1.2,2.3-2.3,3.4-3.3c3.2,3.2,6.5,6.5,9.8,9.8C33.2,23.3,36.5,20,39.8,16.7z"/>
</g>
</svg>
