<?xml version="1.0" encoding="UTF-8"?>
<svg xmlns="http://www.w3.org/2000/svg" version="1.1" viewBox="0 0 512 512">
  <defs>
    <style>
      .cls-1 {
        fill: #b71db0;
      }
    </style>
  </defs>
  <!-- Generator: Adobe Illustrator 28.6.0, SVG Export Plug-In . SVG Version: 1.2.0 Build 709)  -->
  <g>
    <g id="Bold">
      <path class="cls-1" d="M37.3,490.7h53.3c20.6,0,37.3-16.7,37.3-37.3v-245.3c0-20.6-16.7-37.3-37.3-37.3h-53.3c-20.6,0-37.3,16.7-37.3,37.3v245.3c0,20.6,16.7,37.3,37.3,37.3Z"/>
      <path class="cls-1" d="M272.7,16c-21.3,0-32,10.7-32,64s-49.1,91.5-80.7,112.5v264.3c34.2,15.8,102.5,39.2,208.7,39.2h34.1c41.6,0,77-29.9,84.1-70.8l23.9-138.7c9-52.3-31.1-99.8-84.1-99.8h-100.7s16-32,16-85.3-48-85.3-69.3-85.3h0Z"/>
    </g>
  </g>
</svg>
