<?xml version="1.0" encoding="UTF-8"?>
<svg xmlns="http://www.w3.org/2000/svg" version="1.1" viewBox="0 0 512 512">
  <defs>
    <style>
      .cls-1 {
        fill: #d82149;
      }
    </style>
  </defs>
  <!-- Generator: Adobe Illustrator 28.6.0, SVG Export Plug-In . SVG Version: 1.2.0 Build 709)  -->
  <g>
    <g id="Capa_1">
      <g>
        <path class="cls-1" d="M37.9,271H0c3.5,59.4,27.2,113.5,64.4,155.3l26.7-26.7c-31.5-36.1-50-80.8-53.3-128.6Z"/>
        <path class="cls-1" d="M91.1,112.4l-26.7-26.7C27.2,127.5,3.5,181.6,0,241h37.9c3.2-47.8,21.8-92.5,53.3-128.6Z"/>
        <path class="cls-1" d="M271,474.1v37.9c59.4-3.5,113.5-27.2,155.3-64.4l-26.7-26.7c-36.1,31.5-80.8,50-128.6,53.3h0Z"/>
        <path class="cls-1" d="M241,37.9V0c-59.4,3.5-113.5,27.2-155.3,64.4l26.7,26.7c36.1-31.5,80.8-50,128.6-53.3Z"/>
        <path class="cls-1" d="M85.7,447.6c41.8,37.2,95.9,61,155.3,64.4v-37.9c-47.8-3.2-92.5-21.8-128.6-53.3l-26.7,26.7Z"/>
        <path class="cls-1" d="M420.9,399.6l26.7,26.7c37.2-41.8,61-95.9,64.4-155.3h-37.9c-3.2,47.8-21.8,92.5-53.3,128.6Z"/>
        <path class="cls-1" d="M474.1,241h37.9c-3.5-59.4-27.2-113.5-64.4-155.3l-26.7,26.7c31.5,36.1,50,80.8,53.3,128.6Z"/>
        <path class="cls-1" d="M426.3,64.4C384.5,27.2,330.4,3.5,271,0v37.9c47.8,3.2,92.5,21.8,128.6,53.3l26.7-26.7Z"/>
        <path class="cls-1" d="M444.6,256c0-104-84.6-188.6-188.6-188.6s-188.6,84.6-188.6,188.6,84.6,188.6,188.6,188.6,188.6-84.6,188.6-188.6ZM139.2,188.1c0-27,22-49,49-49s49,22,49,49-22,49-49,49-49-22-49-49ZM198.8,334.5c-5.9,5.9-15.4,5.9-21.2,0-5.9-5.9-5.9-15.4,0-21.2l135.7-135.7c5.9-5.9,15.4-5.9,21.2,0,5.9,5.9,5.9,15.4,0,21.2l-135.7,135.7ZM323.9,372.8c-27,0-49-22-49-49s22-49,49-49,49,22,49,49-22,49-49,49Z"/>
        <circle class="cls-1" cx="188.1" cy="188.1" r="18.9"/>
        <circle class="cls-1" cx="323.9" cy="323.9" r="18.9"/>
      </g>
    </g>
  </g>
</svg>
