<?xml version="1.0" encoding="UTF-8"?>
<svg xmlns="http://www.w3.org/2000/svg" version="1.1" viewBox="0 0 512 512">
  <defs>
    <style>
      .cls-1 {
        fill: #ea7f2d;
      }
    </style>
  </defs>
  <!-- Generator: Adobe Illustrator 28.6.0, SVG Export Plug-In . SVG Version: 1.2.0 Build 709)  -->
  <g>
    <g id="Layer_1">
      <g id="Layer_5">
        <path class="cls-1" d="M441.3,135.8h-64.5c-19.8,0-36-16.2-36-36V35.4c3.8,1.6,7.5,4.2,10.6,7.2l82.7,82.7c3,3,5.4,6.7,7.2,10.6Z"/>
        <path class="cls-1" d="M170.9,436.5c-33.1,0-60.1-27-60.1-60.1V99.5h-7.4c-19.8,0-36,16.2-36,36v308.5c0,19.8,16.2,36,36,36h237.9c19.8,0,36-16.2,36-36v-7.5h-206.4Z"/>
        <path class="cls-1" d="M376.8,159.8c-33.1,0-60-26.9-60-60V32h-145.9c-20,0-36.2,16.2-36.2,36.2v308.3c0,19.9,16.2,36.1,36.1,36.1h237.6c20,0,36.1-16.2,36.1-36.1v-216.6h-67.8ZM211.6,191.6h62.2c8,0,14.4,6.4,14.4,14.4s-6.4,14.4-14.4,14.4h-62.2c-8,0-14.4-6.4-14.4-14.4s6.4-14.4,14.4-14.4h0ZM335,356.8h-123.3c-8,0-14.4-6.4-14.4-14.4s6.4-14.4,14.4-14.4h123.3c8,0,14.4,6.4,14.4,14.4s-6.4,14.4-14.4,14.4ZM367.8,288.6h-156.2c-8,0-14.4-6.4-14.4-14.4s6.4-14.4,14.4-14.4h156.2c8,0,14.4,6.4,14.4,14.4s-6.4,14.4-14.4,14.4Z"/>
      </g>
    </g>
  </g>
</svg>
