<svg clip-rule="evenodd" fill-rule="evenodd" stroke-linejoin="round" stroke-miterlimit="2" viewBox="0 0 24 24" xmlns="http://www.w3.org/2000/svg"><g id="Icon"><path d="m22.099 6.429c-2.126 2.126-7.116 7.115-8.333 8.328-.263.262-.576.469-.912.604-.976.405-3.357 1.339-4.057 1.386-.417.028-.826-.126-1.122-.422s-.45-.705-.422-1.122c.047-.7.981-3.079 1.379-4.051.139-.345.346-.658.609-.92l8.33-8.331c.403-.403.951-.63 1.521-.63s1.118.227 1.521.63l1.486 1.486c.403.403.63.951.63 1.521s-.227 1.118-.63 1.521zm-13.343 8.815c.684-.086 2.683-.92 3.523-1.269.003-.001.006-.002.008-.003.157-.063.299-.157.418-.276l.001-.001c1.219-1.213 6.207-6.201 8.332-8.327.122-.122.191-.287.191-.46s-.069-.338-.191-.46l-1.486-1.486c-.122-.122-.287-.191-.46-.191s-.338.069-.46.191l-8.331 8.331c-.12.119-.214.262-.277.419l-.002.004c-.345.842-1.18 2.843-1.266 3.528z"/><path d="m20.118 7.349c.292.293.292.768 0 1.061-.293.293-.768.293-1.061 0l-3.467-3.467c-.293-.293-.293-.768 0-1.061.293-.292.768-.292 1.061 0z"/><path d="m13.997 13.47c.293.292.293.768 0 1.06-.292.293-.768.293-1.06 0l-3.467-3.467c-.293-.292-.293-.768 0-1.06.292-.293.768-.293 1.06 0z"/><path d="m8.5 3.25c.414 0 .75.336.75.75s-.336.75-.75.75h-3.5c-1.243 0-2.25 1.007-2.25 2.25v12c0 .597.237 1.169.659 1.591s.994.659 1.591.659h13c.597 0 1.169-.237 1.591-.659s.659-.994.659-1.591v-3.5c0-.414.336-.75.75-.75s.75.336.75.75v3.5c0 .995-.395 1.948-1.098 2.652-.704.703-1.657 1.098-2.652 1.098h-13c-.995 0-1.948-.395-2.652-1.098-.703-.704-1.098-1.657-1.098-2.652v-12c0-2.071 1.679-3.75 3.75-3.75z"/></g></svg>
