<?xml version="1.0" encoding="UTF-8"?>
<svg xmlns="http://www.w3.org/2000/svg" version="1.1" viewBox="0 0 512 512">
  <defs>
    <style>
      .cls-1 {
        fill: #1cba51;
      }
    </style>
  </defs>
  <!-- Generator: Adobe Illustrator 28.6.0, SVG Export Plug-In . SVG Version: 1.2.0 Build 709)  -->
  <g>
    <g id="Capa_1">
      <g>
        <circle class="cls-1" cx="256" cy="119.6" r="87"/>
        <circle class="cls-1" cx="432" cy="151.6" r="55"/>
        <circle class="cls-1" cx="80" cy="151.6" r="55"/>
        <path class="cls-1" d="M134.2,256c-21.7-17.7-41.3-15.4-66.3-15.4C30.5,240.6,0,270.9,0,308.1v109.2c0,16.2,13.2,29.3,29.4,29.3,70,0,61.6,1.3,61.6-3,0-77.4-9.2-134.1,43.2-187.6Z"/>
        <path class="cls-1" d="M279.8,241c-43.7-3.6-81.7,0-114.5,27.1-54.9,43.9-44.3,103.1-44.3,175.5s15.6,35,35,35c211.1,0,219.5,6.8,232-20.9,4.1-9.4,3-6.4,3-96.1s-61.7-120.6-111.2-120.6h0Z"/>
        <path class="cls-1" d="M444.1,240.6c-25.2,0-44.7-2.3-66.3,15.4,52,53.1,43.2,105.9,43.2,187.6s-7,3,60.5,3,30.5-13.6,30.5-30.3v-108.2c0-37.2-30.5-67.5-67.9-67.5Z"/>
      </g>
    </g>
  </g>
</svg>
