<?xml version="1.0" encoding="UTF-8"?>
<svg xmlns="http://www.w3.org/2000/svg" version="1.1" viewBox="0 0 100 100">
  <defs>
    <style>
      .cls-1 {
        fill: #19ba50;
      }
    </style>
  </defs>
  <!-- Generator: Adobe Illustrator 28.6.0, SVG Export Plug-In . SVG Version: 1.2.0 Build 709)  -->
  <g>
    <g id="Layer_1">
      <path class="cls-1" d="M57.5,78.9h-18V20.9h18v17.6h7.6v-21.5c0-2-1.6-3.6-3.6-3.6h-22v-7.5c0-1.9-1.9-3.1-3.6-2.4L5.4,17.2c-1.7.8-2.9,2.5-2.9,4.4v56.7c0,1.9,1.1,3.6,2.9,4.4l30.5,13.7c1.7.8,3.6-.5,3.6-2.4v-7.5h22c2,0,3.6-1.6,3.6-3.6v-21.6h-7.6v17.6Z"/>
      <path class="cls-1" d="M96.6,48l-18.2-14.8c-1.6-1.3-4.1-.2-4.1,2v8.5h-27.6c-1.2,0-2.1,1-2.1,2.1v8.4c0,1.2,1,2.1,2.1,2.1h27.6v8.5c0,2.1,2.5,3.3,4.1,2l18.2-14.9c1.2-1,1.2-2.9,0-3.9Z"/>
    </g>
  </g>
</svg>
