<?xml version="1.0" encoding="UTF-8"?>
<svg xmlns="http://www.w3.org/2000/svg" version="1.1" viewBox="0 0 396 233.5">
  <!-- Generator: Adobe Illustrator 28.6.0, SVG Export Plug-In . SVG Version: 1.2.0 Build 709)  -->
  <g>
    <g id="Layer_1">
      <g>
        <path d="M2.3,113.7c4.1-6,7.7-12.3,12.3-17.8,24.6-30,53.4-55,88.1-72.6C126.4,11.2,151.5,3.5,178,1c51.6-4.9,98.2,8.8,141,37.4,27.7,18.5,50.9,41.9,71,68.4,5,6.5,5,13.6,0,20.1-23.3,30.5-50.4,56.7-83.7,76.3-27.5,16.2-56.9,26.4-88.7,29.4-46.3,4.4-89.2-6.4-129-30-32.9-19.5-59.8-45.7-82.9-76-1.5-2-2.4-4.4-3.5-6.7,0-2,0-4.1,0-6.1ZM195.3,34.4c-44.7.9-80.4,38.9-79.6,84.8.8,44.9,38.8,80.7,84.9,79.9,44.5-.8,80.4-39.2,79.6-84.9-.8-45-38.9-80.7-84.9-79.8Z"/>
        <path d="M242.3,116.8c-.2,24.6-20.5,44.5-45.2,44.3-24-.2-43.6-20.4-43.4-44.7.1-24.4,20.6-44.3,45.4-44.1,23.8.2,43.4,20.4,43.2,44.5Z"/>
      </g>
    </g>
  </g>
</svg>
