<?xml version="1.0" encoding="UTF-8"?>
<svg xmlns="http://www.w3.org/2000/svg" version="1.1" viewBox="0 0 32 32">
  <defs>
    <style>
      .cls-1 {
        fill: #d82149;
      }
    </style>
  </defs>
  <!-- Generator: Adobe Illustrator 28.6.0, SVG Export Plug-In . SVG Version: 1.2.0 Build 709)  -->
  <g>
    <g id="Layer_1">
      <g id="Review">
        <path class="cls-1" d="M24.9,12.4l-2,.8c-.3.1-.5.2-.8.2-.6,0-1.1-.2-1.5-.7-.4-.4-.6-1-.6-1.6v-2.1c.1,0-1.2-1.6-1.2-1.6-.3-.4-.5-.8-.5-1.3H5.4c-2.3,0-4.3,1.9-4.3,4.3v11.9c0,2.4,1.9,4.3,4.3,4.3h3.2v2c0,.8.3,1.5,1.1,1.9.3.2.6.2,1,.2s.9-.1,1.2-.4l5-3.7h5.7c2.4,0,4.3-1.9,4.3-4.3v-9.1l-1.9-.8ZM14.5,19.5h-5.2c-.5,0-.9-.4-.9-.9s.4-.9.9-.9h5.2c.5,0,.9.4.9.9s-.4.9-.9.9ZM19.1,15h-9.9c-.5,0-.9-.4-.9-.9s.4-.9.9-.9h9.9c.5,0,.9.4.9.9s-.4.9-.9.9Z"/>
        <path class="cls-1" d="M25.4,2.5l1.4,2.3,2.7.7c.4.1.6.6.3,1l-1.8,2.1.2,2.7c0,.5-.4.8-.8.6l-2.5-1-2.5,1c-.4.2-.9-.2-.8-.6l.2-2.7-1.8-2.1c-.3-.3-.1-.9.3-1l2.7-.7,1.4-2.3c.2-.4.8-.4,1,0Z"/>
      </g>
    </g>
  </g>
</svg>
