<svg width="50" height="50" viewBox="0 0 50 50" fill="none" xmlns="http://www.w3.org/2000/svg">
<path d="M15.132 5.10312C15.1313 4.24908 14.8772 3.41444 14.4021 2.70477C13.927 1.9951 13.252 1.44226 12.4627 1.11618C11.6733 0.790102 10.805 0.705423 9.96755 0.872854C9.13008 1.04029 8.36106 1.45231 7.75776 2.05681C7.15446 2.66131 6.74397 3.43114 6.57821 4.26895C6.41245 5.10676 6.49885 5.9749 6.8265 6.7636C7.15415 7.55229 7.70833 8.22611 8.41895 8.69984C9.12956 9.17357 9.9647 9.42593 10.8187 9.425C11.9634 9.42231 13.0602 8.96583 13.8688 8.15566C14.6773 7.34549 15.1316 6.24774 15.132 5.10312Z" fill="#0061BB"/>
<path d="M41.2824 5.10313C41.2816 4.24911 41.0276 3.41451 40.5525 2.70485C40.0774 1.99519 39.4026 1.44236 38.6133 1.11626C37.824 0.790154 36.9557 0.705429 36.1182 0.872797C35.2808 1.04016 34.5118 1.45211 33.9084 2.05653C33.3051 2.66096 32.8945 3.43072 32.7287 4.26847C32.5628 5.10622 32.6491 5.97435 32.9767 6.76306C33.3042 7.55176 33.8583 8.22564 34.5688 8.69946C35.2793 9.17328 36.1143 9.42577 36.9684 9.425C38.113 9.42231 39.21 8.96586 40.0187 8.15571C40.8273 7.34556 41.2818 6.24782 41.2824 5.10313Z" fill="#E90855"/>
<path d="M1.48438 14.659V26.3051C1.48599 27.1879 1.78968 28.0436 2.34496 28.7299C2.90025 29.4162 3.67368 29.8919 4.53672 30.0777V19.952C4.53672 19.7369 4.62216 19.5306 4.77424 19.3785C4.92632 19.2265 5.13258 19.141 5.34766 19.141C5.56273 19.141 5.769 19.2265 5.92108 19.3785C6.07316 19.5306 6.15859 19.7369 6.15859 19.952V46.9465C6.11672 47.5019 6.29497 48.0514 6.65485 48.4765C7.01473 48.9016 7.52736 49.168 8.08203 49.2184C8.63657 49.1678 9.149 48.9013 9.50871 48.4762C9.86842 48.0512 10.0466 47.5017 10.0047 46.9465V36.8387C10.0047 36.6236 10.0901 36.4173 10.2422 36.2653C10.3943 36.1132 10.6006 36.0277 10.8156 36.0277C11.0307 36.0277 11.237 36.1132 11.389 36.2653C11.5411 36.4173 11.6266 36.6236 11.6266 36.8387V46.9465C11.5847 47.5017 11.7628 48.0512 12.1225 48.4762C12.4823 48.9013 12.9947 49.1678 13.5492 49.2184C14.1038 49.1678 14.6163 48.9013 14.9762 48.4763C15.336 48.0513 15.5143 47.5018 15.4727 46.9465V19.952C15.4727 19.7369 15.5581 19.5306 15.7102 19.3785C15.8623 19.2265 16.0685 19.141 16.2836 19.141C16.4987 19.141 16.7049 19.2265 16.857 19.3785C17.0091 19.5306 17.0945 19.7369 17.0945 19.952V30.0777C17.9573 29.8915 18.7304 29.4158 19.2853 28.7295C19.8403 28.0432 20.1438 27.1877 20.1453 26.3051V14.659C20.1447 13.9514 19.8633 13.2729 19.363 12.7726C18.8626 12.2722 18.1842 11.9909 17.4766 11.9902H4.15391C3.44616 11.9906 2.76752 12.2719 2.267 12.7723C1.76647 13.2727 1.485 13.9512 1.48438 14.659Z" fill="#0061BB"/>
<path d="M34.5462 49.2186C34.9949 49.189 35.4138 48.9838 35.7121 48.6474C36.0104 48.311 36.1642 47.8706 36.14 47.4217V37.2881H32.9517V47.4217C32.9275 47.8708 33.0813 48.3113 33.3798 48.6477C33.6784 48.9841 34.0975 49.1892 34.5462 49.2186Z" fill="#E90855"/>
<path d="M40.9492 47.4217V37.2881H37.7617V47.4217C37.7343 47.6472 37.7551 47.876 37.8227 48.0929C37.8902 48.3098 38.0031 48.5098 38.1537 48.6799C38.3044 48.8499 38.4894 48.9861 38.6965 49.0793C38.9037 49.1726 39.1283 49.2208 39.3555 49.2208C39.5826 49.2208 39.8072 49.1726 40.0144 49.0793C40.2216 48.9861 40.4066 48.8499 40.5572 48.6799C40.7079 48.5098 40.8207 48.3098 40.8883 48.0929C40.9558 47.876 40.9766 47.6472 40.9492 47.4217Z" fill="#E90855"/>
<path d="M28.1417 14.1326L25.4995 25.0396C25.3964 25.4478 25.3865 25.8739 25.4705 26.2864C25.5544 26.6988 25.7302 27.0871 25.9846 27.4225C26.2216 27.7282 26.5404 27.9604 26.9042 28.092L29.6143 17.3545C29.6404 17.2512 29.6865 17.1541 29.7501 17.0687C29.8137 16.9833 29.8935 16.9112 29.9849 16.8566C30.0764 16.802 30.1777 16.766 30.2831 16.7505C30.3884 16.7351 30.4958 16.7405 30.5991 16.7666C30.7023 16.7927 30.7995 16.8388 30.8849 16.9024C30.9703 16.966 31.0424 17.0458 31.097 17.1372C31.1516 17.2287 31.1876 17.33 31.2031 17.4353C31.2185 17.5407 31.213 17.6481 31.187 17.7514L26.6659 35.6662H47.2331L42.7112 17.7514C42.6851 17.6481 42.6797 17.5407 42.6951 17.4353C42.7106 17.33 42.7466 17.2287 42.8012 17.1372C42.8558 17.0458 42.9278 16.966 43.0133 16.9024C43.0987 16.8388 43.1958 16.7927 43.2991 16.7666C43.5076 16.714 43.7285 16.7463 43.9132 16.8566C44.0047 16.9112 44.0845 16.9833 44.1481 17.0687C44.2116 17.1541 44.2578 17.2512 44.2838 17.3545L47.0042 28.1357C47.3892 28.0186 47.7277 27.7836 47.9721 27.4639C48.216 27.1436 48.3844 26.7724 48.4649 26.3779C48.5454 25.9835 48.5359 25.576 48.437 25.1857L45.7565 14.1326C45.6389 13.5797 45.3382 13.0826 44.9032 12.7216C44.4681 12.3607 43.924 12.157 43.3588 12.1436H30.537C29.9723 12.1577 29.4288 12.3616 28.9942 12.7225C28.5596 13.0834 28.2593 13.5801 28.1417 14.1326Z" fill="#E90855"/>
</svg>
