<?xml version="1.0" encoding="UTF-8"?>
<svg xmlns="http://www.w3.org/2000/svg" version="1.1" viewBox="0 0 512 512">
  <defs>
    <style>
      .cls-1 {
        fill: #ea7f2f;
      }
    </style>
  </defs>
  <!-- Generator: Adobe Illustrator 28.6.0, SVG Export Plug-In . SVG Version: 1.2.0 Build 709)  -->
  <g>
    <g id="Layer_2">
      <g id="Icon">
        <g id="UserCheckCircle">
          <path class="cls-1" d="M360.1,467.2H47.4c-27.1,0-46.4-26.4-38.1-52.2l32.9-102.8c10.6-33,46.7-50.1,78.9-37.6,21.4,8.3,48.9,14.8,82.6,14.8s61.2-6.5,82.6-14.8c1.2-.5,2.5-.9,3.8-1.3v2.5c0,59.1,43.9,108.1,100.8,116.1l7.4,23.1c8.2,25.8-11,52.2-38.2,52.2h0Z"/>
          <circle class="cls-1" cx="203.8" cy="147.9" r="103.1"/>
          <path class="cls-1" d="M407.3,178.5c-53.7,0-97.3,43.6-97.3,97.3s43.6,97.3,97.3,97.3,97.3-43.5,97.3-97.3-43.5-97.3-97.3-97.3h0ZM467.3,255l-66.6,66.6c-6.9,6.9-18.1,6.9-25,0l-28.4-28.4c-6.9-6.9-6.9-18.1,0-25s18.1-6.9,25,0l15.9,15.9,54-54.1c6.9-6.9,18.1-6.9,25,0,7,6.9,7,18.1.1,25Z"/>
        </g>
      </g>
    </g>
  </g>
</svg>
