<?xml version="1.0" encoding="UTF-8"?>
<svg xmlns="http://www.w3.org/2000/svg" version="1.1" viewBox="0 0 20 20">
  <defs>
    <style>
      .cls-1 {
        fill: #191919;
      }
    </style>
  </defs>
  <!-- Generator: Adobe Illustrator 28.6.0, SVG Export Plug-In . SVG Version: 1.2.0 Build 709)  -->
  <g>
    <g id="Layer_1">
      <path class="cls-1" d="M10,18.4c-1.8,0-3.6,0-5.5,0-1.4,0-2.6-.9-2.9-2.3,0-.2,0-.5,0-.7,0-2.3,0-4.7,0-7,0-1.1.5-1.9,1.4-2.6,1.8-1.2,3.5-2.4,5.3-3.6,1.1-.8,2.4-.8,3.5,0,1.8,1.2,3.5,2.4,5.3,3.6.9.6,1.4,1.5,1.4,2.6,0,2.3,0,4.7,0,7,0,1.5-1,2.7-2.5,3-.2,0-.4,0-.6,0-1.8,0-3.6,0-5.4,0ZM10,15.4c.7,0,1.3,0,2,0,0,0,.2,0,.3,0,.2,0,.3-.2.3-.4,0-.2,0-.3-.3-.4,0,0-.2,0-.2,0-1.3,0-2.7,0-4,0,0,0-.1,0-.2,0-.2,0-.3.2-.3.4,0,.2.1.4.3.4,0,0,.2,0,.3,0,.7,0,1.3,0,2,0Z"/>
    </g>
  </g>
</svg>
