<?xml version="1.0" encoding="UTF-8"?>
<svg xmlns="http://www.w3.org/2000/svg" version="1.1" viewBox="0 0 32 32">
  <defs>
    <style>
      .cls-1 {
        fill: #fff;
      }

      .cls-2 {
        fill: #e54f38;
      }
    </style>
  </defs>
  <!-- Generator: Adobe Illustrator 28.6.0, SVG Export Plug-In . SVG Version: 1.2.0 Build 709)  -->
  <g>
    <g id="Layer_1">
      <g id="Layer_1-2" data-name="Layer_1">
        <circle class="cls-2" cx="16" cy="16" r="15.9"/>
        <g>
          <path class="cls-1" d="M9.7,20.8h0c-.1-.4-.3-.8-.4-1.3,0,.5.1,1,.4,1.3Z"/>
          <path class="cls-1" d="M14,14.9c.9,0,1.6-.7,1.6-1.6s-.7-1.6-1.6-1.6-1.6.7-1.6,1.6.7,1.6,1.6,1.6Z"/>
          <path class="cls-1" d="M18.8,9.2h-5.7c-2.5,0-4,1.5-4,4v5.7c0,.7.1,1.3.4,1.9.6,1.3,1.8,2,3.6,2h5.7c2.5,0,4-1.5,4-4v-5.7c0-2.5-1.5-4-4-4h0ZM21.7,16.4c-.5-.4-1.3-.4-1.9,0l-2.8,2.4c-.5.4-1.3.4-1.9,0l-.2-.2c-.4-.4-1.3-.4-1.8,0l-2.5,1.7c-.1-.4-.2-.8-.2-1.3v-5.7c0-1.9,1-2.9,2.9-2.9h5.7c1.9,0,2.9,1,2.9,2.9v3.3h0,0Z"/>
        </g>
      </g>
    </g>
  </g>
</svg>
