<svg width="16" height="16" viewBox="0 0 16 16" fill="none" xmlns="http://www.w3.org/2000/svg">
<path d="M9 7.35C9 7.01864 8.55227 6.75 8 6.75C7.44773 6.75 7 7.01864 7 7.35V12.15C7 12.4814 7.44773 12.75 8 12.75C8.55227 12.75 9 12.4814 9 12.15V7.35Z" fill="#E54F38"/>
<path fill-rule="evenodd" clip-rule="evenodd" d="M8 0C3.58172 0 0 3.58172 0 8C0 12.4183 3.58172 16 8 16C12.4183 16 16 12.4183 16 8C16 3.58172 12.4183 0 8 0ZM1.11628 8C1.11628 4.19823 4.19823 1.11628 8 1.11628C11.8017 1.11628 14.8837 4.19823 14.8837 8C14.8837 11.8017 11.8017 14.8837 8 14.8837C4.19823 14.8837 1.11628 11.8017 1.11628 8Z" fill="#E54F38"/>
<path d="M9 4.75C9 5.30228 8.5523 5.75 8 5.75C7.4477 5.75 7 5.30228 7 4.75C7 4.19772 7.4477 3.75 8 3.75C8.5523 3.75 9 4.19772 9 4.75Z" fill="#E54F38"/>
</svg>
