<?xml version="1.0" encoding="UTF-8"?>
<svg xmlns="http://www.w3.org/2000/svg" version="1.1" viewBox="0 0 512 512">
  <defs>
    <style>
      .cls-1 {
        fill: #ea7f2f;
      }
    </style>
  </defs>
  <!-- Generator: Adobe Illustrator 28.6.0, SVG Export Plug-In . SVG Version: 1.2.0 Build 709)  -->
  <g>
    <g id="Layer_1">
      <g id="Layer_2">
        <path class="cls-1" d="M476.9,167.6H35.1c-12.2,0-22.1,9.9-22.1,22.1,0,0,0,0,0,0v243c0,24.4,19.8,44.2,44.2,44.2h397.6c24.4,0,44.2-19.8,44.2-44.2v-243c0-12.2-9.9-22.1-22.1-22.1h0ZM360,279l-117.8,117.8c-8.6,8.6-22.6,8.6-31.2,0h0s-58.9-58.9-58.9-58.9c-8.5-8.7-8.4-22.7.3-31.2,8.6-8.4,22.4-8.4,31,0l43.3,43.3,102.2-102.2c8.7-8.5,22.7-8.4,31.2.3,8.4,8.6,8.4,22.4,0,31Z"/>
        <path class="cls-1" d="M476.9,211.8H35.1c-12.2,0-22.1-9.9-22.1-22.1,0,0,0,0,0,0v-88.4c0-24.4,19.8-44.2,44.2-44.2h397.6c24.4,0,44.2,19.8,44.2,44.2v88.4c0,12.2-9.9,22.1-22.1,22.1h0ZM57.2,167.6h397.6v-66.3H57.2v66.3Z"/>
        <path class="cls-1" d="M303.9,145.5c-12.2,0-22.1-9.9-22.1-22.1h0V57.2c0-12.2,9.9-22.1,22.1-22.1s22.1,9.9,22.1,22.1v66.3c0,12.2-9.9,22.1-22.1,22.1h0Z"/>
        <path class="cls-1" d="M208.1,145.5c-12.2,0-22.1-9.9-22.1-22.1h0V57.2c0-12.2,9.9-22.1,22.1-22.1s22.1,9.9,22.1,22.1v66.3c0,12.2-9.9,22.1-22.1,22.1h0Z"/>
        <path class="cls-1" d="M112.4,145.5c-12.2,0-22.1-9.9-22.1-22.1h0V57.2c0-12.2,9.9-22.1,22.1-22.1s22.1,9.9,22.1,22.1v66.3c0,12.2-9.9,22.1-22.1,22.1h0Z"/>
        <path class="cls-1" d="M399.6,145.5c-12.2,0-22.1-9.9-22.1-22.1h0V57.2c0-12.2,9.9-22.1,22.1-22.1s22.1,9.9,22.1,22.1v66.3c0,12.2-9.9,22.1-22.1,22.1h0Z"/>
      </g>
    </g>
  </g>
</svg>
