<?xml version="1.0" encoding="UTF-8"?>
<svg xmlns="http://www.w3.org/2000/svg" version="1.1" viewBox="0 0 100 100">
  <defs>
    <style>
      .cls-1 {
        fill: #bc0cb4;
      }
    </style>
  </defs>
  <!-- Generator: Adobe Illustrator 28.6.0, SVG Export Plug-In . SVG Version: 1.2.0 Build 709)  -->
  <g>
    <g id="Layer_1">
      <g>
        <path class="cls-1" d="M50.6,78.4c0,3.4.7,6.8,2.1,9.7H6.5v-24.3c0-10,8.1-18.2,18.2-18.2h31.5c6.8,0,12.7,3.7,15.7,9.2-12.2,1.3-21.3,11.3-21.3,23.6Z"/>
        <circle class="cls-1" cx="40.3" cy="21.4" r="18.9"/>
        <path class="cls-1" d="M74.3,59.2h-.5c-10.4.3-18.6,8.8-18.6,19.1s1,6.9,2.6,9.7c3.4,5.6,9.5,9.4,16.5,9.4,10.6,0,19.2-8.6,19.2-19.2-.1-10.5-8.7-19-19.2-19ZM82.2,80.7h-5.7v5.7c0,1.3-1,2.2-2.2,2.2s-2.2-1.1-2.2-2.2v-5.7h-5.7c-1.3,0-2.2-1-2.2-2.2s1.1-2.2,2.2-2.2h5.7v-5.7c0-1.3,1.1-2.2,2.2-2.2s2.2,1.1,2.2,2.2v5.7h5.7c1.3,0,2.2,1.1,2.2,2.2s-1,2.2-2.2,2.2Z"/>
      </g>
    </g>
  </g>
</svg>
