<?xml version="1.0" encoding="UTF-8"?>
<svg xmlns="http://www.w3.org/2000/svg" version="1.1" viewBox="0 0 512 512">
  <defs>
    <style>
      .cls-1 {
        fill: #ea7f2f;
      }
    </style>
  </defs>
  <!-- Generator: Adobe Illustrator 28.6.0, SVG Export Plug-In . SVG Version: 1.2.0 Build 709)  -->
  <g>
    <g id="Layer_1">
      <path class="cls-1" d="M245.3,21.3C121.6,21.3,21.3,121.6,21.3,245.3s100.3,224,224,224,10.6-.2,15.8-.6c-17.3-24.9-26.5-54.4-26.5-84.7,0-82.5,66.9-149.3,149.3-149.3,30.3,0,59.8,9.2,84.7,26.5.4-5.2.6-10.5.6-15.8,0-123.7-100.3-224-224-224h0ZM266.7,245.3c0,11.8-9.6,21.3-21.3,21.3h-96c-11.8,0-21.3-9.7-21.2-21.5,0-11.7,9.5-21.1,21.2-21.2h74.7v-117.3c0-11.8,9.4-21.4,21.2-21.5,11.8,0,21.4,9.4,21.5,21.2,0,0,0,.2,0,.3v138.7Z"/>
      <path class="cls-1" d="M384,277.3c-58.9,0-106.7,47.8-106.7,106.7s47.8,106.7,106.7,106.7,106.7-47.8,106.7-106.7h0c0-58.9-47.8-106.7-106.7-106.7h0ZM384,458.7c-11.8,0-21.3-9.6-21.3-21.3s9.6-21.3,21.3-21.3,21.3,9.6,21.3,21.3h0c0,11.8-9.6,21.3-21.3,21.3ZM405.3,384c0,11.8-9.6,21.3-21.3,21.3s-21.3-9.6-21.3-21.3v-53.3c0-11.8,9.6-21.3,21.3-21.3s21.3,9.6,21.3,21.3v53.3Z"/>
    </g>
  </g>
</svg>
