<?xml version="1.0" encoding="UTF-8"?>
<svg xmlns="http://www.w3.org/2000/svg" version="1.1" viewBox="0 0 512 512">
  <defs>
    <style>
      .cls-1 {
        fill: #bb2ab3;
      }
    </style>
  </defs>
  <!-- Generator: Adobe Illustrator 28.6.0, SVG Export Plug-In . SVG Version: 1.2.0 Build 709)  -->
  <g>
    <g id="Layer_1">
      <path class="cls-1" d="M350,39.4c-4.3-4.2-9-7.9-14-11v83.6c0,8.8,7.2,16,16,16h83.6c-3.1-5.1-6.8-9.8-11-14l-74.5-74.5Z"/>
      <path class="cls-1" d="M352,160c-26.5,0-47.9-21.5-48-48V17c-3.5-.3-6.9-1-10.6-1h-149.4c-44.2,0-80,35.8-80,80h0v320c0,44.2,35.8,80,80,80h224c44.2,0,80-35.8,80-80v-245.4c0-3.7-.6-7-1-10.6h-95ZM320,288h-48v48c0,8.8-7.2,16-16,16s-16-7.2-16-16v-48h-48c-8.8,0-16-7.2-16-16s7.2-16,16-16h48v-48c0-8.8,7.2-16,16-16s16,7.2,16,16v48h48c8.8,0,16,7.2,16,16s-7.2,16-16,16Z"/>
    </g>
  </g>
</svg>
