<?xml version="1.0" encoding="UTF-8"?>
<svg xmlns="http://www.w3.org/2000/svg" version="1.1" viewBox="0 0 512 512">
  <defs>
    <style>
      .cls-1 {
        fill: #0911af;
      }
    </style>
  </defs>
  <!-- Generator: Adobe Illustrator 28.6.0, SVG Export Plug-In . SVG Version: 1.2.0 Build 709)  -->
  <g>
    <g id="Layer_1">
      <path class="cls-1" d="M268.4,199.8c-23.3,3.3-43.7,25.2-43.9,25.4-.3.3-.6.6-1,.8-31.7,20.6-49.6,4.9-50.3,4-20.3-18.3-1.7-48.9-.9-50.2,8.3-13.8,18.4-26.5,29.9-37.7h-86.1l-37.4,123.3c.4.2.8.5,1.1.8,58,65.6,135,123.8,165.4,145.7,6.9,5.1,16.6,3.6,21.7-3.2,4.6-6.2,3.9-14.9-1.7-20.3l-41.8-41.8c-1.9-1.9-1.9-5,0-6.9,1.9-1.9,5-1.9,7,0,0,0,0,0,0,0l22.3,22.3,19.7,19.7,9.8,10.1c7.5,7.3,19.4,7.1,26.7-.4,7-7.2,7.1-18.7.2-26.1l-38.4-40-7.3-7.5c-1.9-1.9-1.9-5,0-7,0,0,0,0,0,0,1.9-1.9,5-1.9,7,0,0,0,0,0,0,0l56,58.1c7.7,7.7,20.2,7.6,27.8-.1,3.4-3.5,5.5-8.1,5.7-13,.2-5.4-2-10.7-5.9-14.4l-33.6-32.5-23.4-22.7c-2.1-1.7-2.4-4.8-.6-6.9,1.7-2.1,4.8-2.4,6.9-.6.2.2.4.3.5.5l66.5,64.3c7.1,7.3,18.9,7.5,26.2.4,7.3-7.1,7.5-18.9.4-26.2-.4-.4-.8-.8-1.2-1.1l-127.4-116.6Z"/>
      <path class="cls-1" d="M101.1,113.2c-25.6-11.5-53.4-16.9-81.4-15.9v193.1h30.1c6.6,0,12.4-4.3,14.2-10.7l45.2-148.8c2.1-7.1-1.3-14.7-8.1-17.7Z"/>
      <path class="cls-1" d="M284.4,122.8c-10.6-4.4-22.5-4.6-33.3-.7-18.9,6.9-46.4,23.4-70.5,62.9,0,.3-15.1,24.6-.9,37.7.5.4,13.2,11.1,37.8-4.6,3.5-3.7,25.7-25.9,52-28.4,1.4-.1,2.7.3,3.7,1.3l129,118.2c.6.5,1.1,1.1,1.7,1.7,14.8-2.3,24.6-15.8,27.5-20.7l-46.8-127.5-100.2-39.9Z"/>
      <path class="cls-1" d="M482.5,120.9c-28.1-.2-55.9,5.1-82,15.5-7.3,3.1-10.8,11.4-8,18.9l54.8,149.1c2.2,5.9,7.8,9.8,14.1,9.8h31V121.1c-2.5-.1-5.9-.2-9.8-.2h0Z"/>
    </g>
  </g>
</svg>
