<?xml version="1.0" encoding="UTF-8"?>
<svg xmlns="http://www.w3.org/2000/svg" version="1.1" viewBox="0 0 512 512">
  <defs>
    <style>
      .cls-1 {
        fill: #bb2ab3;
      }
    </style>
  </defs>
  <!-- Generator: Adobe Illustrator 28.6.0, SVG Export Plug-In . SVG Version: 1.2.0 Build 709)  -->
  <g>
    <g id="Capa_1">
      <g>
        <path class="cls-1" d="M406,301c-57.9,0-105,47.1-105,105s47.1,106,105,106,106-48.1,106-106-48.1-105-106-105ZM391,457.3l-40.5-40.8,21-21,19.5,19.2,49.5-49.2,21,21-70.5,70.8Z"/>
        <path class="cls-1" d="M406,271c13.5,0,26.1,2.7,38.4,6.3,3.9-16.8,6.6-33.9,6.6-51.3C451,101.8,350.2,0,226,0S0,101.8,0,226s101.8,225,226,225,34.5-2.7,51.3-6.6c-3.6-12.3-6.3-24.9-6.3-38.4,0-74.4,60.6-135,135-135ZM361,211h30v30h-30v-30ZM332.2,98.8l21,21-21,21.3-21.3-21.3,21.3-21ZM211,61h30v30h-30v-30ZM91,241h-30v-30h30v30ZM119.8,353.2l-21-21,21-21.3,21.3,21.3-21.3,21ZM119.8,141.1l-21-21.3,21-21,21.3,21-21.3,21.3ZM241,391h-30v-30h30v30ZM301,241h-90v-120h30v90h60v30Z"/>
      </g>
    </g>
  </g>
</svg>
