<?xml version="1.0" encoding="UTF-8"?>
<svg xmlns="http://www.w3.org/2000/svg" version="1.1" viewBox="0 0 512 512">
  <defs>
    <style>
      .cls-1 {
        fill: #bb2ab3;
        fill-rule: evenodd;
      }
    </style>
  </defs>
  <!-- Generator: Adobe Illustrator 28.6.0, SVG Export Plug-In . SVG Version: 1.2.0 Build 709)  -->
  <g>
    <g id="Layer_1">
      <path class="cls-1" d="M226.8,300.3c-20.8-35.5-59.4-59.4-103.6-59.4s-82.7,23.9-103.6,59.4h207.1ZM281.8,510.5h213.9c3.3,0,6.1-1.4,8.2-3.9,2.1-2.6,2.8-5.6,2.1-8.8-11.7-53.9-59.8-94.3-117.2-94.3s-105.5,40.4-117.2,94.3c-.7,3.2,0,6.3,2.1,8.8,2.1,2.6,4.9,3.9,8.2,3.9h0ZM388.7,271.6c33.5,0,60.7,27.2,60.7,60.7s-27.2,60.7-60.7,60.7-60.7-27.2-60.7-60.7,27.2-60.7,60.7-60.7ZM14.5,317.1h298.3c-1,4.9-1.5,10-1.5,15.2,0,25.5,12.4,48.2,31.5,62.3-43.5,15.5-77.4,52.5-87.6,99.6-.4,1.9-.6,3.9-.6,5.8H14.5c-5.8,0-10.5-4.7-10.5-10.5v-161.9c0-5.8,4.7-10.5,10.5-10.5h0ZM464.7,317.1h32.8c5.8,0,10.5,4.7,10.5,10.5v128.8c-16.2-28.8-42.3-50.7-73.3-61.8,19.1-14.1,31.5-36.8,31.5-62.3s-.5-10.3-1.5-15.2h0ZM484.4,173.7c0,15.8-12.9,28.6-28.6,28.6h-129.5l-56,58.3v-58.3h-24.2c-15.8,0-28.6-12.9-28.6-28.6V30.1c0-15.8,12.9-28.6,28.6-28.6h209.8c15.8,0,28.6,12.9,28.6,28.6v143.5ZM421.6,99.6l-67.3,17.9c-4.3,1.1-8.8,1.1-13.1,0l-67.1-17.8v34.2c88,16.1,59.5,16.1,147.5,0v-34.2h0ZM440.8,125.8l-6,3v37.8l14.4-9.3,14.4,9.3v-37.8l-6-3v-55.4c.4-.7.8-1.5,1-2.3,1.2-4.5-1.5-9.1-6-10.2l-102.5-27.2c-1.4-.4-2.9-.4-4.4,0l-102.5,27.2c-2.9.7-5.3,2.9-6.1,6-1.2,4.5,1.5,9.1,6,10.2l102.5,27.2c1.4.4,2.9.4,4.4,0l90.8-24.1v48.6h0ZM123.3,98.6c33.5,0,60.7,27.2,60.7,60.7s-27.2,60.7-60.7,60.7-60.7-27.2-60.7-60.7,27.2-60.7,60.7-60.7Z"/>
    </g>
  </g>
</svg>
