<?xml version="1.0" encoding="UTF-8"?>
<svg xmlns="http://www.w3.org/2000/svg" version="1.1" viewBox="0 0 100 100">
  <defs>
    <style>
      .cls-1 {
        fill: #1cba51;
      }
    </style>
  </defs>
  <!-- Generator: Adobe Illustrator 28.6.0, SVG Export Plug-In . SVG Version: 1.2.0 Build 709)  -->
  <g>
    <g id="Layer_1">
      <path class="cls-1" d="M16.2,16.5c-18.4,18.6-18.3,48.8.3,67.2s48.8,18.3,67.2-.3,18.3-48.8-.3-67.2-48.8-18.3-67.2.3ZM73.1,40.9l-25.8,26.1c-2.2,2.2-5.8,2.2-8,0l-1-1-3-3-8.4-8.3c-2.2-2.2-2.2-5.8,0-8s5.8-2.2,8,0l8.4,8.3,21.8-22c2.2-2.2,5.8-2.2,8,0,2.2,2.1,2.2,5.7,0,7.9Z"/>
    </g>
  </g>
</svg>
