<?xml version="1.0" encoding="UTF-8"?>
<svg xmlns="http://www.w3.org/2000/svg" version="1.1" viewBox="0 0 512 512">
  <defs>
    <style>
      .cls-1 {
        fill: #ea7f2f;
        fill-rule: evenodd;
      }
    </style>
  </defs>
  <!-- Generator: Adobe Illustrator 28.6.0, SVG Export Plug-In . SVG Version: 1.2.0 Build 709)  -->
  <g>
    <g id="Layer_1">
      <path class="cls-1" d="M198.6,222.3c19.3,18.5,19.3,48.9,0,67.3l-2.6,2.5c-49.6,47.3-87.9,83.8-99.4,160.4-4.1,27,19.1,49.4,46.9,49.4h225.1c27.8,0,51-22.4,46.9-49.4-11.5-76.6-49.8-113.1-99.4-160.4l-2.6-2.5c-19.3-18.5-19.3-48.9,0-67.3l2.6-2.5c49.6-47.3,87.9-83.8,99.4-160.4,4.1-27-19.1-49.4-46.9-49.4h-225.1c-27.8,0-51,22.4-46.9,49.4,11.5,76.6,49.8,113.1,99.4,160.4l2.6,2.5ZM215.4,180.6l-.2-.2c-37.8-33.8-65.9-58.9-69.5-121.1-.2-3.8,1.4-7.3,4.1-9.5,2.1-1.8,4.9-2.9,7.9-2.9h196.6c3.5,0,6.7,1.5,8.9,3.9,2.1,2.2,3.2,5.2,3.1,8.5-3.7,62.2-31.8,87.3-69.5,121.1-10,8.9-20.7,18.5-31.7,29.5-5,5-13.1,5-18.1,0-11-10.9-21.6-20.4-31.5-29.3h0Z"/>
    </g>
  </g>
</svg>
