<?xml version="1.0" encoding="UTF-8"?>
<svg xmlns="http://www.w3.org/2000/svg" version="1.1" viewBox="0 0 512 512">
  <defs>
    <style>
      .cls-1 {
        fill: #1cba51;
        fill-rule: evenodd;
      }
    </style>
  </defs>
  <!-- Generator: Adobe Illustrator 28.6.0, SVG Export Plug-In . SVG Version: 1.2.0 Build 709)  -->
  <g>
    <g id="Layer_1">
      <g id="Icon">
        <path class="cls-1" d="M330.2,485.3H85.3c-15.6,0-30.5-6.2-41.5-17.2-11-11-17.2-25.9-17.2-41.5V85.3c0-15.6,6.2-30.5,17.2-41.5,11-11,25.9-17.2,41.5-17.2h183.2c9.9,0,19.4,3.9,26.4,10.9l94.2,94.2c7,7,10.9,16.5,10.9,26.4v88.6c-14.7-2.2-29.6-1.8-44.1,1.1-12.3,2.4-22.5,10.8-27.3,22.3l-3.6,8.7c-4.8-.6-9.4-1.2-9.4-1.2-12.4-1.6-24.8,3.1-33,12.5-11.1,12.8-19.7,27.5-25.2,43.6-4.1,11.8-1.9,24.9,5.7,34.8l5.8,7.5c-2.9,3.8-5.8,7.5-5.8,7.5-7.6,9.9-9.7,23-5.7,34.8,5.5,16,14,30.8,25.2,43.6,8.2,9.4,20.6,14.1,33,12.5l9.4-1.2c1.8,4.4,3.6,8.7,3.6,8.7.5,1.2,1,2.3,1.6,3.4h0ZM117.3,314.7h96c8.8,0,16-7.2,16-16s-7.2-16-16-16h-96c-8.8,0-16,7.2-16,16s7.2,16,16,16ZM266.7,64v74.7c0,11.8,9.6,21.3,21.3,21.3h74.7l-96-96ZM117.3,240h170.7c8.8,0,16-7.2,16-16s-7.2-16-16-16H117.3c-8.8,0-16,7.2-16,16s7.2,16,16,16ZM117.3,389.3h96c8.8,0,16-7.2,16-16s-7.2-16-16-16h-96c-8.8,0-16,7.2-16,16s7.2,16,16,16Z"/>
        <path class="cls-1" d="M413.8,278.3s7.6,18.2,7.6,18.2c2.9,1.5,5.7,3.1,8.4,4.8l19.6-2.6c5.3-.7,10.6,1.3,14.1,5.4,9.3,10.7,16.4,23.1,21.1,36.5,1.7,5.1.8,10.7-2.5,14.9,0,0-12,15.7-12,15.7.2,3.2.2,6.5,0,9.7l12,15.7c3.3,4.2,4.2,9.9,2.5,14.9-4.6,13.4-11.8,25.8-21.1,36.5-3.5,4-8.8,6-14.1,5.4,0,0-19.6-2.6-19.6-2.6-2.7,1.8-5.5,3.4-8.4,4.8l-7.6,18.2c-2,4.9-6.4,8.5-11.7,9.6-13.9,2.7-28.2,2.7-42.1,0-5.2-1-9.6-4.6-11.7-9.6,0,0-7.6-18.2-7.6-18.2-2.9-1.5-5.7-3.1-8.4-4.8l-19.6,2.6c-5.3.7-10.6-1.3-14.1-5.4-9.3-10.7-16.5-23.1-21.1-36.5-1.7-5.1-.8-10.7,2.4-14.9,0,0,12-15.7,12-15.7-.2-3.2-.2-6.5,0-9.7l-12-15.7c-3.2-4.2-4.2-9.9-2.4-14.9,4.6-13.4,11.7-25.8,21.1-36.5,3.5-4,8.8-6,14.1-5.4,0,0,19.6,2.6,19.6,2.6,2.7-1.8,5.5-3.4,8.4-4.8l7.6-18.2c2-4.9,6.4-8.5,11.7-9.6,13.9-2.7,28.2-2.7,42.1,0,5.2,1,9.6,4.6,11.7,9.6h0ZM381,344c-17.7,0-32,14.3-32,32s14.3,32,32,32,32-14.3,32-32-14.3-32-32-32Z"/>
      </g>
    </g>
  </g>
</svg>
