<?xml version="1.0" encoding="UTF-8"?>
<svg xmlns="http://www.w3.org/2000/svg" version="1.1" viewBox="0 0 512 512">
  <defs>
    <style>
      .cls-1 {
        fill: #d82149;
      }
    </style>
  </defs>
  <!-- Generator: Adobe Illustrator 28.6.0, SVG Export Plug-In . SVG Version: 1.2.0 Build 709)  -->
  <g>
    <g id="Layer_2">
      <g id="Icon">
        <g id="UserCheckCircle">
          <path class="cls-1" d="M360.1,467.2H47.4c-27.1,0-46.4-26.4-38.1-52.2l32.9-102.8c10.6-33,46.7-50.1,78.9-37.6,21.4,8.3,48.9,14.8,82.6,14.8s61.2-6.5,82.6-14.8c1.2-.5,2.5-.9,3.8-1.3v2.5c0,59.1,43.9,108.1,100.8,116.1l7.4,23.1c8.2,25.8-11,52.2-38.2,52.2h0Z"/>
          <circle class="cls-1" cx="203.8" cy="147.9" r="103.1"/>
          <path class="cls-1" d="M407.6,173.1c-55.5,0-100.7,45.2-100.7,100.7,5.5,133.6,195.9,133.5,201.4,0,0-55.5-45.2-100.7-100.7-100.7h0ZM442.9,289.8c5.3,5.3,5.3,13.9,0,19.2-5.3,5.3-13.9,5.3-19.2,0l-16.1-16.1-16.1,16.1c-5.3,5.3-13.9,5.3-19.2,0-5.3-5.3-5.3-13.9,0-19.2l16.1-16.1-16.1-16.1c-5.3-5.3-5.3-13.9,0-19.2,5.3-5.3,13.9-5.3,19.2,0l16.1,16.1,16.1-16.1c5.3-5.3,13.9-5.3,19.2,0,5.3,5.3,5.3,13.9,0,19.2l-16.1,16.1,16.1,16.1Z"/>
        </g>
      </g>
    </g>
  </g>
</svg>
