<?xml version="1.0" encoding="UTF-8"?>
<svg xmlns="http://www.w3.org/2000/svg" version="1.1" viewBox="0 0 500 500">
  <defs>
    <style>
      .cls-1 {
        fill: #1cba51;
        fill-rule: evenodd;
      }
    </style>
  </defs>
  <!-- Generator: Adobe Illustrator 28.6.0, SVG Export Plug-In . SVG Version: 1.2.0 Build 709)  -->
  <g>
    <g id="Layer_1">
      <g>
        <path class="cls-1" d="M165,0C108.1,0,62,46.1,62,103v294c0,56.9,46.1,103,103,103h91.9c-29.1-30.8-46.9-72.3-46.9-118,0-95,77-172,172-172s38.4,3.3,56,9.3v-116.3C438,46.1,391.9,0,335,0h-170ZM135,112c0-14.9,12.1-27,27-27h138c14.9,0,27,12.1,27,27s-12.1,27-27,27h-138c-14.9,0-27-12.1-27-27ZM162,175c-14.9,0-27,12.1-27,27s12.1,27,27,27h38c14.9,0,27-12.1,27-27s-12.1-27-27-27h-38Z"/>
        <path class="cls-1" d="M382,500c-8.3,0-16.5-.9-24.3-2.5-53.5-11.2-93.7-58.7-93.7-115.5s52.8-118,118-118,39.3,5.1,56,14.1c36.9,19.9,62,59,62,103.9,0,65.2-52.8,118-118,118ZM359.1,363.5c-10.5-10.5-27.6-10.5-38.2,0s-10.5,27.6,0,38.2l30.1,30c10.5,10.5,27.6,10.5,38.2,0l57.5-57.5c10.5-10.5,10.5-27.6,0-38.2s-27.6-10.5-38.2,0l-38.5,38.5-11-11Z"/>
      </g>
    </g>
  </g>
</svg>
