<?xml version="1.0" encoding="UTF-8"?>
<svg xmlns="http://www.w3.org/2000/svg" version="1.1" viewBox="0 0 512 512">
  <defs>
    <style>
      .cls-1 {
        font-family: MyriadPro-Regular, 'Myriad Pro';
        font-size: 12px;
      }

      .cls-1, .cls-2 {
        fill: #b71db0;
      }
    </style>
  </defs>
  <!-- Generator: Adobe Illustrator 28.6.0, SVG Export Plug-In . SVG Version: 1.2.0 Build 709)  -->
  <g>
    <g id="Capa_1">
      <path class="cls-2" d="M486.4,25.6h-76.8V0H102.4v25.6H25.6C10.2,25.6,0,35.8,0,51.2v61.4c0,58.9,43.5,107.5,102.4,115.2v2.6c0,74.2,51.2,135.7,120.3,151l-17.9,53.8h-58.9c-10.2,0-20.5,7.7-23,17.9l-20.5,58.9h307.2l-20.5-58.9c-2.6-10.2-12.8-17.9-23-17.9h-58.9l-17.9-53.8c69.1-15.4,120.3-76.8,120.3-151v-2.6c58.9-7.7,102.4-56.3,102.4-115.2v-61.4c0-15.4-10.2-25.6-25.6-25.6ZM102.4,176.6c-28.2-7.7-51.2-33.3-51.2-64v-35.8h51.2v99.8ZM307.2,256l-51.2-28.2-51.2,28.2,12.8-51.2-38.4-51.2h53.8l23-51.2,23,51.2h53.8l-38.4,51.2,12.8,51.2ZM460.8,112.6c0,30.7-23,58.9-51.2,64v-99.8h51.2v35.8Z"/>
      <text class="cls-1" transform="translate(228.2 260)"><tspan x="0" y="0">#b71db0</tspan></text>
    </g>
  </g>
</svg>
