<?xml version="1.0" encoding="UTF-8"?>
<svg xmlns="http://www.w3.org/2000/svg" version="1.1" viewBox="0 0 512 512">
  <defs>
    <style>
      .cls-1 {
        fill: #d82149;
      }
    </style>
  </defs>
  <!-- Generator: Adobe Illustrator 28.6.0, SVG Export Plug-In . SVG Version: 1.2.0 Build 709)  -->
  <g>
    <g id="Layer_1">
      <path class="cls-1" d="M309.4,115.3c23.6,14.8,40.2,39.9,43.2,69,9.6,4.5,20.3,7.1,31.7,7.1,41.4,0,74.9-33.6,74.9-74.9s-33.6-74.9-74.9-74.9c-41,0-74.3,33-74.9,73.8ZM260.3,268.7c41.4,0,74.9-33.6,74.9-74.9s-33.6-74.9-74.9-74.9-75,33.6-75,74.9,33.6,74.9,75,74.9ZM292.1,273.8h-63.6c-52.9,0-96,43.1-96,96v77.8l.2,1.2,5.4,1.7c50.5,15.8,94.4,21,130.5,21,70.5,0,111.4-20.1,113.9-21.4l5-2.5h.5v-77.8c0-52.9-43-96-95.9-96ZM416,196.5h-63.1c-.7,25.2-11.5,48-28.5,64.3,47,14,81.4,57.6,81.4,109.1v24c62.3-2.3,98.2-19.9,100.6-21.1l5-2.5h.5v-77.8c0-52.9-43-96-96-96ZM128.8,191.4c14.7,0,28.3-4.3,39.9-11.6,3.7-24,16.5-44.9,34.9-59.2,0-1.4.2-2.8.2-4.2,0-41.4-33.6-74.9-74.9-74.9S53.8,75.1,53.8,116.4s33.5,74.9,74.9,74.9ZM196.1,260.8c-17-16.3-27.7-38.9-28.5-64-2.3-.2-4.7-.4-7-.4h-63.6c-52.9,0-96,43-96,96v77.8l.2,1.2,5.4,1.7c40.5,12.6,76.7,18.5,108.1,20.3v-23.5c0-51.5,34.4-95.1,81.5-109.1Z"/>
    </g>
  </g>
</svg>
