<?xml version="1.0" encoding="UTF-8"?>
<svg xmlns="http://www.w3.org/2000/svg" version="1.1" viewBox="0 0 512 512">
  <defs>
    <style>
      .cls-1 {
        fill: #1cba51;
      }
    </style>
  </defs>
  <!-- Generator: Adobe Illustrator 28.6.0, SVG Export Plug-In . SVG Version: 1.2.0 Build 709)  -->
  <g>
    <g id="Layer_1">
      <g>
        <path class="cls-1" d="M349.2,296.3h0c45.5-70.1,35.5-164-23.7-223.2C255.9,3.5,142.7,3.6,73.2,73.1c-69.6,69.6-69.7,182.8-.2,252.4,34.4,34.3,80.4,52.1,126.7,52.1s67.1-9.3,96.5-28.3c10.3-6.6,20.2-14.6,29.4-23.7,8.8-8.8,16.8-18.6,23.6-29.1M317.6,275.8c-5.5,8.4-11.8,16.1-18.6,23-7.1,7.1-14.8,13.3-23,18.6-22.9,14.8-49.4,22.6-76.7,22.6s-73.1-14.6-99.7-41.2c-54.8-54.9-54.7-144.2.2-199.1,26.5-26.6,61.9-41.3,99.5-41.3s73,14.7,99.6,41.3c46.7,46.7,54.6,120.8,18.7,176.1h0"/>
        <path class="cls-1" d="M238.6,230.8h-3.5c-10.1,7.2-22.4,11.3-35.8,11.3s-25.7-4.1-35.8-11.3h-3.6c-30.3,0-55.5,22.2-60.3,51.2,2.5,3,5.1,5.9,8,8.8,24.5,24.5,57.1,37.9,91.8,37.9s49.5-7.2,70.6-20.8c7.5-4.8,14.6-10.6,21.1-17.1,2.8-2.7,5.4-5.6,8-8.7-4.7-29.1-30-51.3-60.4-51.3"/>
        <path class="cls-1" d="M199.3,236.4c31.4,0,56.9-25.5,56.9-56.9s-25.5-56.9-56.9-56.9-56.9,25.5-56.9,56.9,25.5,56.9,56.9,56.9"/>
        <path class="cls-1" d="M321.9,374.4l52.5-52.5c.6-.6,1.2-1.1,1.9-1.7l-21.8-21.8c-.2.3-.4.6-.6.9-7.1,10.8-15.3,20.9-24.4,30-9.4,9.4-19.6,17.7-30.3,24.5-.3.2-.6.4-.9.5l21.9,21.9c.5-.7,1.1-1.3,1.7-1.9"/>
        <path class="cls-1" d="M474.5,394.3l-68.4-68.4c-7.4-7.4-20.3-7.4-27.7,0l-52.5,52.5c-3.7,3.7-5.7,8.6-5.7,13.9s2,10.2,5.7,13.9l68.4,68.4c11.1,11.1,25.6,16.6,40.1,16.6s29-5.5,40.1-16.6c22.1-22.1,22.1-58.1,0-80.2"/>
      </g>
    </g>
  </g>
</svg>
