<svg height="512" viewBox="0 0 32 32" width="512" xmlns="http://www.w3.org/2000/svg"><g id="delete" fill="rgb(0,0,0)"><path d="m29 9a3 3 0 0 0 -3-3h-4v-1a3 3 0 0 0 -3-3h-6a3 3 0 0 0 -3 3v1h-4a3 3 0 0 0 -.91 5.84l1.73 15.57a3 3 0 0 0 2.98 2.59h12.4a3 3 0 0 0 3-2.59l1.73-15.57a3 3 0 0 0 2.07-2.84zm-17-4a1 1 0 0 1 1-1h6a1 1 0 0 1 1 1v1h-8zm11.19 22.19a1 1 0 0 1 -1 .81h-12.39a1 1 0 0 1 -1-.81l-1.68-15.19h17.76zm2.81-17.19h-20a1 1 0 0 1 0-2h20a1 1 0 0 1 0 2z"/><path d="m13 25a1 1 0 0 0 1-1v-9a1 1 0 0 0 -2 0v9a1 1 0 0 0 1 1z"/><path d="m19 25a1 1 0 0 0 1-1v-9a1 1 0 0 0 -2 0v9a1 1 0 0 0 1 1z"/></g></svg>
