<?xml version="1.0" encoding="UTF-8"?>
<svg xmlns="http://www.w3.org/2000/svg" version="1.1" viewBox="0 0 512 512">
  <!-- Generator: Adobe Illustrator 28.6.0, SVG Export Plug-In . SVG Version: 1.2.0 Build 709)  -->
  <g>
    <g id="Layer_1">
      <g id="Layer_2">
        <path d="M426.7,485.3H85.3c-32.4,0-58.6-26.3-58.7-58.7V170.7c0-8.8,7.2-16,16-16h426.7c8.8,0,16,7.2,16,16v256c0,32.4-26.3,58.6-58.7,58.7ZM58.7,186.7v240c0,14.7,11.9,26.6,26.7,26.7h341.3c14.7,0,26.6-11.9,26.7-26.7v-240H58.7Z"/>
        <path d="M469.3,186.7H42.7c-8.8,0-16-7.2-16-16,0-2.5.6-4.9,1.7-7.1l58.1-116.2c6.3-12.7,19.2-20.7,33.4-20.6h272.3c14.2,0,27.1,8,33.4,20.7l58.1,116.2c3.9,7.9.7,17.5-7.2,21.5-2.2,1.1-4.7,1.7-7.1,1.7h0ZM68.6,154.7h374.9l-46.5-93.1c-.9-1.8-2.7-3-4.8-2.9H119.9c-2,0-3.9,1.1-4.8,2.9l-46.5,93.1Z"/>
        <path d="M256,240c8.8,0,16,7.2,16,16v128c0,8.8-7.2,16-16,16-8.8,0-16-7.2-16-16v-128c0-8.8,7.2-16,16-16Z"/>
        <path d="M256,240c4.2,0,8.3,1.7,11.3,4.7l64,64c6,6.5,5.7,16.6-.8,22.6-6.1,5.7-15.7,5.7-21.8,0l-52.7-52.7-52.7,52.7c-6.5,6-16.6,5.7-22.6-.8-5.7-6.1-5.7-15.7,0-21.8l64-64c3-3,7.1-4.7,11.3-4.7h0Z"/>
      </g>
    </g>
  </g>
</svg>
