<svg width="75" height="58" viewBox="0 0 75 58" fill="none" xmlns="http://www.w3.org/2000/svg">
<mask id="mask0_1_82889" style="mask-type:luminance" maskUnits="userSpaceOnUse" x="0" y="0" width="75" height="58">
<path d="M74.0916 0H0.908447V57.5401H74.0916V0Z" fill="white"/>
</mask>
<g mask="url(#mask0_1_82889)">
<path d="M41.6392 57.539C55.0134 57.539 65.8553 46.3499 65.8553 32.5476C65.8553 18.7452 55.0134 7.55615 41.6392 7.55615C28.265 7.55615 17.4231 18.7452 17.4231 32.5476C17.4231 46.3499 28.265 57.539 41.6392 57.539Z" fill="#E54F38"/>
<path d="M13.0046 44.7348L17.6093 38.3707L27.4766 22.3289L39.2361 7.73734C39.2361 7.73734 41.1424 6.76669 42.6064 6.54424C43.0627 6.47491 48.5464 0.422775 48.9383 0.518107C48.9383 0.518107 50.0888 -0.0827743 51.4044 0.00966879C52.0622 0.434329 60.6138 6.71469 60.6138 6.71469V9.68443L63.5754 15.6267V16.9007C63.5754 16.9007 63.3291 19.7867 59.9561 19.1078C56.583 18.429 51.8131 16.2219 51.8131 16.2219L63.5726 47.4532V53.1385L62.8336 54.0716H55.76C55.76 54.0716 54.8587 53.9734 54.979 52.4943L54.853 52.0349L57.0729 49.7441L45.4785 35.2305L25.4135 43.2095L22.3708 48.2159L24.3443 50.6772C24.3443 50.6772 24.5374 52.6011 23.5213 52.685C22.508 52.7687 21.9033 52.7427 21.9033 52.7427C21.9033 52.7427 21.8222 54.1583 21.0804 54.2131C20.3414 54.2709 14.0627 54.2131 14.0627 54.2131C14.0627 54.2131 13.1586 53.4216 13.1306 53.1385C13.1026 52.8554 12.9934 44.7348 12.9934 44.7348H13.0046Z" fill="#070707"/>
</g>
</svg>
