<svg width="302" height="199" viewBox="0 0 302 199" fill="none" xmlns="http://www.w3.org/2000/svg">
<path d="M268.559 60.1919L264.705 78.5826L262.226 76.1997L258.005 79.1648L254.781 75.2199L247.547 80.4025L241.369 70.2155L234.473 74.1949L231.74 70.4793L222.986 75.3405L220.352 69.7837L226.487 40.4932L259.387 47.1873L268.559 60.1919Z" fill="#EBEBEB"/>
<path d="M259.386 47.1875L268.558 60.1905L257.148 57.869L259.386 47.1875Z" fill="#DBDBDB"/>
<path d="M263.885 82.2589L258.233 109.241L213.922 100.227L219.531 73.46L222.165 79.0164L230.92 74.1552L233.653 77.8711L240.549 73.8917L246.726 84.0784L253.961 78.8958L257.185 82.8407L261.406 79.8759L263.885 82.2589Z" fill="#EBEBEB"/>
<path d="M200.459 79.0969L155.3 81.8509L151.713 24.7207L185.243 22.6758L197.556 32.8525L200.459 79.0969Z" fill="#EBEBEB"/>
<path d="M185.244 22.6758L197.556 32.8525L185.928 33.5617L185.244 22.6758Z" fill="#DBDBDB"/>
<path d="M172.725 61.1136L172.55 59.8251C172.094 57.154 172.837 54.1671 175.192 51.0416C177.315 48.2781 178.467 46.2669 178.34 44.0276C178.196 41.4891 176.483 39.8859 173.299 40.0117C171.48 40.1121 169.494 40.8208 168.285 41.8363L166.895 38.7672C168.494 37.4807 171.327 36.5255 174.004 36.3775C179.812 36.0569 182.638 39.4462 182.853 43.2284C183.046 46.6134 181.265 49.1579 179.002 52.1289C176.927 54.8397 176.244 57.0747 176.54 59.6045L176.664 60.8958L172.725 61.1136ZM172.01 68.1431C171.905 66.3014 173.094 64.9375 174.861 64.8399C176.629 64.7422 177.915 65.9696 178.019 67.8113C178.118 69.5534 177.033 70.9614 175.165 71.0646C173.397 71.1622 172.109 69.8852 172.01 68.1431Z" fill="#DBDBDB"/>
<path d="M59.7872 51.3972L55.2427 49.3662L54.6125 50.7377C54.4273 51.1408 54.0258 51.3984 53.5768 51.4178C53.3288 51.4285 53.0807 51.4528 52.8339 51.4897C52.391 51.5563 51.9472 51.3805 51.6863 51.0218L50.7968 49.798L46.7391 52.6631L47.6286 53.8865C47.8896 54.2456 47.9157 54.7159 47.7096 55.108C47.5944 55.3262 47.4917 55.55 47.4015 55.7782C47.2385 56.1909 46.862 56.4826 46.415 56.5258L44.8945 56.6727L45.3846 61.5664L46.9103 61.4168C47.3576 61.3728 47.7808 61.5922 48.0237 61.9652C48.0897 62.0664 48.1585 62.1664 48.2298 62.2648C48.3015 62.3632 48.3752 62.4597 48.4513 62.5537C48.7299 62.8986 48.8048 63.3617 48.6204 63.7633L47.9858 65.1446L52.5303 67.1756L53.1633 65.8014C53.3489 65.3982 53.7512 65.1411 54.2002 65.122C54.4474 65.1117 54.6942 65.0879 54.9403 65.0514C55.3828 64.9855 55.8257 65.1609 56.0867 65.5196L56.9765 66.7439L61.0342 63.8787L60.1443 62.6545C59.8838 62.2958 59.8572 61.8259 60.063 61.4343C60.1773 61.2168 60.2792 60.9938 60.3686 60.7664C60.5313 60.3537 60.9074 60.0612 61.3547 60.0176L62.8784 59.8688L62.3884 54.975L60.8639 55.1234C60.4181 55.1667 59.9961 54.948 59.7541 54.5762C59.6877 54.4746 59.6184 54.3738 59.5464 54.2742C59.4747 54.1758 59.401 54.0794 59.3249 53.9853C59.0446 53.6389 58.9697 53.1734 59.1554 52.7698L59.7872 51.3972ZM57.2093 55.9246C58.524 57.733 58.1024 60.2469 56.2678 61.5426C54.4329 62.8382 51.8788 62.4251 50.5641 60.6168C49.2494 58.8084 49.6718 56.2889 51.5067 54.9933C53.3413 53.698 55.8946 54.1167 57.2093 55.9246Z" fill="#EBEBEB"/>
<path d="M265.108 116.319L262.08 118.041L262.616 118.954C262.773 119.223 262.758 119.553 262.586 119.813C262.491 119.957 262.404 120.105 262.324 120.259C262.182 120.535 261.9 120.712 261.586 120.712H260.516V124.158H261.586C261.9 124.158 262.182 124.336 262.324 124.611C262.404 124.765 262.491 124.914 262.586 125.057C262.758 125.317 262.773 125.647 262.616 125.916L262.08 126.829L265.108 128.551L265.644 127.634C265.801 127.365 266.101 127.217 266.415 127.232C266.5 127.237 266.586 127.239 266.672 127.239C266.759 127.239 266.844 127.237 266.93 127.232C267.243 127.217 267.541 127.363 267.698 127.631L268.237 128.551L271.264 126.829L270.728 125.913C270.571 125.644 270.587 125.314 270.759 125.054C270.854 124.911 270.941 124.763 271.02 124.61C271.163 124.335 271.445 124.158 271.758 124.158H272.829V120.712H271.758C271.445 120.712 271.163 120.535 271.02 120.259C270.941 120.107 270.854 119.958 270.759 119.815C270.587 119.555 270.571 119.225 270.728 118.956L271.264 118.04L268.237 116.318L267.7 117.235C267.543 117.503 267.245 117.65 266.931 117.634C266.846 117.63 266.759 117.628 266.672 117.628C266.586 117.628 266.5 117.63 266.415 117.634C266.1 117.65 265.801 117.502 265.643 117.233L265.108 116.319ZM266.673 119.613C268.254 119.613 269.535 120.876 269.535 122.434C269.535 123.992 268.254 125.257 266.673 125.257C265.092 125.257 263.808 123.992 263.808 122.434C263.808 120.876 265.091 119.613 266.673 119.613Z" fill="#EBEBEB"/>
<path d="M68.9764 36.7348L66.1996 38.8272L66.8499 39.6646C67.0412 39.911 67.0694 40.2404 66.9333 40.5197C66.8576 40.6741 66.7907 40.8328 66.7323 40.9955C66.6276 41.2868 66.3703 41.4987 66.0591 41.5388L64.998 41.6749L65.4494 45.0924L66.5105 44.9563C66.8217 44.9162 67.1253 45.0563 67.3021 45.3115C67.4008 45.4539 67.5067 45.5905 67.6198 45.7206C67.8244 45.9563 67.8823 46.2821 67.7615 46.5682L67.3504 47.5421L70.5782 48.8643L70.9893 47.8865C71.1101 47.6 71.3876 47.4151 71.7016 47.3905C71.787 47.3837 71.8724 47.375 71.9577 47.3643C72.0431 47.3532 72.1281 47.3405 72.2118 47.325C72.5203 47.2694 72.8351 47.3774 73.0256 47.6226L73.6807 48.4663L76.4579 46.3738L75.8068 45.5337C75.6156 45.2873 75.5878 44.9575 75.7247 44.6781C75.8 44.5242 75.8668 44.3662 75.9252 44.2043C76.0303 43.9134 76.2872 43.7019 76.5981 43.6618L77.6595 43.5257L77.2081 40.1082L76.1467 40.2443C75.8358 40.2844 75.5326 40.1447 75.3554 39.8896C75.2572 39.7479 75.1513 39.6122 75.0385 39.4824C74.8336 39.2467 74.7748 38.9209 74.8956 38.6344L75.3071 37.6582L72.0789 36.3359L71.667 37.3125C71.5466 37.5983 71.2696 37.7824 70.9567 37.8066C70.8713 37.8133 70.7852 37.8221 70.6986 37.8332C70.6132 37.8443 70.5283 37.857 70.4441 37.8721C70.1341 37.928 69.818 37.8193 69.6263 37.5725L68.9764 36.7348ZM70.9591 39.8023C72.5271 39.6011 73.9626 40.69 74.1668 42.2352C74.3709 43.7805 73.2664 45.198 71.6984 45.3992C70.1304 45.6004 68.6917 44.5091 68.4876 42.9638C68.2834 41.4186 69.3911 40.0035 70.9591 39.8023Z" fill="#EBEBEB"/>
<path d="M48.2451 126.268C48.4037 122.428 48.3401 118.581 48.0848 114.746C47.5581 106.837 46.237 98.989 44.4226 91.2719C43.4014 86.9277 42.1435 82.6574 40.8332 78.3915C40.7937 78.2625 40.5852 78.299 40.6214 78.4332C44.6738 93.4715 47.9987 108.991 47.7699 124.623C47.7059 128.998 47.1921 133.295 46.7705 137.642C46.7592 137.758 46.9533 137.805 46.9803 137.685C47.8162 133.965 48.088 130.067 48.2451 126.268Z" fill="#EBEBEB"/>
<path d="M40.6216 78.4336C40.6216 78.4336 34.4825 93.7902 35.8568 97.3998C37.2315 101.009 40.0651 101.779 40.0651 101.779C40.0651 101.779 36.309 107.064 38.9336 112.021C41.5586 116.978 47.3904 116.744 47.7777 122.364C47.7777 122.364 48.1027 98.8637 40.6216 78.4336Z" fill="#EBEBEB"/>
<path d="M47.1107 112.661C47.1183 112.635 47.1163 112.607 47.1042 112.58C46.2421 102.138 44.3625 91.729 41.1496 81.688C41.1403 81.6582 41.0908 81.6677 41.0988 81.6987C42.3153 86.1908 43.3977 90.7071 44.3226 95.2481C43.5253 94.439 42.4824 93.9739 41.392 93.6377C41.3714 93.6314 41.3614 93.6604 41.3807 93.6687C42.5162 94.1524 43.6038 94.7132 44.4063 95.6612C44.5855 96.5513 44.7611 97.4418 44.9278 98.3335C43.5559 96.8223 41.6533 96.0727 39.7495 95.36C39.7225 95.3501 39.7084 95.3906 39.7346 95.4013C41.7173 96.1969 43.6924 97.2219 45.0357 98.9057C45.504 101.454 45.9139 104.012 46.2687 106.577C45.2656 105.544 44.0278 104.85 42.608 104.509C42.5654 104.499 42.5416 104.561 42.5847 104.574C44.0435 104.988 45.2983 105.792 46.2973 106.917C46.3045 106.925 46.3122 106.929 46.3202 106.934C46.443 107.837 46.559 108.74 46.6677 109.645C45.8954 108.996 45.0418 108.502 44.1019 108.12C44.077 108.11 44.0637 108.148 44.0878 108.158C45.0426 108.559 45.9014 109.136 46.6577 109.834C46.6685 109.844 46.6794 109.843 46.6903 109.847C46.7925 110.707 46.8944 111.567 46.9826 112.429C45.5753 110.758 43.835 109.548 41.7757 108.765C41.7355 108.75 41.7149 108.811 41.7536 108.827C43.7556 109.685 45.5205 111.044 46.8852 112.719C46.9226 112.765 46.9713 112.772 47.0144 112.759C47.1473 114.08 47.2661 115.404 47.3643 116.73C47.3655 116.748 47.3957 116.75 47.3949 116.731C47.318 115.374 47.2218 114.017 47.1107 112.661Z" fill="white"/>
<path d="M42.1776 92.11C41.1129 91.389 39.76 91.081 38.4892 90.9767C38.4586 90.9743 38.4561 91.0187 38.4859 91.0227C39.8079 91.2163 40.9184 91.6878 42.1329 92.1965C42.1856 92.2191 42.2235 92.1414 42.1776 92.11Z" fill="white"/>
<path d="M42.9246 108.369C42.0822 107.871 41.121 107.589 40.1558 107.436C40.122 107.431 40.1192 107.482 40.1522 107.488C41.1323 107.663 42.0005 108.006 42.8912 108.434C42.929 108.453 42.9604 108.391 42.9246 108.369Z" fill="white"/>
<path d="M64.385 97.6509C61.8249 99.4248 59.3678 101.47 57.2796 103.772C55.0536 106.225 53.4301 109.01 52.2962 112.101C49.9732 118.432 48.7 125.291 48.584 132.02C48.5188 135.792 48.8594 139.535 49.6784 143.222C49.7082 143.356 49.9116 143.318 49.8911 143.183C48.89 136.696 48.9267 130.076 50.0022 123.602C51.0576 117.249 52.7137 110.337 56.8113 105.174C59.0425 102.363 61.8245 100.151 64.5747 97.8656C64.7184 97.7454 64.5336 97.5477 64.385 97.6509Z" fill="#EBEBEB"/>
<path d="M49.4863 127.446C49.4863 127.446 51.5947 123.946 54.6658 120.92C57.737 117.895 60.3237 115.744 60.7227 113.743C61.1222 111.742 57.6464 110.268 57.6464 110.268C57.6464 110.268 61.8965 111.02 63.0594 109.262C64.2223 107.504 64.7836 97.3232 64.7836 97.3232C64.7836 97.3232 57.052 102.763 53.4494 110.389C49.8471 118.015 49.4863 127.446 49.4863 127.446Z" fill="#EBEBEB"/>
<path d="M62.1089 99.9341C58.8557 103.083 55.5817 106.439 53.6658 110.575C53.009 111.994 52.4501 113.465 51.9581 114.963C51.9569 114.966 51.9569 114.968 51.9556 114.97C51.857 115.271 51.7567 115.571 51.6637 115.874C51.6545 115.889 51.6496 115.906 51.648 115.924C50.7009 119.013 50.0313 122.208 49.4515 125.329C49.4478 125.35 49.4788 125.36 49.4829 125.339C49.8159 123.751 50.1835 122.147 50.5938 120.547C50.6083 120.548 50.624 120.545 50.6401 120.538C51.2977 120.266 51.9593 120.095 52.6692 120.031C52.7155 120.027 52.7119 119.947 52.6647 119.95C51.9798 119.982 51.309 120.101 50.6579 120.311C51.0323 118.868 51.4394 117.43 51.8973 116.013C53.3899 115.653 54.9479 115.459 56.4828 115.422C56.4985 115.422 56.5014 115.399 56.4848 115.398C54.9374 115.327 53.483 115.458 51.9758 115.775C52.0555 115.532 52.1385 115.29 52.221 115.048C53.2289 114.822 54.2412 114.631 55.2724 114.538C55.2909 114.537 55.2893 114.505 55.2708 114.506C54.2609 114.533 53.2655 114.637 52.283 114.864C52.7038 113.637 53.1584 112.428 53.6626 111.249C54.0797 110.275 54.5758 109.349 55.1222 108.456C55.9489 108.271 56.7502 108.096 57.5974 108.021C57.6208 108.019 57.6183 107.982 57.5954 107.981C56.8263 107.931 56.0254 107.988 55.2813 108.206C55.688 107.559 56.1152 106.925 56.5726 106.31C58.3065 105.932 60.0641 105.581 61.8379 105.909C61.8685 105.914 61.8798 105.864 61.8496 105.856C60.1612 105.418 58.4853 105.671 56.8054 105.998C56.9886 105.758 57.1762 105.521 57.3655 105.285C58.4297 104.96 59.4883 104.803 60.6049 104.783C60.6279 104.783 60.6315 104.75 60.6077 104.748C59.5886 104.652 58.5723 104.749 57.5873 105.012C59.0208 103.257 60.6041 101.608 62.1693 99.9781C62.2426 99.9035 62.1862 99.8595 62.1089 99.9341Z" fill="white"/>
<path d="M62.0231 106.873C61.5142 106.82 60.9967 106.764 60.4853 106.821C60.4233 106.827 60.4286 106.927 60.491 106.929C60.9999 106.943 61.5089 106.906 62.0179 106.933C62.0569 106.935 62.0618 106.877 62.0231 106.873Z" fill="white"/>
<path d="M56.4574 116.749C55.6448 116.739 54.8334 116.955 54.0744 117.221C54.0555 117.228 54.066 117.259 54.0857 117.254C54.8725 117.07 55.6686 116.995 56.4634 116.865C56.5287 116.855 56.5254 116.75 56.4574 116.749Z" fill="white"/>
<path d="M54.7894 113.338C54.4596 113.321 54.1028 113.378 53.7779 113.428C53.7444 113.433 53.7464 113.487 53.7811 113.488C54.1096 113.493 54.4712 113.502 54.795 113.441C54.8522 113.43 54.8498 113.341 54.7894 113.338Z" fill="white"/>
<path d="M26.8212 108.455C29.3093 109.307 31.7772 110.403 34.0072 111.79C36.3841 113.268 38.3511 115.153 39.9936 117.395C43.3583 121.99 45.9974 127.251 47.6697 132.67C48.6071 135.708 49.2095 138.815 49.4112 141.985C49.4184 142.1 49.2449 142.116 49.23 142.001C48.5185 136.523 46.9364 131.175 44.5474 126.179C42.2035 121.279 39.2422 116.063 34.7151 112.818C32.2499 111.051 29.48 109.895 26.7181 108.671C26.5736 108.607 26.6766 108.406 26.8212 108.455Z" fill="#EBEBEB"/>
<path d="M45.8662 129.173C45.8662 129.173 43.3391 126.821 40.1444 125.072C36.9492 123.323 34.3516 122.172 33.5591 120.643C32.7667 119.115 35.2338 117.13 35.2338 117.13C35.2338 117.13 31.9706 118.707 30.6173 117.549C29.2639 116.392 26.4219 108.28 26.4219 108.28C26.4219 108.28 33.955 110.922 38.6585 116.272C43.3625 121.624 45.8662 129.173 45.8662 129.173Z" fill="#EBEBEB"/>
<path d="M45.4734 127.5C41.7056 120.53 36.6784 114.226 29.7895 110.064C29.7863 110.062 29.7835 110.067 29.7863 110.068C31.5999 111.207 33.271 112.521 34.8285 113.957C33.4341 113.919 32.0147 114.138 30.7785 114.799C30.7511 114.814 30.7708 114.851 30.799 114.841C32.1769 114.381 33.5005 114.08 34.9662 114.147C34.9864 114.148 34.9992 114.137 35.0133 114.129C35.2577 114.358 35.4989 114.59 35.7377 114.824C35.0129 114.855 34.2797 114.956 33.5734 115.107C33.5545 115.111 33.5597 115.14 33.579 115.137C34.3433 114.991 35.0894 114.94 35.865 114.951C37.1273 116.201 38.3035 117.538 39.4181 118.927C38.9148 118.855 38.3873 118.897 37.9049 119.035C37.869 119.045 37.8783 119.096 37.9158 119.091C38.4646 119.023 38.9864 119.032 39.5313 119.07C39.7374 119.328 39.946 119.586 40.1481 119.847C38.5991 119.755 37.0814 119.902 35.5763 120.286C35.5541 120.291 35.5602 120.325 35.5831 120.32C37.1358 120.02 38.7014 119.924 40.279 120.02C40.4711 120.271 40.6531 120.529 40.8415 120.783C39.9174 120.755 39.0211 120.869 38.1199 121.09C38.0857 121.099 38.0953 121.152 38.1304 121.144C39.0573 120.936 40 120.883 40.9474 120.928C41.758 122.028 42.5343 123.153 43.2805 124.292C42.8855 124.211 42.4707 124.255 42.0858 124.362C42.0652 124.368 42.0709 124.397 42.0922 124.394C42.5355 124.343 42.9495 124.399 43.3848 124.455C44.0556 125.484 44.7043 126.524 45.3256 127.569C45.3788 127.658 45.5233 127.592 45.4734 127.5Z" fill="white"/>
<path d="M39.6134 121.719C38.8769 121.657 38.1283 121.771 37.4249 121.983C37.4047 121.989 37.4096 122.019 37.4313 122.015C38.1557 121.884 38.8737 121.834 39.6077 121.795C39.6556 121.793 39.6649 121.724 39.6134 121.719Z" fill="white"/>
<path d="M33.0413 113.226C32.7083 113.189 32.3608 113.232 32.0318 113.284C31.9927 113.29 32.0048 113.347 32.0435 113.343C32.3753 113.308 32.7026 113.32 33.0348 113.311C33.0888 113.309 33.0976 113.232 33.0413 113.226Z" fill="white"/>
<path d="M55.5823 152.219H38.5781L41.0026 134.716L41.6223 130.229H52.5382L53.1575 134.716L55.5823 152.219Z" fill="#DBDBDB"/>
<path d="M53.1588 134.716H41.0039L41.6236 130.229H52.5395L53.1588 134.716Z" fill="#C7C7C7"/>
<path d="M54.1003 128.672H40.0625V132.473H54.1003V128.672Z" fill="#DBDBDB"/>
<path d="M27.7695 152.22L58.3758 152.124L88.9821 152.089L150.195 152.022L211.407 152.089L242.014 152.124L272.62 152.22L242.014 152.318L211.407 152.353L150.195 152.418L88.9821 152.352L58.3758 152.317L27.7695 152.22Z" fill="#263238"/>
<path d="M151.001 181.797C214.768 181.797 266.462 176.215 266.462 169.329C266.462 162.443 214.768 156.86 151.001 156.86C87.2329 156.86 35.5391 162.443 35.5391 169.329C35.5391 176.215 87.2329 181.797 151.001 181.797Z" fill="#EBEBEB"/>
<path d="M124.123 167.261C123.184 167.574 96.2805 167.668 95.2521 167.032C94.8607 166.793 94.6187 162.933 94.46 158.259C94.4258 157.25 94.3964 156.208 94.3731 155.15L92.1914 141.008L110.177 140.895L111.874 155.039L111.805 158.15C111.805 158.15 122.122 162.655 123.174 163.471C124.221 164.287 125.062 166.948 124.123 167.261Z" fill="#EB9481"/>
<path d="M124.123 167.261C123.184 167.574 96.2805 167.667 95.2521 167.032C94.7769 166.738 94.5176 161.1 94.373 155.149L111.874 155.038L111.805 158.149C111.805 158.149 122.122 162.654 123.174 163.47C124.221 164.287 125.062 166.947 124.123 167.261Z" fill="white"/>
<path d="M124.124 167.262C123.185 167.575 96.2814 167.668 95.253 167.033C94.8616 166.794 94.6196 162.933 94.4609 158.26L111.806 158.15C111.806 158.15 122.123 162.655 123.175 163.472C124.222 164.288 125.063 166.949 124.124 167.262Z" fill="#A6A6A6"/>
<path d="M123.734 166.202C119.224 166.109 101.024 166.151 96.5584 166.396C96.5222 166.398 96.5222 166.422 96.5584 166.424C101.027 166.613 119.226 166.426 123.735 166.275C123.83 166.272 123.829 166.204 123.734 166.202Z" fill="#263238"/>
<path d="M121.442 162.524C120.372 162.484 119.328 162.989 118.747 163.618C118.189 164.224 117.713 165.073 117.748 165.995C117.749 166.021 117.799 166.022 117.802 165.995C118.054 164.255 119.653 162.721 121.442 162.58C121.478 162.576 121.478 162.525 121.442 162.524Z" fill="#263238"/>
<path d="M113.556 158.586C111.751 158.568 109.66 159.203 108.543 160.662C108.5 160.718 108.582 160.778 108.636 160.751C110.264 159.916 111.813 159.293 113.587 158.805C113.713 158.771 113.685 158.588 113.556 158.586Z" fill="#263238"/>
<path d="M114.954 159.118C113.149 159.099 111.058 159.734 109.942 161.193C109.899 161.25 109.981 161.309 110.034 161.282C111.663 160.447 113.212 159.824 114.986 159.337C115.111 159.302 115.083 159.119 114.954 159.118Z" fill="#263238"/>
<path d="M116.349 159.647C114.544 159.629 112.453 160.264 111.336 161.722C111.293 161.779 111.375 161.839 111.429 161.811C113.057 160.977 114.606 160.354 116.381 159.866C116.506 159.831 116.478 159.648 116.349 159.647Z" fill="#263238"/>
<path d="M117.743 160.178C115.938 160.159 113.848 160.795 112.731 162.254C112.688 162.31 112.77 162.37 112.823 162.342C114.452 161.508 116.001 160.885 117.775 160.397C117.9 160.362 117.872 160.179 117.743 160.178Z" fill="#263238"/>
<path d="M97.6917 162.171C95.6667 162.184 95.6832 165.286 97.7119 165.273C99.7369 165.26 99.7204 162.158 97.6917 162.171Z" fill="#263238"/>
<path d="M115.492 153.833C114.575 153.089 113.427 153.823 112.866 154.6C111.958 155.859 111.338 157.621 111.242 159.155C111.24 159.193 111.269 159.208 111.299 159.206C111.338 159.333 111.491 159.44 111.624 159.348C112.906 158.468 114.387 157.683 115.357 156.441C115.923 155.715 116.358 154.536 115.492 153.833ZM113.29 157.621C112.671 158.069 112.032 158.485 111.429 158.955C111.748 158.068 112.027 157.171 112.437 156.316C112.633 155.908 112.841 155.492 113.092 155.114C113.482 154.525 115.249 153.032 115.435 154.966C115.538 156.034 114.029 157.087 113.29 157.621Z" fill="#263238"/>
<path d="M106.759 159.83C108.331 160.063 109.951 159.616 111.494 159.374C111.654 159.349 111.69 159.168 111.628 159.049C111.651 159.031 111.661 159 111.633 158.974C110.486 157.934 108.798 157.088 107.259 156.802C106.308 156.625 104.964 156.881 104.827 158.043C104.697 159.142 105.84 159.694 106.759 159.83ZM105.665 158.821C104.438 157.299 106.761 157.168 107.457 157.326C107.904 157.428 108.347 157.585 108.775 157.745C109.672 158.082 110.503 158.537 111.358 158.959C110.592 159.031 109.84 159.168 109.078 159.268C108.17 159.389 106.341 159.661 105.665 158.821Z" fill="#263238"/>
<path d="M65.7617 75.6396C65.7617 75.6396 86.648 110.656 87.2073 113.114C88.0666 116.892 92.622 154.2 92.622 154.2L114.354 153.815C114.354 153.815 110.609 120.921 107.061 110.084C104.506 102.278 86.0734 76.3893 86.0734 76.3893L65.7617 75.6396Z" fill="#6F7A80"/>
<path d="M112.38 150.531C109.259 150.508 98.1991 150.385 94.0448 150.767C94.013 150.77 94.0142 150.822 94.0456 150.827C95.4755 151.029 109.261 150.714 112.381 150.615C112.44 150.614 112.439 150.531 112.38 150.531Z" fill="#263238"/>
<path d="M69.3278 78.8526C70.6965 80.9681 72.1404 83.0396 73.5397 85.1368C74.9398 87.2349 76.3346 89.3361 77.7113 91.4488C80.4627 95.6715 83.1425 99.9383 85.7731 104.232C87.0069 106.245 88.1819 108.277 89.0291 110.474C89.8682 112.649 90.4396 114.913 90.8624 117.194C91.2884 119.493 91.5687 121.814 91.8336 124.134C92.1155 126.604 92.3934 129.075 92.6732 131.546C93.2458 136.601 93.8184 141.656 94.391 146.711C94.461 147.331 94.5299 147.951 94.5931 148.572C94.6024 148.663 94.4373 148.681 94.4256 148.59C93.7862 143.567 93.2551 138.529 92.674 133.499C92.3849 130.995 92.0958 128.491 91.8067 125.987C91.5377 123.658 91.282 121.327 90.9156 119.011C90.5552 116.736 90.0877 114.47 89.385 112.268C88.651 109.967 87.6113 107.807 86.3803 105.715C83.8617 101.435 81.1968 97.2271 78.5307 93.0306C75.8417 88.798 73.1302 84.5769 70.318 80.4185C69.9709 79.905 69.6205 79.3947 69.2606 78.8891C69.2324 78.8494 69.3012 78.8117 69.3278 78.8526Z" fill="#263238"/>
<path d="M72.6098 169.328C71.6188 169.268 46.0354 159.052 45.3223 158.084C45.2985 158.052 45.2844 157.988 45.2832 157.898C45.288 157.031 47.0598 153.996 48.5404 150.014C48.633 149.759 49.2934 148.578 50.2098 146.984C52.7289 142.608 57.1864 135.11 57.1864 135.11L73.9088 141.658L65.9046 153.466L64.6587 156.324C64.6587 156.324 72.5071 164.317 73.1699 165.461C73.8286 166.605 73.5971 169.383 72.6098 169.328Z" fill="#EB9481"/>
<path d="M72.6098 169.328C71.6188 169.268 46.0354 159.052 45.3223 158.084C45.2985 158.052 45.2844 157.988 45.2832 157.898C45.288 157.031 47.0598 153.996 48.5404 150.014C48.633 149.759 49.2934 148.578 50.2098 146.984L65.905 153.466L64.6591 156.324C64.6591 156.324 72.5075 164.317 73.1703 165.461C73.8286 166.605 73.5971 169.383 72.6098 169.328Z" fill="white"/>
<path d="M72.6096 169.325C71.6202 169.269 46.036 159.052 45.3245 158.083C45.0527 157.716 46.1967 154.273 48.5402 150.015L64.6605 156.326C64.6605 156.326 72.5089 164.316 73.1733 165.461C73.8321 166.605 73.5989 169.382 72.6096 169.325Z" fill="#A6A6A6"/>
<path d="M72.6518 168.199C68.5067 166.445 51.6193 159.755 47.3865 158.331C47.3522 158.32 47.343 158.342 47.376 158.357C51.4461 160.184 68.3879 166.739 72.6244 168.266C72.7138 168.299 72.7392 168.235 72.6518 168.199Z" fill="#263238"/>
<path d="M71.9259 163.942C70.9495 163.51 69.7902 163.591 69.0118 163.96C68.2641 164.315 67.499 164.926 67.1809 165.794C67.1716 165.819 67.2176 165.837 67.2316 165.813C68.1272 164.293 70.1937 163.463 71.9054 163.993C71.9396 164.004 71.9598 163.956 71.9259 163.942Z" fill="#263238"/>
<path d="M66.118 157.377C64.4518 156.693 62.2722 156.508 60.6816 157.448C60.62 157.484 60.6736 157.57 60.7336 157.564C62.5613 157.393 64.234 157.388 66.0641 157.592C66.1933 157.606 66.2372 157.426 66.118 157.377Z" fill="#263238"/>
<path d="M67.2098 158.385C65.5436 157.7 63.364 157.516 61.7734 158.456C61.7118 158.492 61.7654 158.578 61.8254 158.572C63.6527 158.4 65.3258 158.396 67.1559 158.599C67.2851 158.614 67.329 158.434 67.2098 158.385Z" fill="#263238"/>
<path d="M68.2997 159.393C66.6334 158.708 64.4538 158.524 62.8633 159.463C62.8017 159.5 62.8552 159.586 62.9152 159.58C64.7425 159.409 66.4156 159.403 68.2457 159.607C68.3746 159.622 68.4189 159.442 68.2997 159.393Z" fill="#263238"/>
<path d="M69.3931 160.4C67.7269 159.715 65.5472 159.531 63.9571 160.47C63.8955 160.507 63.9486 160.592 64.009 160.587C65.8368 160.415 67.5094 160.411 69.3395 160.614C69.4684 160.629 69.5127 160.449 69.3931 160.4Z" fill="#263238"/>
<path d="M50.0449 154.834C48.1628 154.097 46.9975 156.979 48.8828 157.717C50.7652 158.454 51.9306 155.572 50.0449 154.834Z" fill="#263238"/>
<path d="M69.7205 153.685C69.1539 152.657 67.8102 152.912 66.9948 153.426C65.6741 154.257 64.4278 155.661 63.7558 157.047C63.7393 157.082 63.7606 157.106 63.7888 157.115C63.7763 157.248 63.8778 157.403 64.036 157.368C65.5597 157.025 67.2316 156.846 68.6031 156.053C69.4036 155.59 70.256 154.658 69.7205 153.685ZM66.2378 156.384C65.4925 156.57 64.7427 156.719 64.0046 156.932C64.6384 156.228 65.238 155.499 65.9435 154.858C66.2801 154.552 66.632 154.244 67.0085 153.986C67.5944 153.584 69.8002 152.853 69.2365 154.716C68.9256 155.743 67.1261 156.161 66.2378 156.384Z" fill="#263238"/>
<path d="M59.3418 156.016C60.7108 156.813 62.3823 156.998 63.9048 157.345C64.0626 157.381 64.1645 157.226 64.1528 157.093C64.181 157.084 64.2028 157.059 64.1863 157.025C63.5182 155.637 62.2764 154.229 60.9585 153.394C60.1443 152.878 58.8014 152.619 58.232 153.645C57.6929 154.616 58.5425 155.551 59.3418 156.016ZM58.7124 154.677C58.1547 152.813 60.3581 153.55 60.9424 153.954C61.3181 154.213 61.6688 154.522 62.0046 154.829C62.7081 155.473 63.3056 156.203 63.9374 156.909C63.2001 156.694 62.4508 156.542 61.7058 156.354C60.8184 156.129 59.0196 155.705 58.7124 154.677Z" fill="#263238"/>
<path d="M67.1945 152.805L48.4766 145.356C48.4766 145.356 71.6847 111.727 71.8566 109.224C72.0084 107.007 61.8149 87.7123 61.413 82.0892C60.9794 76.0208 63.9446 71.3239 67.2026 68.4092L86.5125 76.4986C86.5125 76.4986 84.4746 79.7117 81.2641 81.5003C81.2641 81.5003 91.1665 103.803 90.6048 110.66C90.0402 117.554 67.1945 152.805 67.1945 152.805Z" fill="#6F7A80"/>
<path d="M68.0259 149.298C65.3191 148.151 66.1124 148.442 63.3924 147.325C62.0616 146.778 53.312 143.194 51.98 142.899C51.9506 142.893 51.9317 142.938 51.9575 142.954C53.122 143.657 61.9331 147.09 63.2744 147.611C66.0154 148.677 65.2402 148.342 67.9932 149.377C68.0452 149.396 68.0766 149.319 68.0259 149.298Z" fill="#263238"/>
<path d="M84.4435 81.0914C82.4317 81.5176 80.4583 82.2181 78.5625 82.9708C78.488 83.0006 78.5231 83.1093 78.6028 83.0863C80.5767 82.5185 82.5844 81.9879 84.522 81.3168C84.6742 81.2641 84.5977 81.0585 84.4435 81.0914Z" fill="#263238"/>
<path d="M82.1517 80.3087C81.9613 80.6357 81.7998 80.9802 81.6556 81.3282C81.5441 81.5984 81.4007 81.8881 81.4024 82.183C81.4028 82.2401 81.4809 82.254 81.5167 82.2191C81.741 82.0016 81.8602 81.6841 82.0019 81.4131C82.1662 81.0992 82.3378 80.7881 82.4928 80.4694C82.5955 80.2583 82.2689 80.1071 82.1517 80.3087Z" fill="#263238"/>
<path d="M82.3874 78.5198C82.5058 78.227 82.625 77.9345 82.7498 77.6444C82.8791 77.344 83.0293 77.048 83.1348 76.7389C83.1513 76.6901 83.2298 76.723 83.21 76.7722C83.0921 77.0655 83.0152 77.3782 82.9205 77.6797C82.8255 77.9825 82.7252 78.2833 82.6238 78.5841C82.4345 79.1441 82.203 79.6996 81.959 80.2401C82.2746 80.2361 82.5996 80.2222 82.8867 80.0814C83.1984 79.9282 83.3872 79.602 83.5406 79.3072C83.711 78.9798 83.8676 78.6448 84.0428 78.3198C84.2364 77.9603 84.4507 77.6047 84.5783 77.2155C84.5944 77.1662 84.6713 77.1992 84.6536 77.2484C84.3629 78.052 84.077 78.8544 83.6248 79.5949C83.4472 79.8857 83.3031 80.1885 82.9757 80.3024C82.6242 80.4246 82.2396 80.4008 81.8736 80.3746C81.8285 80.3869 81.7701 80.3584 81.7858 80.3044C81.9586 79.7056 82.153 79.0984 82.3874 78.5198Z" fill="#263238"/>
<path d="M81.5668 82.2278C82.2529 83.6615 82.8565 85.0901 83.498 86.5187C84.1249 87.9147 84.712 89.3271 85.2818 90.7461C86.4334 93.614 87.465 96.5339 88.3698 99.4868C88.8176 100.948 89.2299 102.419 89.6028 103.901C89.9765 105.386 90.3417 106.886 90.4967 108.412C90.6521 109.942 90.5414 111.455 90.1089 112.935C89.67 114.436 89.0918 115.747 88.4049 117.152C87.9853 118.01 87.8407 117.894 88.0441 117.461C88.6203 116.232 90.1295 112.506 90.02 109.374C89.9672 107.863 89.6523 106.375 89.306 104.907C88.9525 103.408 88.5534 101.92 88.1182 100.442C87.2605 97.5304 86.2417 94.6764 85.1936 91.8271C84.6065 90.2307 83.9763 88.6505 83.3804 87.0576C82.78 85.4528 82.1611 84.0087 81.4951 82.2563C81.4774 82.2103 81.5454 82.1833 81.5668 82.2278Z" fill="#263238"/>
<path d="M67.3525 77.4912C67.6879 77.369 68.153 77.5714 68.4949 77.6278C68.9334 77.7004 69.3767 77.7444 69.8213 77.7595C70.2594 77.7742 70.7011 77.7567 71.1372 77.7147C71.5733 77.673 72.0182 77.6198 72.3971 77.3865C73.0358 76.9936 73.5705 76.3015 74.0034 75.7055C74.4789 75.0503 74.9726 74.2971 75.2561 73.5384C75.2734 73.492 75.3414 73.5237 75.3265 73.5694C75.1856 74.0118 75.0809 74.4579 74.9017 74.89C74.733 75.2968 74.5152 75.6857 74.284 76.0603C73.8524 76.7603 73.3571 77.5075 72.617 77.9238C71.8402 78.3607 70.8396 78.3345 69.9735 78.2853C69.4726 78.2567 68.9737 78.1917 68.4824 78.0897C68.1281 78.0159 67.5317 77.9599 67.3058 77.6531C67.2651 77.5992 67.2865 77.5155 67.3525 77.4912Z" fill="#263238"/>
<path d="M53.8207 141.842C56.8975 137.253 59.9171 132.627 62.8823 127.967C65.8552 123.295 68.7733 118.589 71.6508 113.86C72.3389 112.729 73.1342 111.598 73.5775 110.345C74.0595 108.983 73.7857 107.664 73.3492 106.331C72.5487 103.887 71.5517 101.509 70.4754 99.1714C69.3958 96.8269 68.2337 94.5209 67.0902 92.2066C65.9562 89.911 64.7495 87.6077 63.8894 85.1954C63.0679 82.891 62.755 80.5013 63.3856 78.1112C64.0114 75.7397 65.3647 73.6103 66.7781 71.623C67.151 71.0987 67.5307 70.5793 67.9047 70.0559C67.9333 70.0162 67.9945 70.0642 67.9647 70.1039C66.4072 72.1758 64.8884 74.3686 63.9751 76.8012C63.5237 78.0032 63.2314 79.2687 63.2028 80.5529C63.1734 81.8557 63.4219 83.1481 63.8112 84.389C64.5687 86.8018 65.7642 89.0863 66.878 91.353C68.0167 93.6701 69.186 95.9733 70.2841 98.3099C71.389 100.661 72.4223 103.047 73.2715 105.5C73.6496 106.593 74.0712 107.735 74.0462 108.906C74.0188 110.187 73.3979 111.341 72.7553 112.422C69.9559 117.127 67.0499 121.773 64.108 126.392C61.1548 131.029 58.1433 135.629 55.0851 140.199C54.6993 140.775 54.3127 141.351 53.9258 141.926C53.8779 141.997 53.7732 141.913 53.8207 141.842Z" fill="#263238"/>
<path d="M87.5837 55.1107C89.3264 58.881 98.1307 64.0763 102.254 64.6347C105.221 65.0363 114.229 65.1744 117.319 64.7097C120.937 64.1652 118.172 54.5389 116.033 54.7853C110.155 55.4627 105.163 56.2167 103.594 56.2167C101.678 56.2167 91.3075 52.9365 90.058 52.475C86.9998 51.3452 86.5951 52.9722 87.5837 55.1107Z" fill="#EB9481"/>
<path d="M87.6384 56.1085C89.8446 59.3264 97.18 64.5868 97.18 64.5868L98.198 62.3641L101.567 55.0168C101.567 55.0168 94.8305 52.9219 90.3975 51.9886C89.7987 51.862 89.2708 51.7862 88.8114 51.7659C85.9815 51.6155 85.7358 53.3402 87.6384 56.1085Z" fill="#737791"/>
<path d="M87.6384 56.1085C89.8446 59.3264 97.18 64.5868 97.18 64.5868L98.198 62.3641C95.4626 59.2351 91.2403 54.4926 88.8114 51.7659C85.9815 51.6155 85.7358 53.3402 87.6384 56.1085Z" fill="#263238"/>
<path d="M95.8578 63.1022C96.4167 61.7518 98.9072 56.3033 99.5253 55.16C99.5684 55.0807 99.6292 55.087 99.595 55.1747C98.0185 59.2585 96.5287 61.8225 95.9122 63.1205C95.8969 63.153 95.8437 63.1364 95.8578 63.1022Z" fill="#263238"/>
<path d="M114.955 54.8897C118.533 54.427 122.959 53.6361 126.706 55.204C127.442 55.5115 127.708 56.0516 127.708 56.0516C129.4 56.7251 129.586 57.7148 129.586 57.7148C130.968 58.8176 131.016 59.8557 131.016 59.8557C131.016 59.8557 132.995 60.6676 132.695 61.9275C132.364 63.3414 129.65 61.9244 127.675 62.0446C123.148 62.3196 116.792 63.9585 115.494 64.1657L114.955 54.8897Z" fill="#EB9481"/>
<path d="M122.727 59.0471C124.06 58.9923 125.369 58.9042 126.703 59.0276C128.167 59.1629 129.553 59.5356 130.974 59.88C131.018 59.8907 131.038 59.8312 130.996 59.8137C128.525 58.7891 125.356 58.5201 122.723 58.9875C122.659 58.9987 122.659 59.0499 122.727 59.0471Z" fill="#263238"/>
<path d="M122.16 56.379C123.461 56.3965 125.747 56.4421 129.573 57.7556C129.585 57.76 129.596 57.7405 129.584 57.7338C127.215 56.5556 124.786 56.1365 122.161 56.3179C122.08 56.3235 122.074 56.3778 122.16 56.379Z" fill="#263238"/>
<path d="M121.883 54.9393C124.093 55.0524 125.473 55.3993 127.696 56.058C127.709 56.0616 127.719 56.0413 127.706 56.0358C125.258 55.0258 124.254 54.9326 121.876 54.8643C121.795 54.8616 121.797 54.935 121.883 54.9393Z" fill="#263238"/>
<path d="M122.241 62.7168C121.666 62.9827 121.804 63.2819 122.904 63.5331C124.017 63.7894 128.575 63.8581 128.414 65.4272C128.255 67.0022 121.806 66.8006 120.007 66.2442C118.206 65.6918 115.494 64.1664 115.494 64.1664C116.757 63.9561 119.77 63.1597 122.241 62.7168Z" fill="#EB9481"/>
<path d="M92.3724 61.1202C92.3446 61.798 92.2769 62.4881 92.1803 63.1722C92.1895 63.1476 92.2004 63.1234 92.2097 63.0988C92.3438 62.7417 92.4742 62.3754 92.6369 62.0302C92.6454 62.0119 92.678 62.0171 92.674 62.0393C92.6031 62.4139 92.4698 62.7901 92.3248 63.1437C92.2556 63.3123 92.1851 63.481 92.111 63.648C92.0611 63.9528 92.0055 64.2556 91.9431 64.5536C91.8243 65.1211 91.2803 67.535 91.1567 67.9429C91.1305 68.0287 91.027 68.0092 91.0335 67.9132C91.0633 67.4687 91.5195 64.9548 91.6117 64.3857C91.7889 63.2929 92.0325 62.1778 92.3293 61.1099C92.3361 61.0845 92.3732 61.0964 92.3724 61.1202Z" fill="#263238"/>
<path d="M88.1745 79.1604C87.1006 79.7061 85.7154 80.5513 79.4745 79.3406C79.0843 79.2624 78.6921 79.168 78.2991 79.0529C72.4464 77.3203 65.4271 70.5377 65.0312 70.0595C65.0312 70.0595 74.326 55.2057 86.2176 50.5366C87.6873 49.9596 90.1206 51.0723 91.4675 52.4572C91.9487 52.9521 92.9924 56.5966 92.5918 59.5502C92.1871 62.4995 89.2561 78.62 88.1745 79.1604Z" fill="#737791"/>
<path d="M87.3459 59.4141C87.3801 59.7331 87.3544 60.0438 87.3149 60.3526C87.2678 60.6605 87.2062 60.9665 87.0846 61.2641C87.0499 60.945 87.0757 60.6343 87.1156 60.3256C87.1631 60.0176 87.2247 59.7117 87.3459 59.4141Z" fill="white"/>
<path d="M83.2912 69.5293C83.3254 69.8483 83.2997 70.1591 83.2602 70.4682C83.2131 70.7761 83.1515 71.0821 83.0299 71.3797C82.9953 71.0607 83.021 70.75 83.0609 70.4408C83.1088 70.1329 83.17 69.8269 83.2912 69.5293Z" fill="white"/>
<path d="M76.4025 61.8848C76.4368 62.2038 76.411 62.5145 76.3715 62.8233C76.3244 63.1312 76.2628 63.4372 76.1412 63.7348C76.1066 63.4157 76.1324 63.105 76.1722 62.7959C76.2201 62.4883 76.2817 62.1824 76.4025 61.8848Z" fill="white"/>
<path d="M90.0002 69.0156C90.0344 69.3347 90.0087 69.6454 89.9692 69.9541C89.9221 70.2621 89.8605 70.568 89.7389 70.8656C89.7042 70.5466 89.73 70.2359 89.7699 69.9267C89.8174 69.6192 89.879 69.3132 90.0002 69.0156Z" fill="white"/>
<path d="M81.1523 60.5724C81.4761 60.5386 81.7914 60.564 82.1051 60.6029C82.4175 60.6493 82.728 60.7101 83.03 60.8299C82.7062 60.864 82.3909 60.8386 82.0773 60.7993C81.7648 60.7525 81.4547 60.6918 81.1523 60.5724Z" fill="white"/>
<path d="M73.332 67.881C73.6558 67.8472 73.9711 67.8726 74.2843 67.9115C74.5968 67.9579 74.9073 68.0187 75.2093 68.1385C74.8855 68.1726 74.5702 68.1472 74.257 68.1079C73.9441 68.0611 73.634 68.0004 73.332 67.881Z" fill="white"/>
<path d="M82.5312 75.7901C82.855 75.7564 83.1703 75.7818 83.4836 75.8207C83.796 75.8671 84.1065 75.9278 84.4085 76.0477C84.0847 76.0818 83.7694 76.0564 83.4562 76.0171C83.1437 75.9703 82.8332 75.9096 82.5312 75.7901Z" fill="white"/>
<path d="M70.9219 72.9161C71.2456 72.8824 71.5609 72.9078 71.8746 72.9467C72.1871 72.9931 72.4975 73.0538 72.7995 73.1737C72.4758 73.2078 72.1605 73.1824 71.8468 73.1431C71.5343 73.0959 71.2239 73.0352 70.9219 72.9161Z" fill="white"/>
<path d="M87.2852 52.3048C87.6089 52.271 87.9242 52.2965 88.2379 52.3353C88.5503 52.3818 88.8604 52.4425 89.1624 52.5623C88.8386 52.5965 88.5234 52.5711 88.2101 52.5318C87.8976 52.4845 87.5872 52.4238 87.2852 52.3048Z" fill="white"/>
<path d="M85.014 54.8359C84.809 55.0851 84.5682 55.2871 84.3186 55.478C84.0645 55.6629 83.8015 55.8363 83.502 55.9617C83.7065 55.7121 83.9477 55.5102 84.1974 55.3197C84.4514 55.1351 84.7148 54.9617 85.014 54.8359Z" fill="white"/>
<path d="M72.6136 62.0283C72.4086 62.2775 72.1678 62.4795 71.9182 62.6704C71.6641 62.8553 71.4011 63.0287 71.1016 63.1545C71.3061 62.9049 71.5473 62.7029 71.797 62.5125C72.0514 62.3275 72.3144 62.1545 72.6136 62.0283Z" fill="white"/>
<path d="M88.094 65.2783C87.8891 65.5275 87.6483 65.7295 87.3986 65.9204C87.1446 66.1053 86.8816 66.2787 86.582 66.4041C86.7866 66.1545 87.0278 65.9525 87.2774 65.7621C87.5319 65.5779 87.7949 65.4045 88.094 65.2783Z" fill="white"/>
<path d="M78.0687 71.5C77.8637 71.7492 77.6229 71.9512 77.3732 72.1421C77.1192 72.327 76.8562 72.5004 76.5566 72.6258C76.7612 72.3762 77.0024 72.1742 77.252 71.9837C77.5061 71.7996 77.7691 71.6262 78.0687 71.5Z" fill="white"/>
<path d="M91.9362 56.7764C91.7313 57.0256 91.4905 57.2276 91.2408 57.4184C90.9868 57.6034 90.7238 57.7768 90.4238 57.9022C90.6284 57.6526 90.8696 57.4506 91.1192 57.2601C91.3741 57.0756 91.6371 56.9022 91.9362 56.7764Z" fill="white"/>
<path d="M91.7264 63.9872C91.4735 63.7852 91.2685 63.5479 91.0748 63.3018C90.8872 63.0514 90.7112 62.7923 90.584 62.4971C90.8373 62.6987 91.0422 62.9364 91.2355 63.1824C91.4223 63.4332 91.5983 63.6923 91.7264 63.9872Z" fill="white"/>
<path d="M69.3806 68.954C69.1278 68.752 68.9228 68.5147 68.7291 68.2686C68.5415 68.0182 68.3655 67.7591 68.2383 67.4639C68.4916 67.6655 68.6965 67.9032 68.8898 68.1492C69.077 68.3996 69.253 68.6587 69.3806 68.954Z" fill="white"/>
<path d="M89.01 74.8661C88.7571 74.6641 88.5521 74.4268 88.3584 74.1808C88.1708 73.9304 87.9948 73.6712 87.8672 73.376C88.1205 73.5776 88.3254 73.8153 88.5187 74.0613C88.7063 74.3117 88.8819 74.5712 89.01 74.8661Z" fill="white"/>
<path d="M79.1736 58.0194C78.9207 57.8174 78.7158 57.5801 78.5221 57.3341C78.3345 57.0837 78.1585 56.8245 78.0312 56.5293C78.2845 56.7309 78.4895 56.9686 78.6828 57.2146C78.87 57.465 79.046 57.7242 79.1736 58.0194Z" fill="white"/>
<path d="M79.3455 78.2294C79.0926 78.0274 78.8877 77.7901 78.694 77.544C78.5063 77.2936 78.3304 77.0345 78.2031 76.7393C78.4564 76.9408 78.6614 77.1785 78.8546 77.4246C79.0415 77.675 79.2174 77.9341 79.3455 78.2294Z" fill="white"/>
<path d="M81.0193 66.3085C80.7664 66.1065 80.5615 65.8692 80.3678 65.6231C80.1802 65.3727 80.0042 65.1136 79.877 64.8184C80.1302 65.0199 80.3352 65.2576 80.5285 65.5037C80.7157 65.7541 80.8917 66.0132 81.0193 66.3085Z" fill="white"/>
<path d="M89.2814 56.4108C87.7662 56.1331 86.3379 53.0421 86.1583 50.9627C86.1467 50.8203 86.8678 49.6881 87.6776 48.2714C88.1656 47.4099 88.6887 46.4393 89.101 45.5198C89.1848 45.3305 89.6813 45.9615 89.6813 45.9615L90.76 46.7746L94.3256 49.4691C94.3256 49.4691 92.8861 51.1465 92.1774 52.754C92.1198 52.889 92.0771 53.0195 92.0486 53.1489C92.0429 53.1671 92.0385 53.1902 92.0292 53.2152C91.8259 53.9838 90.7459 56.6783 89.2814 56.4108Z" fill="#EB9481"/>
<path d="M92.0495 53.1494C92.0439 53.1677 92.0394 53.1907 92.0302 53.2157C91.8353 53.1617 91.6311 53.0852 91.4145 52.9851C87.5123 51.1827 89.2337 46.0303 89.2337 46.0303L90.7614 46.7751L94.327 49.4696C94.327 49.4696 92.8875 51.147 92.1788 52.7546C92.1208 52.8895 92.0785 53.0201 92.0495 53.1494Z" fill="#263238"/>
<path d="M98.418 38.4883C98.418 38.4883 100.201 39.6042 100.212 41.5875C100.224 43.5713 99.4222 45.5118 99.2362 45.5813C99.0502 45.6507 98.418 38.4883 98.418 38.4883Z" fill="#263238"/>
<path d="M89.5694 39.5164C88.4975 41.6017 88.5514 48.1677 89.8903 49.8598C91.8307 52.3126 95.5691 53.1579 97.8252 50.7328C100.013 48.382 99.7882 39.8263 98.2408 38.2318C95.9617 35.8834 91.153 36.4362 89.5694 39.5164Z" fill="#EB9481"/>
<path d="M95.2558 44.7777C95.2518 44.7606 95.2208 44.7995 95.222 44.8181C95.2469 45.2654 95.199 45.7816 94.7915 45.9396C94.779 45.9444 94.7807 45.967 94.796 45.9646C95.2953 45.8832 95.352 45.1971 95.2558 44.7777Z" fill="#263238"/>
<path d="M94.8391 44.3201C94.1075 44.282 94.0845 45.7268 94.7622 45.7622C95.4294 45.7967 95.4524 44.3518 94.8391 44.3201Z" fill="#263238"/>
<path d="M97.7396 44.762C97.7433 44.745 97.7747 44.7839 97.7739 44.8021C97.7521 45.2493 97.8041 45.7652 98.2124 45.9204C98.2253 45.9252 98.2232 45.9478 98.2083 45.9454C97.7082 45.8676 97.6462 45.1823 97.7396 44.762Z" fill="#263238"/>
<path d="M98.1521 44.3008C98.8833 44.2575 98.9171 45.702 98.2399 45.7421C97.573 45.7817 97.5388 44.3369 98.1521 44.3008Z" fill="#263238"/>
<path d="M94.3797 43.2203C94.5802 43.1739 94.7574 43.0981 94.9507 43.0322C95.1689 42.9576 95.3505 42.9203 95.4959 42.731C95.5736 42.6295 95.545 42.4445 95.452 42.3604C95.235 42.1652 94.9451 42.191 94.6785 42.2703C94.3894 42.3564 94.1889 42.4953 94.0201 42.7414C93.8558 42.9799 94.1152 43.2814 94.3797 43.2203Z" fill="#263238"/>
<path d="M98.661 43.8608C98.4584 43.8251 98.2772 43.7588 98.0807 43.7029C97.8589 43.6398 97.6753 43.612 97.5202 43.4302C97.4369 43.3326 97.4558 43.1465 97.544 43.058C97.7498 42.8517 98.0413 42.8624 98.3115 42.9275C98.605 42.9981 98.8128 43.1267 98.9944 43.3636C99.1708 43.5929 98.9284 43.908 98.661 43.8608Z" fill="#263238"/>
<path d="M94.2205 49.0183C94.3276 49.1246 94.4339 49.2707 94.5982 49.287C94.756 49.3024 94.9424 49.235 95.0882 49.1818C95.1027 49.1766 95.1168 49.1917 95.1075 49.2052C94.9867 49.375 94.7371 49.4786 94.5273 49.4393C94.3223 49.4008 94.2237 49.2243 94.1766 49.0381C94.1701 49.0119 94.2048 49.0028 94.2205 49.0183Z" fill="#263238"/>
<path d="M96.8582 47.1055C96.8582 47.1055 96.8775 47.7753 96.8433 48.0864C96.84 48.1154 95.9493 47.9436 94.9894 48.1519C94.8456 48.1833 94.8597 48.0678 95.0256 47.9924C95.3578 47.8412 95.7798 47.6995 96.6013 47.7864C96.6331 47.7027 96.5521 46.7558 96.6025 46.7574C96.7768 46.7614 97.1042 46.9138 97.3019 46.9947C97.3027 45.5983 97.0764 44.2133 97.0986 42.8228C97.1002 42.7732 97.1735 42.7661 97.1831 42.8117C97.5246 44.2471 97.5592 45.8538 97.5963 47.2959C97.6031 47.4757 96.979 47.1721 96.8582 47.1055Z" fill="#263238"/>
<path d="M95.9543 47.8485C95.9543 47.8485 95.6378 48.6334 95.1087 48.8441C94.4999 49.087 94.2913 48.5437 94.9126 48.064C95.2384 47.8124 95.9543 47.8485 95.9543 47.8485Z" fill="#263238"/>
<path d="M95.3201 48.7213C95.2516 48.7729 95.1832 48.8166 95.1067 48.8443C94.547 49.0666 94.3255 48.6261 94.7765 48.1816C95.0829 48.2055 95.4167 48.3166 95.3201 48.7213Z" fill="#FF99BA"/>
<path d="M89.2609 45.1348C89.997 45.3574 90.8442 43.1752 91.0838 42.3363C91.2948 41.597 91.5384 39.2514 91.5742 39.0914C91.6101 38.9315 94.7843 41.1669 96.6402 40.6323C98.4961 40.0978 99.7363 38.4565 99.762 37.6902C99.7874 36.9243 97.4833 34.9795 95.4893 34.8799C93.4953 34.7803 90.7963 37.2779 90.7963 37.2779C90.7963 37.2779 91.7131 36.1989 91.6821 36.1104C91.6511 36.0219 90.3626 36.5291 90.1258 37.4335C90.1258 37.4335 90.3807 36.2981 90.2833 36.2771C90.1858 36.2561 89.1848 37.2283 89.4107 37.9652C89.4107 37.9652 88.2526 38.9537 88.1455 40.0375C88.038 41.1216 88.396 44.8733 89.2609 45.1348Z" fill="#263238"/>
<path d="M97.9602 40.2504C97.3961 40.5064 96.8308 40.7877 96.207 40.8687C95.533 40.9564 94.8335 40.7897 94.2062 40.5524C93.5643 40.3103 92.9813 39.9588 92.4514 39.529C91.9871 39.1524 91.5755 38.698 91.0799 38.3627C90.9558 38.279 90.8121 38.4548 90.8886 38.5675C91.6412 39.6802 92.9728 40.6092 94.2561 41.0104C95.6062 41.4322 96.8754 41.1354 97.9675 40.2651C97.9739 40.2595 97.9695 40.2461 97.9602 40.2504Z" fill="#263238"/>
<path d="M90.0316 44.9409C90.0316 44.9409 88.8888 42.6544 87.858 43.025C86.8272 43.3957 87.4618 46.5552 88.5136 47.1338C89.5657 47.7124 90.1279 46.7632 90.1279 46.7632L90.0316 44.9409Z" fill="#EB9481"/>
<path d="M88.0631 43.9263C88.0454 43.9219 88.0382 43.9461 88.0527 43.9549C88.7863 44.3858 89.0867 45.1632 89.2594 45.9486C89.0714 45.6279 88.7787 45.4235 88.3482 45.6378C88.3257 45.6489 88.3402 45.6835 88.3631 45.6823C88.6941 45.6632 88.9168 45.7529 89.0939 46.0386C89.2192 46.241 89.2888 46.4835 89.3662 46.7069C89.3919 46.7815 89.524 46.7636 89.5099 46.6803C89.5087 46.674 89.5075 46.6676 89.5063 46.6613C89.6794 45.6807 89.1189 44.1874 88.0631 43.9263Z" fill="#263238"/>
<path d="M82.4805 55.1443C81.6933 59.6396 86.6183 74.7875 89.7893 77.6169C94.5049 81.8245 103.224 84.5912 106.383 85.4912C107.76 85.8837 111.57 76.3347 110.177 75.7057C107.193 74.3589 97.9235 71.5096 97.051 70.7779C96.1784 70.0461 90.8519 62.4936 88.4838 58.138C85.3072 52.2939 82.8787 52.8704 82.4805 55.1443Z" fill="#EB9481"/>
<path d="M107.832 74.8652C107.832 74.8652 111.943 75.8978 114.6 76.6978C116.082 77.1438 118.553 78.1323 119.49 78.951C120.891 80.1756 125.957 86.1785 124.506 87.4206C123.193 88.5448 119.506 82.8427 119.506 82.8427C119.506 82.8427 123.743 88.2722 121.91 89.3393C120.076 90.4064 116.779 83.4178 116.779 83.4178C116.779 83.4178 121.006 89.0924 118.938 89.8984C117.376 90.5071 114.028 84.3436 114.028 84.3436C114.028 84.3436 117.626 89.246 116.047 89.9405C114.302 90.7079 110.849 85.2094 110.849 85.2094C106.533 86.3083 104.022 85.092 102.34 84.017C101.933 83.7558 107.832 74.8652 107.832 74.8652Z" fill="#EB9481"/>
<path d="M118.162 80.8723C118.683 81.4922 119.215 82.1164 119.678 82.7799C120.142 83.4434 120.582 84.1236 120.981 84.8268C121.959 86.5514 122.298 87.782 122.268 87.7081C121.575 85.9637 119.953 83.5628 119.489 82.8989C119.027 82.2366 118.598 81.5517 118.136 80.8886C118.124 80.8719 118.149 80.8576 118.162 80.8723Z" fill="#263238"/>
<path d="M115.699 82.4784C116.592 83.176 118.466 85.7741 119.189 87.5146C119.219 87.5876 119.179 87.5816 119.135 87.5154C118.569 86.6554 116.283 83.3209 115.678 82.4919C115.669 82.4788 115.687 82.4689 115.699 82.4784Z" fill="#263238"/>
<path d="M113.336 83.4814C114.37 84.4902 115.238 85.8672 115.921 87.4589C115.952 87.5307 115.894 87.5196 115.851 87.4517C115.017 86.1136 114.373 85.058 113.293 83.5167C113.277 83.4925 113.312 83.458 113.336 83.4814Z" fill="#263238"/>
<path d="M86.962 55.4758C83.2852 50.3511 81.0883 52.2507 81.8256 57.8131C82.5149 63.0152 84.3652 69.2125 84.3652 69.2125L93.643 64.7838C93.643 64.7838 89.3148 58.7556 86.962 55.4758Z" fill="#737791"/>
<path d="M89.2102 57.4902C89.3415 57.7839 89.4136 58.0875 89.4712 58.3934C89.5215 58.701 89.5577 59.0105 89.534 59.3307C89.4023 59.0371 89.3302 58.7335 89.273 58.4276C89.2231 58.1196 89.1873 57.8101 89.2102 57.4902Z" fill="white"/>
<path d="M83.7188 60.6067C84.0167 60.4773 84.3248 60.4067 84.6352 60.3495C84.9473 60.2999 85.2614 60.2642 85.5863 60.2876C85.2883 60.4174 84.9803 60.4884 84.6698 60.5448C84.3578 60.594 84.0433 60.6293 83.7188 60.6067Z" fill="white"/>
<path d="M83.9588 52.6377C83.8408 52.9369 83.6741 53.2016 83.4953 53.4583C83.3105 53.7107 83.1136 53.9552 82.8672 54.1647C82.9848 53.8655 83.1519 53.6004 83.3307 53.3441C83.5159 53.0917 83.7128 52.8476 83.9588 52.6377Z" fill="white"/>
<path d="M91.7865 62.999C91.6686 63.2978 91.5019 63.5629 91.3231 63.8197C91.1382 64.0721 90.9417 64.3165 90.6953 64.526C90.8129 64.2268 90.9796 63.9617 91.1588 63.7054C91.344 63.4534 91.5409 63.2089 91.7865 62.999Z" fill="white"/>
<path d="M85.3678 66.1086C85.0642 65.9923 84.7956 65.8281 84.5351 65.6519C84.279 65.4697 84.031 65.2757 83.8184 65.0332C84.122 65.1491 84.3905 65.3134 84.6511 65.49C84.9072 65.6721 85.1548 65.8662 85.3678 66.1086Z" fill="white"/>
<path d="M88.1939 57.0184C88.6876 57.6878 89.1994 58.3442 89.7092 59.0017C89.5799 58.6692 89.468 58.3331 89.3681 57.9898C89.3637 57.9739 89.3866 57.9672 89.3927 57.9823C89.4958 58.2454 89.6101 58.5049 89.7088 58.7696C89.7563 58.897 89.8046 59.0236 89.8541 59.1502C89.865 59.1775 89.8759 59.2045 89.8867 59.2315C90.2834 59.7446 90.6784 60.2589 91.0601 60.7823C91.5155 61.4073 91.9553 62.0431 92.397 62.6776C92.8532 63.3332 93.2861 64.1018 93.7681 64.7391C93.8099 64.7943 92.947 65.138 92.8665 65.182C92.7839 65.2272 92.728 65.1483 92.8157 65.1221C92.8967 65.0979 93.58 64.684 93.5885 64.6756C93.1471 64.036 92.6341 63.4443 92.1719 62.8189C91.712 62.1962 91.2502 61.5752 90.804 60.943C89.898 59.6589 89.0661 58.3247 88.167 57.035C88.1553 57.0188 88.1819 57.0021 88.1939 57.0184Z" fill="#263238"/>
<path d="M82.0534 61.4929C82.1943 61.7636 82.3461 62.0314 82.4709 62.3096C82.5225 62.4247 82.5732 62.5398 82.6248 62.6549C82.4134 61.6644 82.206 60.6731 82.0002 59.681C81.9978 59.6695 82.0155 59.6636 82.0188 59.6755C82.444 61.2814 82.8736 62.8858 83.2682 64.4993C83.6447 66.0375 84.0993 67.5946 84.3148 69.1641C84.4432 69.1224 85.1652 68.828 85.1861 68.874C85.2071 68.9204 84.2423 69.3681 84.2294 69.3308C83.7043 67.797 83.379 66.0549 83.0218 64.4763C82.9211 64.0319 82.8273 63.5862 82.7311 63.1406C82.6264 62.8723 82.4995 62.614 82.3759 62.3533C82.245 62.0775 82.1396 61.7886 82.0248 61.506C82.0179 61.4898 82.0449 61.4771 82.0534 61.4929Z" fill="#263238"/>
<path d="M84.5119 67.6834C85.8008 66.9671 91.1861 64.2199 92.3909 63.702C92.4742 63.6659 92.5181 63.7083 92.436 63.7564C88.6272 65.9929 85.8439 67.0905 84.5425 67.7314C84.5103 67.7473 84.4793 67.7017 84.5119 67.6834Z" fill="#263238"/>
<path d="M232.065 172.01H109.381L127.121 72.8613H249.804L232.065 172.01Z" fill="#737791"/>
<path d="M169.11 62.5938H128.958L127.121 72.8618H170.09L169.11 62.5938Z" fill="#737791"/>
<g opacity="0.1">
<path d="M232.065 172.01H109.381L127.121 72.8613H249.804L232.065 172.01Z" fill="#D7D7D7"/>
<path d="M169.11 62.5938H128.958L127.121 72.8618H170.09L169.11 62.5938Z" fill="black"/>
</g>
<path d="M124.625 66.7823C124.467 66.2069 124.431 65.6311 124.424 65.0557C124.429 64.4799 124.465 63.9045 124.625 63.3291C124.785 63.9045 124.82 64.4803 124.826 65.0557C124.82 65.6315 124.784 66.2069 124.625 66.7823Z" fill="#263238"/>
<path d="M121.057 67.7991C120.627 67.3789 120.304 66.8979 120.007 66.4031C119.719 65.9019 119.459 65.3856 119.305 64.8086C119.735 65.2284 120.058 65.7094 120.355 66.2046C120.641 66.7062 120.902 67.2225 121.057 67.7991Z" fill="#263238"/>
<path d="M118.484 70.4376C117.899 70.2852 117.375 70.028 116.866 69.7459C116.363 69.453 115.875 69.1348 115.449 68.7109C116.035 68.8625 116.559 69.1197 117.067 69.4026C117.569 69.6963 118.057 70.0141 118.484 70.4376Z" fill="#263238"/>
<path d="M117.594 73.9914C117.01 74.1477 116.426 74.1831 115.842 74.1898C115.258 74.1838 114.674 74.1489 114.09 73.9914C114.674 73.8342 115.258 73.7989 115.842 73.793C116.426 73.7997 117.01 73.835 117.594 73.9914Z" fill="#263238"/>
<path d="M118.626 77.5078C118.2 77.9312 117.712 78.2495 117.21 78.5428C116.701 78.8257 116.177 79.0828 115.592 79.2344C116.018 78.8106 116.506 78.4924 117.008 78.1995C117.517 77.9173 118.041 77.6598 118.626 77.5078Z" fill="#263238"/>
<path d="M121.303 80.0439C121.148 80.6205 120.887 81.1368 120.601 81.6384C120.304 82.1341 119.981 82.615 119.551 83.0345C119.705 82.4575 119.966 81.9412 120.253 81.44C120.55 80.9451 120.873 80.4642 121.303 80.0439Z" fill="#263238"/>
<path d="M124.908 80.9219C125.067 81.4977 125.103 82.0731 125.11 82.6485C125.104 83.2239 125.068 83.7997 124.908 84.3751C124.749 83.7997 124.713 83.2239 124.707 82.6485C124.714 82.0731 124.75 81.4977 124.908 80.9219Z" fill="#263238"/>
<path d="M128.477 79.9043C128.906 80.3245 129.229 80.8055 129.527 81.3003C129.814 81.8015 130.075 82.3178 130.229 82.8948C129.798 82.475 129.476 81.994 129.178 81.4988C128.892 80.9968 128.631 80.4809 128.477 79.9043Z" fill="#263238"/>
<path d="M131.051 77.2666C131.636 77.419 132.16 77.6761 132.669 77.9583C133.172 78.2511 133.66 78.5694 134.085 78.9932C133.5 78.8416 132.976 78.5845 132.467 78.3015C131.965 78.0083 131.477 77.69 131.051 77.2666Z" fill="#263238"/>
<path d="M131.941 73.7131C132.525 73.5567 133.11 73.5214 133.693 73.5146C134.277 73.5206 134.862 73.5555 135.445 73.7131C134.861 73.8702 134.277 73.9055 133.693 73.9115C133.109 73.9047 132.525 73.8698 131.941 73.7131Z" fill="#263238"/>
<path d="M130.91 70.1963C131.337 69.7729 131.825 69.4547 132.327 69.1614C132.835 68.8789 133.359 68.6213 133.945 68.4697C133.519 68.8935 133.031 69.2118 132.528 69.5047C132.019 69.7868 131.495 70.044 130.91 70.1963Z" fill="#263238"/>
<path d="M128.23 67.6604C128.385 67.0838 128.646 66.5676 128.932 66.066C129.229 65.5703 129.552 65.0894 129.982 64.6699C129.829 65.2469 129.568 65.7632 129.281 66.2644C128.983 66.7592 128.66 67.2402 128.23 67.6604Z" fill="#263238"/>
<path d="M231.885 172.01H108.936L91.4805 76.4609H214.429L231.885 172.01Z" fill="#D7D7D7"/>
<path d="M134.085 134.871C136.907 134.871 139.195 132.616 139.195 129.835C139.195 127.054 136.907 124.799 134.085 124.799C131.263 124.799 128.975 127.054 128.975 129.835C128.975 132.616 131.263 134.871 134.085 134.871Z" fill="#263238"/>
<path d="M174.483 134.871C177.306 134.871 179.594 132.616 179.594 129.835C179.594 127.054 177.306 124.799 174.483 124.799C171.661 124.799 169.373 127.054 169.373 129.835C169.373 132.616 171.661 134.871 174.483 134.871Z" fill="#263238"/>
<path d="M161.623 135.675L161.342 135.148C161.317 135.1 158.677 130.291 153.365 130.291C148.521 130.291 147.34 134.819 147.292 135.011L147.148 135.588L145.977 135.309L146.117 134.732C146.131 134.676 147.557 129.101 153.365 129.101C159.42 129.101 162.293 134.371 162.412 134.595L162.693 135.122L161.623 135.675Z" fill="#263238"/>
<path d="M223.725 129.257C223.987 129.201 224.248 129.141 224.509 129.075" stroke="#263238" stroke-miterlimit="10"/>
<path d="M226.053 128.624C232.212 126.575 237.37 121.8 237.856 116.221C238.925 103.919 223.723 97.1239 225.294 82.9086C226.792 69.3484 241.224 68.381 247.009 70.2552C253.399 72.3255 251.21 78.3783 245.425 77.5974C235.394 76.2434 229.089 65.4968 233.853 53.3061C237.412 44.1984 246.285 40.7635 249.889 39.7158" stroke="#263238" stroke-miterlimit="10" stroke-dasharray="4 4"/>
<path d="M250.668 39.5036C251.167 39.377 251.451 39.3242 251.451 39.3242" stroke="#263238" stroke-miterlimit="10"/>
<path d="M257.835 37.1311C256.807 33.9945 249.93 35.1215 251.273 39.2192C252.615 43.3173 258.863 40.2676 257.835 37.1311Z" fill="#263238"/>
<path d="M247.532 35.8673C247.583 34.4919 249.525 33.4336 252.27 33.9217C255.015 34.4102 257.6 36.232 257.6 36.232C257.6 36.232 254.886 37.8682 252.112 38.1567C249.338 38.4456 247.481 37.2495 247.532 35.8673Z" fill="#EBEBEB"/>
<path d="M257.6 36.2324C256.175 36.242 254.752 36.1951 253.328 36.1523C251.906 36.0924 250.483 36.0368 249.062 35.9233C250.488 35.913 251.911 35.9606 253.334 36.0035C254.757 36.0638 256.179 36.1197 257.6 36.2324Z" fill="#263238"/>
<path d="M250.291 34.6494C250.703 34.8312 251.085 35.0617 251.468 35.2879C251.843 35.5292 252.22 35.7665 252.566 36.0526C252.154 35.8713 251.772 35.6407 251.389 35.4137C251.014 35.1728 250.637 34.9355 250.291 34.6494Z" fill="#263238"/>
<path d="M254.024 36.1025C253.663 36.4045 253.271 36.6581 252.881 36.9156C252.481 37.1585 252.085 37.4057 251.656 37.6038C252.017 37.3018 252.409 37.0478 252.799 36.7906C253.198 36.5478 253.595 36.3014 254.024 36.1025Z" fill="#263238"/>
<path d="M254.438 35.3271C254.65 35.4172 254.826 35.5518 255.005 35.6831C255.173 35.8276 255.344 35.9684 255.478 36.1545C255.265 36.0649 255.089 35.9299 254.911 35.7986C254.743 35.6537 254.572 35.5125 254.438 35.3271Z" fill="#263238"/>
<path d="M250.149 44.0317C251.007 45.1178 253.21 44.8571 255.147 42.8793C257.083 40.9011 258.099 37.9336 258.099 37.9336C258.099 37.9336 254.927 38.1705 252.506 39.5352C250.084 40.8995 249.287 42.9404 250.149 44.0317Z" fill="#EBEBEB"/>
<path d="M258.099 37.9326C256.937 38.7461 255.811 39.6045 254.682 40.4596C253.564 41.3283 252.442 42.1934 251.357 43.1037C252.52 42.2906 253.646 41.4319 254.774 40.5767C255.893 39.708 257.014 38.8429 258.099 37.9326Z" fill="#263238"/>
<path d="M253.109 43.4291C253.336 43.0438 253.508 42.6375 253.686 42.2323C253.846 41.8208 254.011 41.4108 254.122 40.9795C253.895 41.3644 253.723 41.7712 253.546 42.1763C253.385 42.5879 253.221 42.9978 253.109 43.4291Z" fill="#263238"/>
<path d="M255.272 40.0999C254.8 40.063 254.332 40.0833 253.863 40.0988C253.395 40.1317 252.926 40.1603 252.461 40.2464C252.933 40.2837 253.402 40.2634 253.871 40.2476C254.339 40.2142 254.807 40.1853 255.272 40.0999Z" fill="#263238"/>
<path d="M256.07 40.4898C256.189 40.2942 256.252 40.0834 256.32 39.8739C256.37 39.6596 256.425 39.4469 256.424 39.2188C256.304 39.4144 256.241 39.6251 256.174 39.8346C256.124 40.0489 256.069 40.262 256.07 40.4898Z" fill="#263238"/>
<path d="M257.835 37.1326C257.201 37.3342 256.521 36.9913 256.316 36.3663C256.112 35.7413 256.46 35.0714 257.094 34.8694C257.727 34.6675 258.408 35.0107 258.612 35.6357C258.817 36.2607 258.469 36.931 257.835 37.1326Z" fill="#455A64"/>
<path d="M258.578 39.3951C257.943 39.5967 257.264 39.2538 257.059 38.6288C256.854 38.0038 257.202 37.334 257.836 37.132C258.471 36.9304 259.15 37.2733 259.355 37.8983C259.56 38.5229 259.212 39.1931 258.578 39.3951Z" fill="#455A64"/>
<path d="M126.564 38.3855C125.987 43.8178 121.049 47.7627 115.537 47.1944C113.31 46.9647 111.33 46.0329 109.796 44.6412L104.775 45.3674L107.288 41.0896C106.678 39.628 106.421 38.0014 106.599 36.3272C107.176 30.895 112.114 26.95 117.626 27.5183C123.137 28.0866 127.14 32.9533 126.564 38.3855Z" fill="white"/>
<path d="M126.564 38.3857C126.354 40.1913 125.685 41.9611 124.539 43.3993C124.275 43.7758 123.936 44.0905 123.629 44.4314C123.28 44.7306 122.955 45.0592 122.57 45.3152C121.836 45.8723 121.011 46.3092 120.149 46.6437C119.291 46.9997 118.368 47.1696 117.447 47.2787C116.983 47.3033 116.518 47.3449 116.053 47.3049C115.587 47.2946 115.123 47.2453 114.664 47.1624C112.827 46.8346 111.088 45.9874 109.699 44.7465L109.818 44.7826L104.802 45.5413L104.438 45.5965L104.622 45.2802L107.119 40.9941L107.108 41.1631C105.891 38.34 106.165 34.9781 107.726 32.3475C108.504 31.0304 109.588 29.8955 110.869 29.049C112.149 28.2002 113.633 27.668 115.152 27.4653C116.673 27.2665 118.238 27.403 119.691 27.8784C121.141 28.3597 122.471 29.1693 123.561 30.2173C125.776 32.2931 126.89 35.4075 126.564 38.3857ZM126.564 38.3857C126.869 35.4051 125.733 32.3098 123.517 30.2617C122.416 29.2375 121.084 28.4617 119.646 28.0113C118.206 27.5673 116.666 27.4613 115.183 27.6815C113.7 27.9057 112.265 28.4498 111.038 29.2951C109.813 30.1423 108.781 31.2502 108.035 32.5229C107.274 33.7927 106.88 35.2475 106.761 36.7079C106.667 38.173 106.91 39.6559 107.468 41.0167L107.504 41.1052L107.456 41.1861L104.929 45.4552L104.75 45.1941L109.775 44.5005L109.845 44.4909L109.894 44.5366C111.222 45.7656 112.904 46.6235 114.7 46.9763C115.148 47.0656 115.603 47.1215 116.061 47.1394C116.518 47.187 116.976 47.1537 117.435 47.1374C118.344 47.0453 119.26 46.8938 120.115 46.5557C120.974 46.2386 121.805 45.8231 122.536 45.2699C122.921 45.0179 123.246 44.6937 123.596 44.3981C123.904 44.0612 124.244 43.7501 124.509 43.3766C125.66 41.9512 126.342 40.1901 126.564 38.3857Z" fill="#263238"/>
<path d="M111.676 41.9684C111.676 41.3779 112.092 40.9513 112.657 40.9513C113.257 40.9513 113.64 41.3779 113.64 41.9684C113.64 42.5426 113.257 42.9851 112.657 42.9851C112.075 42.9851 111.676 42.5422 111.676 41.9684ZM112.092 39.6227L111.859 31.75H113.456L113.223 39.6227H112.092Z" fill="#737791"/>
<path d="M115.504 41.9684C115.504 41.3779 115.92 40.9513 116.486 40.9513C117.085 40.9513 117.468 41.3779 117.468 41.9684C117.468 42.5426 117.085 42.9851 116.486 42.9851C115.903 42.9851 115.504 42.5422 115.504 41.9684ZM115.92 39.6227L115.687 31.75H117.285L117.052 39.6227H115.92Z" fill="#737791"/>
<path d="M119.332 41.9684C119.332 41.3779 119.748 40.9513 120.314 40.9513C120.913 40.9513 121.296 41.3779 121.296 41.9684C121.296 42.5426 120.913 42.9851 120.314 42.9851C119.731 42.9851 119.332 42.5422 119.332 41.9684ZM119.748 39.6227L119.515 31.75H121.113L120.88 39.6227H119.748Z" fill="#737791"/>
</svg>
