<?xml version="1.0" encoding="UTF-8"?>
<svg xmlns="http://www.w3.org/2000/svg" version="1.1" viewBox="0 0 508.7 367">
  <defs>
    <style>
      .cls-1 {
        opacity: .2;
      }

      .cls-1, .cls-2, .cls-3, .cls-4, .cls-5, .cls-6, .cls-7, .cls-8, .cls-9, .cls-10, .cls-11, .cls-12, .cls-13, .cls-14, .cls-15 {
        isolation: isolate;
      }

      .cls-1, .cls-3, .cls-16, .cls-4, .cls-7, .cls-8, .cls-10, .cls-12, .cls-15 {
        fill: #fff;
      }

      .cls-2 {
        opacity: .6;
      }

      .cls-2, .cls-17, .cls-9 {
        fill: #3e479b;
      }

      .cls-3 {
        opacity: .9;
      }

      .cls-18, .cls-6 {
        fill: #ecf1f7;
      }

      .cls-4 {
        opacity: .2;
      }

      .cls-5 {
        opacity: .7;
      }

      .cls-5, .cls-13, .cls-19 {
        fill: #ef929c;
      }

      .cls-6 {
        opacity: .8;
      }

      .cls-7 {
        opacity: .3;
      }

      .cls-8 {
        opacity: .1;
      }

      .cls-9 {
        opacity: .8;
      }

      .cls-10 {
        opacity: .5;
      }

      .cls-11 {
        opacity: .5;
      }

      .cls-11, .cls-20 {
        fill: #599af2;
      }

      .cls-21 {
        fill: #f9dcd2;
      }

      .cls-12 {
        opacity: .7;
      }

      .cls-13 {
        opacity: .4;
      }

      .cls-22 {
        fill: #373449;
      }

      .cls-23, .cls-15 {
        opacity: .1;
      }

      .cls-14 {
        opacity: .5;
      }

      .cls-14, .cls-24 {
        fill: #4c65ba;
      }
    </style>
  </defs>
  <!-- Generator: Adobe Illustrator 28.6.0, SVG Export Plug-In . SVG Version: 1.2.0 Build 709)  -->
  <g>
    <g id="Layer_1">
      <g id="OBJECTS">
        <g>
          <g>
            <path class="cls-14" d="M332,2.5h125.3c1.2,0,2.1.9,2.1,2.1v41.2c0,1.2-.9,2.1-2.1,2.1h-90.3l-20.7,20.7v-20.7h-14.4c-1.2,0-2.1-.9-2.1-2.1V4.6c0-1.2.9-2.1,2.1-2.1Z"/>
            <g>
              <path class="cls-16" d="M350,16.2h89c.6,0,1-.3,1-.6s-.5-.6-1-.6h-89c-.6,0-1,.3-1,.6,0,.3.5.6,1,.6Z"/>
              <path class="cls-16" d="M350,37.3h89c.6,0,1-.3,1-.6s-.5-.6-1-.6h-89c-.6,0-1,.3-1,.6,0,.3.5.6,1,.6Z"/>
              <g>
                <path class="cls-16" d="M392.5,26.3h46.5c.6,0,1-.3,1-.6s-.5-.6-1-.6h-46.5c-.6,0-1,.3-1,.6,0,.3.5.6,1,.6Z"/>
                <path class="cls-16" d="M363.5,26.3h20.2c.6,0,1-.3,1-.6s-.5-.6-1-.6h-20.2c-.6,0-1,.3-1,.6,0,.3.5.6,1,.6Z"/>
              </g>
            </g>
          </g>
          <g>
            <path class="cls-11" d="M415.9,132.9h63.4c2.8,0,5.1-2.3,5.1-5.1v-20.1c0-2.8-2.3-5.1-5.1-5.1h-63.4c-2.8,0-5.1,2.3-5.1,5.1v20.1c0,2.8,2.3,5.1,5.1,5.1Z"/>
            <g>
              <g>
                <path class="cls-16" d="M428.1,109h75.6c2.3,0,4.2-1.9,4.2-4.2v-23.2c0-2.3-1.9-4.2-4.2-4.2h-75.6c-2.3,0-4.2,1.9-4.2,4.2v23.2c0,2.3,1.9,4.2,4.2,4.2Z"/>
                <path class="cls-5" d="M428.1,109h75.6c2.3,0,4.2-1.9,4.2-4.2v-23.2c0-2.3-1.9-4.2-4.2-4.2h-75.6c-2.3,0-4.2,1.9-4.2,4.2v23.2c0,2.3,1.9,4.2,4.2,4.2Z"/>
              </g>
              <g>
                <path class="cls-16" d="M481.3,96.9c-2,0-3.7-1.7-3.7-3.7s1.7-3.7,3.7-3.7,3.7,1.7,3.7,3.7c0,2-1.7,3.7-3.7,3.7ZM481.3,90.5c-1.5,0-2.7,1.2-2.7,2.7s1.2,2.7,2.7,2.7,2.7-1.2,2.7-2.7-1.2-2.7-2.7-2.7Z"/>
                <path class="cls-16" d="M466.2,96.9c-2,0-3.7-1.7-3.7-3.7s1.7-3.7,3.7-3.7,3.7,1.7,3.7,3.7c0,2-1.7,3.7-3.7,3.7ZM466.2,90.5c-1.5,0-2.7,1.2-2.7,2.7s1.2,2.7,2.7,2.7,2.7-1.2,2.7-2.7-1.2-2.7-2.7-2.7Z"/>
                <path class="cls-16" d="M452.2,96.9c-2,0-3.7-1.7-3.7-3.7s1.7-3.7,3.7-3.7,3.7,1.7,3.7,3.7c0,2-1.7,3.7-3.7,3.7ZM452.2,90.5c-1.5,0-2.7,1.2-2.7,2.7s1.2,2.7,2.7,2.7,2.7-1.2,2.7-2.7-1.2-2.7-2.7-2.7Z"/>
              </g>
            </g>
          </g>
        </g>
        <g>
          <g>
            <g>
              <path class="cls-22" d="M452.3,354.3h.2s0,1.9,0,1.9l-21.1.3v-1.4c0-.2.2-.4.4-.5,0,0,.1,0,.2,0l20.4-.3Z"/>
              <path class="cls-22" d="M444.9,347.2h6.4c.2,0,.3,0,.4,0,0,0,0,0,.1.1.1.1.2.3.2.5v.7s.1,2.4.1,2.4v3.3c.1,0-20.3.3-20.3.3,0,0-.1,0-.2,0,.5-1.5,1.6-2.6,3.1-3l4.7-.4c1.1-.6,2.1-1.1,3.2-1.6l1.9-2.3s0,0,.1,0c0,0,0,0,0,0,0,0,.1,0,.2,0Z"/>
            </g>
            <path class="cls-22" d="M489.9,276l-14.9-42.7-.2-1.6h-40.7v22.4c0,2.9.1,5.7.4,8.6l7.8,86h11.2l2.8-97.8h.6c0,0,15.9,31.6,15.9,31.6l-11.9,26.9c-.2.4,0,.8.3,1l7.5,5.8c.6.5,1.5.3,1.9-.4l18.8-33.2c1.2-2,1.4-4.5.6-6.7Z"/>
            <g>
              <path class="cls-22" d="M458.2,315h-.1c0-.1-1.3,1.3-1.3,1.3l14.8,15.1,1-1c.2-.2.2-.4.1-.6,0,0,0,0,0-.1l-14.3-14.6Z"/>
              <path class="cls-22" d="M468.4,315.2l-4.5-4.5c-.1-.1-.2-.2-.4-.2,0,0-.1,0-.2,0-.2,0-.3,0-.5.2l-.5.5-1.8,1.6-2.4,2.2,14.3,14.6s0,0,0,.1c.7-1.4.7-3,0-4.3l-3.1-3.6c-.4-1.2-.7-2.2-1.1-3.4l.3-3s0,0,0-.1c0,0,0,0,0,0,0,0,0,0,0-.1Z"/>
            </g>
          </g>
          <g>
            <path class="cls-21" d="M485,190c-.6-1.1-7.6,5.6-9.2,12.2,0,.3.1-.2,0,0l5.9,8.4-16.1,18,4.1,3.1s23.4-15.3,24.8-20.9c1-4-6.6-15.7-9.6-20.9Z"/>
            <g>
              <path class="cls-21" d="M398.9,188.1c-.4-.9-1.2-2.1-3.2-3.7l-3.6-3.1c-.3-.2-.6-.3-.9,0h-.1c-.3.3-.4.7-.2,1l1.6,2.6c.3.5,0,1.1-.6,1.1l-3.7-.3s0,0-.1,0l-4.7-1.1c-.4,0-.7.1-.8.5v.2c-.2.4,0,.8.5.9l4.9,1.5-6-.9c-.4,0-.8.2-.8.6h0c0,.4.2.8.6.9l6.1,1.5-5.3-.6c-.5,0-.8.4-.7.8v.2c.1.3.3.5.6.6l5.2,1-3.7.2c-.3,0-.6.2-.6.5-.1.4.2.8.7.9l4,.4s0,0,0,0c.5.1,7,1.5,9.5,1.6,0,0,0,0,0,0l26.4,2.5c0,0,.1,0,.2,0-1.3-3.9-2.1-8-2.4-12l-22.8,2.5Z"/>
              <path class="cls-19" d="M485.3,190.1c-2.8-3.3-5.5-6.3-7.2-7.9-4.4-4.2-12.6-3.7-12.6-3.7l-22.1,1.7c-2.5.2-5.1.5-7.6,1-4.9.9-9.3,1.8-14.2,2.8,0,.5,0,1,0,1.4.3,4.1,1.1,8.1,2.4,12,0,.2.1.3.2.5,5.6-.6,9.9-1,9.9-1v45.8c-.1,0,40.6-9.2,40.6-9.2l-1.8-33.5,2.9,1.8c2.7-4.3,6-8.2,9.5-11.9Z"/>
            </g>
          </g>
          <g>
            <path class="cls-22" d="M476.1,170.6c-1.8-6.1-5.4-7.8-7.9-8.3,1.5-2.5,2.6-5.3,2.9-8.4.8-8.8-13.8-23.5-22.4-12.8-2.8,0-6.1,1.3-9.4,5.3-6.2,7.4-4.3,13.4-2.3,16.6,1,1.5,2.4,2.7,4.1,3.3l13,4.9c2.7,1,5.7.4,7.8-1.5.8-.7,1.7-1.6,2.6-2.6,4.4,1.9,2.3,6,2.3,6-4.4,9.4,1,14.1,5,16.8,1.7,1.2,4.1.2,4.5-1.9.8-4.3,1.6-11.4-.2-17.6Z"/>
            <g>
              <path class="cls-21" d="M463,157.1h-.6s0,0,0,0l-2.8,4.5c-3.7-1.9-5.1-6.7-5.5-10.9-3.1,2-8,4.3-14.6,4.4l-1.1,10.9c-.6,6,4.8,10.5,9.6,10.8v3.6c-.8,4.1,1.5,7.9,4.9,8.4,3.2.5,6.3-2.1,7-5.9l1.3-17.7c0,0,.1,0,.2,0h1.2c1.5.2,2.7-1,2.8-2.4l.2-2.7c0-1.5-1-2.7-2.5-2.8Z"/>
              <polygon class="cls-13" points="456.4 176.8 447.8 176.9 447.8 180 456.4 176.8"/>
            </g>
            <g>
              <g>
                <path class="cls-22" d="M443.1,158.6c-.2,0-.5,0-.7,0-.2,0-.5,0-.7,0-.2,0-.5,0-.7,0-.2,0-.5,0-.7-.1-.2-.1-.2-.4,0-.7.2-.3.8-.7,1.5-.6.7,0,1.2.5,1.4.8.2.4,0,.6-.1.7Z"/>
                <path class="cls-22" d="M451.7,159.2c-.2,0-.5,0-.7,0-.2,0-.5,0-.7,0-.2,0-.5,0-.7,0-.2,0-.5,0-.7-.1-.2-.1-.2-.4,0-.7.2-.3.8-.7,1.5-.6.7,0,1.2.5,1.4.8.2.4,0,.6-.1.7Z"/>
                <path class="cls-22" d="M441.2,162.1h0c-.3,0-.5-.3-.5-.6v-1.1c.1-.3.4-.5.7-.5h0c.3,0,.5.3.5.6v1.1c-.1.3-.4.5-.7.5Z"/>
                <path class="cls-22" d="M449.5,162.9h0c-.3,0-.5-.3-.5-.6v-1.1c.1-.3.4-.5.7-.5h0c.3,0,.5.3.5.6v1.1c-.1.3-.4.5-.7.5Z"/>
              </g>
              <path class="cls-19" d="M445.8,165s0,0,0,0h-.9c-.5,0-1-.4-1.3-.9-.3-.5-.2-1,0-1.5h0c0,0,0-.1,0-.1.8-.3,1.4-1.1,1.5-1.9v-.3c0-.1.2-.2.3-.2.1,0,.2.1.2.3v.3c-.2,1-.8,1.9-1.7,2.3-.1.3-.1.7,0,1,.2.3.5.5.9.6h.9c.1,0,.2.2.2.3,0,.1-.1.2-.2.2Z"/>
              <path class="cls-16" d="M449,169.7h-2.2c-.5-.2-.9-.6-.8-1.1v-2.2c.1,0,5.2.3,5.2.3v1.1c-.1,1.1-1.1,1.9-2.2,1.9Z"/>
            </g>
          </g>
        </g>
        <g>
          <g>
            <path class="cls-9" d="M85.1,133H2.2c-.8,0-1.4.6-1.4,1.4v27.3c0,.8.6,1.4,1.4,1.4h59.7l13.7,13.7v-13.7h9.5c.8,0,1.4-.6,1.4-1.4v-27.3c0-.8-.6-1.4-1.4-1.4Z"/>
            <g>
              <path class="cls-16" d="M73.2,142.2H14.3c-.4,0-.7-.2-.7-.4s.3-.4.7-.4h58.9c.4,0,.7.2.7.4s-.3.4-.7.4Z"/>
              <path class="cls-16" d="M73.2,156.1H14.3c-.4,0-.7-.2-.7-.4s.3-.4.7-.4h58.9c.4,0,.7.2.7.4s-.3.4-.7.4Z"/>
              <g>
                <path class="cls-16" d="M45.1,148.8H14.3c-.4,0-.7-.2-.7-.4s.3-.4.7-.4h30.8c.4,0,.7.2.7.4s-.3.4-.7.4Z"/>
                <path class="cls-16" d="M64.3,148.8h-13.4c-.4,0-.7-.2-.7-.4s.3-.4.7-.4h13.4c.4,0,.7.2.7.4s-.3.4-.7.4Z"/>
              </g>
            </g>
          </g>
          <g>
            <path class="cls-11" d="M165.2,114.6H55.2c-4.9,0-8.9-4-8.9-8.9v-34.9c0-4.9,4-8.9,8.9-8.9h110c4.9,0,8.9,4,8.9,8.9v34.9c0,4.9-4,8.9-8.9,8.9Z"/>
            <g>
              <g>
                <path class="cls-16" d="M143.8,73H12.6c-4,0-7.2-3.2-7.2-7.2V25.6c0-4,3.2-7.2,7.2-7.2h131.2c4,0,7.2,3.2,7.2,7.2v40.2c0,4-3.2,7.2-7.2,7.2Z"/>
                <path class="cls-5" d="M143.8,73H12.6c-4,0-7.2-3.2-7.2-7.2V25.6c0-4,3.2-7.2,7.2-7.2h131.2c4,0,7.2,3.2,7.2,7.2v40.2c0,4-3.2,7.2-7.2,7.2Z"/>
              </g>
              <g>
                <path class="cls-16" d="M51.6,51.7c-3.3,0-6-2.7-6-6s2.7-6,6-6,6,2.7,6,6-2.7,6-6,6ZM51.6,40.6c-2.8,0-5,2.3-5,5s2.3,5,5,5,5-2.3,5-5-2.3-5-5-5Z"/>
                <path class="cls-16" d="M77.7,51.7c-3.3,0-6-2.7-6-6s2.7-6,6-6,6,2.7,6,6-2.7,6-6,6ZM77.7,40.6c-2.8,0-5,2.3-5,5s2.3,5,5,5,5-2.3,5-5-2.3-5-5-5Z"/>
                <path class="cls-16" d="M102.1,51.7c-3.3,0-6-2.7-6-6s2.7-6,6-6,6,2.7,6,6-2.7,6-6,6ZM102.1,40.6c-2.8,0-5,2.3-5,5s2.3,5,5,5,5-2.3,5-5-2.3-5-5-5Z"/>
              </g>
            </g>
          </g>
        </g>
        <g>
          <g>
            <rect class="cls-17" x="225.4" y="299.6" width="65.5" height="47.9"/>
            <path class="cls-17" d="M412.4,284.4H103.8c-4.6,0-8.3-3.7-8.3-8.3V93.4c0-4.6,3.7-8.3,8.3-8.3h308.6c4.6,0,8.3,3.7,8.3,8.3v182.7c0,4.6-3.7,8.3-8.3,8.3Z"/>
            <path class="cls-24" d="M411,304.3H105.2c-5.3,0-9.7-5.1-9.7-11.4v-29.5h325.1v29.5c0,6.3-4.3,11.4-9.7,11.4Z"/>
            <path class="cls-16" d="M404.9,262.6H111.4c-1,0-1.8-.8-1.8-1.8V100.7c0-1,.8-1.8,1.8-1.8h293.5c1,0,1.8.8,1.8,1.8v160.2c0,1-.8,1.8-1.8,1.8Z"/>
            <path class="cls-6" d="M384.3,251.6h-252.4c-1,0-1.8-.8-1.8-1.8V112.3c0-1,.8-1.8,1.8-1.8h252.4c1,0,1.8.8,1.8,1.8v137.5c0,1-.8,1.8-1.8,1.8Z"/>
            <path class="cls-16" d="M258.1,296c-6.6,0-11.9-5.3-11.9-11.9s5.3-11.9,11.9-11.9,11.9,5.3,11.9,11.9-5.3,11.9-11.9,11.9ZM258.1,273.2c-6,0-10.9,4.9-10.9,10.9s4.9,10.9,10.9,10.9,10.9-4.9,10.9-10.9-4.9-10.9-10.9-10.9Z"/>
            <path class="cls-24" d="M327.7,355.7h-139.2v-2c0-6.6,5.4-12,12-12h115.2c6.6,0,12,5.4,12,12v2h0Z"/>
            <g>
              <circle class="cls-3" cx="258.1" cy="147.7" r="8.7"/>
              <circle class="cls-4" cx="258.1" cy="213.8" r="8.7"/>
              <circle class="cls-10" cx="291.2" cy="180.7" r="8.7"/>
              <circle class="cls-16" cx="225.1" cy="180.7" r="8.7"/>
              <path class="cls-12" d="M287.6,163.5c-3.4,3.4-8.9,3.4-12.3,0s-3.4-8.9,0-12.3c3.4-3.4,8.9-3.4,12.3,0,3.4,3.4,3.4,8.9,0,12.3Z"/>
              <circle class="cls-15" cx="234.8" cy="204.1" r="8.7"/>
              <path class="cls-7" d="M275.3,210.2c-3.4-3.4-3.4-8.9,0-12.3s8.9-3.4,12.3,0,3.4,8.9,0,12.3c-3.4,3.4-8.9,3.4-12.3,0Z"/>
              <path class="cls-16" d="M228.6,163.5c-3.4-3.4-3.4-8.9,0-12.3,3.4-3.4,8.9-3.4,12.3,0s3.4,8.9,0,12.3c-3.4,3.4-8.9,3.4-12.3,0Z"/>
            </g>
            <g>
              <path class="cls-11" d="M404.9,115.6H111.4c-1,0-1.8-.8-1.8-1.8v-13.2c0-1,.8-1.8,1.8-1.8h293.5c1,0,1.8.8,1.8,1.8v13.2c0,1-.8,1.8-1.8,1.8Z"/>
              <path class="cls-18" d="M378.2,107c0,.8-.7,1.5-1.5,1.5s-1.5-.7-1.5-1.5.7-1.5,1.5-1.5c.8,0,1.5.7,1.5,1.5Z"/>
              <path class="cls-18" d="M394.4,107c0,.8-.7,1.5-1.5,1.5s-1.5-.7-1.5-1.5.7-1.5,1.5-1.5,1.5.7,1.5,1.5Z"/>
              <circle class="cls-18" cx="384.8" cy="107" r="1.5"/>
            </g>
          </g>
          <g>
            <path class="cls-20" d="M119.1,276.8l1.6-4.5c.7-2,2.6-3.3,4.7-3.3h39.1c2.8,0,5,2.2,5,5v77.8c0,2.8-2.2,5-5,5H46.4c-2.8,0-5-2.2-5-5v-66.6c0-2.8,2.2-5,5-5h67.9c2.1,0,4-1.3,4.7-3.3Z"/>
            <path class="cls-8" d="M121.9,281.4l1.5-4.3c.7-1.9,2.4-3.2,4.4-3.2h36.9c2.6,0,4.7,2.1,4.7,4.7v73.4c0,2.6-2.1,4.7-4.7,4.7H53.5c-2.6,0-4.7-2.1-4.7-4.7v-62.8c0-2.6,2.1-4.7,4.7-4.7h64c2,0,3.8-1.3,4.4-3.2Z"/>
          </g>
        </g>
        <g>
          <g>
            <circle class="cls-1" cx="315.1" cy="197.1" r="69.7"/>
            <circle class="cls-6" cx="319.1" cy="155.4" r="15.1"/>
          </g>
          <path class="cls-2" d="M315.1,268.8c-39.6,0-71.7-32.2-71.7-71.7s32.2-71.7,71.7-71.7,71.7,32.2,71.7,71.7-32.2,71.7-71.7,71.7ZM315.1,129.4c-37.3,0-67.7,30.4-67.7,67.7s30.4,67.7,67.7,67.7,67.7-30.4,67.7-67.7c0-37.3-30.4-67.7-67.7-67.7Z"/>
          <path class="cls-17" d="M426.7,296.1l-45.9-45c-.9-.9-1.9-1.6-3-2,11.7-14.1,18.8-32.2,18.8-52,0-44.9-36.4-81.4-81.4-81.4s-81.4,36.4-81.4,81.4,36.4,81.4,81.4,81.4,36.1-6.4,49.9-17.1c.5,1.3,1.2,2.5,2.3,3.5l45.9,45c1.9,1.8,4.3,2.8,6.7,2.8s5-1,6.9-2.9c3.7-3.8,3.7-9.9-.1-13.6ZM245.4,197.1c0-38.5,31.2-69.7,69.7-69.7s69.7,31.2,69.7,69.7-31.2,69.7-69.7,69.7-69.7-31.2-69.7-69.7Z"/>
          <g>
            <path class="cls-20" d="M475.8,334.9l-66.8-66.8c-1.7-1.7-26.3,22.9-24.6,24.6l66.8,66.8c6.8,6.8,17.8,6.8,24.6,0h0c6.8-6.8,6.8-17.8,0-24.6ZM470.8,346.2c0,3.4-2.7,6.1-6.1,6.1s-6.1-2.7-6.1-6.1h0c0-3.4,2.7-6.1,6.1-6.1,3.4,0,6.1,2.7,6.1,6.1h0Z"/>
            <g class="cls-23">
              <path class="cls-16" d="M468,351.3c-1,.6-2.1,1-3.4,1-3.4,0-6.1-2.7-6.1-6.1h0c0-1.3.4-2.5,1.1-3.5-15.3-15.8-37.8-39-51.4-52.9-7-7.2-11.6-12-11.7-11.9-6.6,6.5-13.2,13.9-12.3,14.8l66.8,66.8c6.8,6.8,17.8,6.8,24.6,0h0s-3-3.2-7.8-8.2Z"/>
            </g>
            <path class="cls-16" d="M412.6,272.3l-24.1,24.1c-1.1,1.1-2.9,1.1-4,0l-4.4-4.4c-1.1-1.1-1.1-2.9,0-4l24.1-24.1c1.1-1.1,2.9-1.1,4,0l4.4,4.4c1.1,1.1,1.1,2.9,0,4Z"/>
          </g>
        </g>
      </g>
    </g>
  </g>
</svg>
