<svg width="48" height="48" fill="none" stroke="#ffffff" stroke-linecap="round" stroke-width="1" viewBox="0 0 24 24" xmlns="http://www.w3.org/2000/svg">
   <path d="M21 12c0-4.969-4.031-9-9-9s-9 4.031-9 9 4.031 9 9 9 9-4.03 9-9Z"></path>
   <path d="M14.097 16.793c-.977.348-1.596.45-2.54.45-2.868 0-4.988-2.348-4.735-5.243.253-2.896 2.784-5.242 5.65-5.242 3.23 0 5.005 2.135 4.756 4.994-.188 2.135-1.538 2.75-2.245 2.625-.665-.12-1.215-.727-1.113-1.891l.263-2.094c-.355-.43-1.317-.843-2.34-.681-.932.145-2 .974-2.114 2.287-.115 1.313.679 2.383 1.871 2.383 1.193 0 2.244-.862 2.377-2.383"></path>
</svg>
