<svg width="24" height="24" fill="none" stroke="#ffffff" stroke-linecap="round" stroke-linejoin="round" stroke-width="1.5" viewBox="0 0 24 24" xmlns="http://www.w3.org/2000/svg">
  <path d="M17.25 1.5H6.75A2.25 2.25 0 0 0 4.5 3.75v16.5a2.25 2.25 0 0 0 2.25 2.25h10.5a2.25 2.25 0 0 0 2.25-2.25V3.75a2.25 2.25 0 0 0-2.25-2.25Z"></path>
  <path d="M9.75 3.75h4.5"></path>
  <path fill="#ffffff" stroke="none" d="M15.632 13.337a1.856 1.856 0 0 0-1.382-.587c-.544 0-1.035.207-1.385.583-.349.376-.525.896-.484 1.453.08 1.1.918 1.996 1.87 1.996.95 0 1.787-.895 1.868-1.995a1.897 1.897 0 0 0-.487-1.45Z"></path>
  <path fill="#ffffff" stroke="none" d="M17.424 21h-6.346a.565.565 0 0 1-.56-.437.609.609 0 0 1-.006-.27c.152-.823.627-1.515 1.374-2 .663-.43 1.503-.668 2.365-.668.863 0 1.703.237 2.365.668.747.485 1.221 1.177 1.374 2a.609.609 0 0 1-.13.512.563.563 0 0 1-.436.195Z"></path>
</svg>
