<?xml version="1.0" encoding="UTF-8"?>
<svg xmlns="http://www.w3.org/2000/svg" version="1.1" viewBox="0 0 21 21">
  <defs>
    <style>
      .cls-1 {
        fill: #fff;
      }

      .cls-2 {
        fill: #191919;
      }
    </style>
  </defs>
  <!-- Generator: Adobe Illustrator 28.6.0, SVG Export Plug-In . SVG Version: 1.2.0 Build 709)  -->
  <g>
    <g id="Layer_1">
      <g>
        <g id="Layer_1-2" data-name="Layer_1">
          <g>
            <path class="cls-2" d="M6.9,20.9h-3.1c-1.9,0-3.1-1.3-3.2-3.2,0-1.2,0-2.4.6-3.5.9-1.8,2.4-2.8,4.4-3h6.2c1.4,0,2.5.6,3.5,1.5.2.2.2.4,0,.6-1.4,1.4-2.8,2.9-4.3,4.3-.4.4-.6.9-.6,1.4v1.6c0,.3-.1.4-.5.4h-3.1,0Z"/>
            <path class="cls-2" d="M9.7,9.4c-2.4,0-4.4-2-4.4-4.4.1-2.4,2-4.4,4.4-4.4s4.4,2,4.5,4.4c0,2.4-2,4.4-4.4,4.4h-.1Z"/>
            <ellipse class="cls-1" cx="13.1" cy="16.3" rx="5.3" ry="2.9" transform="translate(-6.8 22.6) rotate(-69.1)"/>
            <g>
              <path class="cls-2" d="M18.4,14h-3c-.9,0-1.3.4-1.4,1.3,0,.4-.3.7-.7.7s-.7-.3-.7-.8c0-1.3,1.2-2.5,2.5-2.5h3.1c-.1-.4,0-.8.1-.9.3-.1.5-.1.8,0,.4.4.8.8,1.2,1.2.3.3.3.5,0,.8-.4.4-.8.8-1.2,1.2s-.5.3-.8,0c-.3-.1-.3-.5-.1-.8h0c0-.1.1-.1.1-.1Z"/>
              <path class="cls-2" d="M15,19.5v.5c0,.3-.1.4-.4.5h-.7c-.4-.4-.8-.8-1.2-1.2-.3-.3-.3-.5,0-.8.4-.4.8-.8,1.2-1.2.3-.3.5-.3.8,0,.3.1.3.5.1.8h0c0,.1.1.1.3.1h2.9c.8,0,1.3-.5,1.4-1.3,0-.4.3-.7.7-.7s.7.3.7.7c0,1.4-1.2,2.5-2.6,2.5h-3.1Z"/>
            </g>
          </g>
        </g>
        <ellipse class="cls-2" cx="5.7" cy="20.5" rx="2.8" ry=".5"/>
      </g>
    </g>
  </g>
</svg>
