<?xml version="1.0" encoding="UTF-8"?>
<svg xmlns="http://www.w3.org/2000/svg" version="1.1" viewBox="0 0 21 21">
  <defs>
    <style>
      .cls-1 {
        fill: #fff;
      }

      .cls-2 {
        fill: #191919;
      }
    </style>
  </defs>
  <!-- Generator: Adobe Illustrator 28.6.0, SVG Export Plug-In . SVG Version: 1.2.0 Build 709)  -->
  <g>
    <g id="Layer_1">
      <g>
        <path class="cls-2" d="M15.6,13.6c-.5.2-1,.4-1.5.7-1.2.7-1.8,1.6-1.8,2.8,0,.6.2,1,.8,1.4,0,0,0,0,.2,0-1,.7-1.2,1.5-.6,2.4-.7,0-1.4,0-2,0-2.8,0-5.5-.2-8.3-.6-.7-.1-1.2-.5-1.3-1-.2-1.5,0-2.9,1.2-4.2.9-1,2-1.7,3.5-2.2.1,0,.3,0,.4,0,2.6,1.1,5.1,1.1,7.7,0,.2,0,.3,0,.5,0,.5.2.9.3,1.4.5Z"/>
        <path class="cls-2" d="M6.4,21c-1,0-2.1,0-3.1,0-1.9,0-3.1-1.3-3.2-3.2,0-1.2,0-2.4.6-3.5.9-1.8,2.4-2.8,4.4-3,.4,0,.9,0,1.3,0,1.6,0,3.3,0,4.9,0,1.4,0,2.5.6,3.5,1.5.2.2.2.4,0,.6-1.4,1.4-2.8,2.9-4.3,4.3-.4.4-.6.9-.6,1.4,0,.5,0,1.1,0,1.6,0,.3-.1.4-.5.4-1,0-2.1,0-3.1,0,0,0,0,0,0,0Z"/>
        <path class="cls-2" d="M8.4,8.8c-2.4,0-4.4-2-4.4-4.4C4.1,2,6,0,8.4,0c2.5,0,4.4,2,4.5,4.4,0,2.4-2,4.4-4.4,4.4Z"/>
        <polygon class="cls-2" points="14.9 12.7 15.6 13.6 14.5 13.5 14.9 12.7"/>
      </g>
      <ellipse class="cls-1" cx="14" cy="16.6" rx="6" ry="2.9" transform="translate(-5.9 25.3) rotate(-73.7)"/>
      <path class="cls-2" d="M12.4,15.7c0,0,0-.1,0-.2,0,0,0,0,0,0,0-.3.2-.4.5-.5.6,0,1.3-.2,1.9-.3.1,0,.2,0,.3-.2.3-.6.6-1.2.9-1.7,0,0,0-.1.1-.2.3-.3.8-.2,1,.1.3.6.6,1.2.9,1.8,0,.1.1.2.3.2.6,0,1.3.2,1.9.3.3,0,.5.2.5.5,0,.2,0,.4-.2.6-.5.5-.9.9-1.4,1.4,0,0-.1.2,0,.3.1.6.2,1.2.3,1.8,0,.1,0,.3,0,.4,0,.4-.5.6-.9.4-.6-.3-1.1-.6-1.7-.9-.1,0-.3,0-.4,0-.6.3-1.1.6-1.7.9-.2.1-.4.1-.6,0-.2-.1-.3-.4-.2-.6.1-.6.2-1.3.3-1.9,0-.1,0-.2-.1-.3-.4-.4-.9-.8-1.3-1.2-.1-.1-.3-.3-.3-.4Z"/>
    </g>
  </g>
</svg>
