<?xml version="1.0" encoding="UTF-8"?>
<svg xmlns="http://www.w3.org/2000/svg" version="1.1" viewBox="0 0 21 21">
  <defs>
    <style>
      .cls-1 {
        fill: #191919;
      }
    </style>
  </defs>
  <!-- Generator: Adobe Illustrator 28.6.0, SVG Export Plug-In . SVG Version: 1.2.0 Build 709)  -->
  <g>
    <g id="Layer_1">
      <g>
        <path class="cls-1" d="M10.5,6.6c1.9,0,3.8,0,5.7,0,.7,0,1.2.5,1.1,1.2-.1,1.6-.3,3.1-.4,4.7-.1,1.4-.2,2.7-.3,4.1-.1,2.1-1.8,3.6-3.8,3.7-1.5,0-3,0-4.5,0-2.1,0-3.7-1.6-3.8-3.7-.1-1.7-.3-3.5-.4-5.2,0-1.2-.2-2.4-.3-3.6,0-.7.3-1.1,1.1-1.1,1.9,0,3.8,0,5.7,0Z"/>
        <path class="cls-1" d="M10.5,4.7c-2.2,0-4.5,0-6.7,0-.5,0-.9-.3-1-.8-.1-.6.3-1.2,1-1.2.9,0,1.8,0,2.8,0,.6,0,.8-.2.8-.7,0-.7.6-1.2,1.3-1.2,1.2,0,2.4,0,3.6,0,.7,0,1.3.5,1.3,1.2,0,.5.3.7.8.7.9,0,1.9,0,2.8,0,.7,0,1.2.6,1,1.2-.1.4-.5.7-1,.7-1.3,0-2.6,0-3.9,0-.9,0-1.9,0-2.8,0Z"/>
      </g>
    </g>
  </g>
</svg>
