<?xml version="1.0" encoding="UTF-8"?>
<svg xmlns="http://www.w3.org/2000/svg" version="1.1" viewBox="0 0 60 60">
  <defs>
    <style>
      .cls-1 {
        fill: #fe8298;
      }

      .cls-2 {
        fill: #fe8297;
      }

      .cls-3 {
        fill: #fe92a5;
      }

      .cls-4 {
        fill: #fe3557;
      }

      .cls-5 {
        fill: #fe4d6b;
      }

      .cls-6 {
        fill: #fff;
      }

      .cls-7 {
        fill: #fe2f52;
      }

      .cls-8 {
        fill: #fe9aab;
      }

      .cls-9 {
        fill: #2477fc;
      }

      .cls-10 {
        fill: #fe7189;
      }

      .cls-11 {
        fill: #fe9eaf;
      }

      .cls-12 {
        fill: #fe9eae;
      }

      .cls-13 {
        display: none;
      }

      .cls-14 {
        fill: #fefefe;
      }

      .cls-15 {
        fill: #fe2147;
      }

      .cls-16 {
        fill: #fe8da0;
      }
    </style>
  </defs>
  <!-- Generator: Adobe Illustrator 28.6.0, SVG Export Plug-In . SVG Version: 1.2.0 Build 709)  -->
  <g>
    <g id="Layer_1">
      <circle class="cls-6" cx="30" cy="30" r="30"/>
      <g class="cls-13">
        <g>
          <path class="cls-15" d="M28.9,51.5h-.8c-.6-.1-1.1,0-1.7-.1-1.4-.1-2.7-.5-3.9-1-2.2-.8-4.3-1.9-6.1-3.5-2.3-1.9-4.1-4-5.5-6.6-1.1-2.1-1.9-4.3-2.2-6.6-.2-1.7-.2-3.4-.1-5.1,0-1.3.1-2.6.5-3.9.8-3.2,2.3-6,4.4-8.6,1.9-2.2,4.1-4,6.8-5.4,1.7-.9,3.5-1.5,5.3-1.9.8-.2,1.6-.2,2.4-.2,0,0,.2,0,.3,0h.3c0,0,.1,0,.2,0,0,0,.1,0,.2,0h.3c.2,0,.4,0,.6,0h1.4c0,0,.1,0,.2,0,0,0,.1,0,.2,0h.3c.6,0,1.2,0,1.7.1,1,0,1.9.3,2.8.6,3,.9,5.6,2.4,8,4.4,2.5,2.2,4.4,4.8,5.7,7.9.5,1.3,1,2.6,1.3,3.9.2.8.2,1.7.2,2.5,0,0,0,.2,0,.3v.3c0,0,0,.2,0,.3,0,0,0,.2,0,.3v.3c0,.2,0,.3,0,.5v.3c0,.2,0,.3,0,.5v.5c0,0,0,.2,0,.3v.4c-.1.6,0,1.1-.1,1.7-.2,1.6-.6,3.1-1.2,4.6-.8,2-1.9,3.8-3.2,5.5-1.8,2.2-4,4.1-6.5,5.4-1.8,1-3.8,1.7-5.8,2.2-.8.2-1.7.2-2.5.2,0,0-.2,0-.2,0h-.3c0,0-.1,0-.2,0,0,0-.2,0-.2,0h-.4c-.1,0-.3,0-.4,0h-.3c-.1,0-.3,0-.4,0-.2,0-.3,0-.5,0Z"/>
          <path class="cls-4" d="M29.8,8.5c-.2.1-.4.1-.6,0h.6Z"/>
          <path class="cls-7" d="M51.5,29.8c-.1-.2-.1-.3,0-.5v.5Z"/>
          <path class="cls-7" d="M51.5,30.7c-.1-.2-.1-.3,0-.5v.5Z"/>
          <path class="cls-5" d="M28.9,51.5c.1-.1.3,0,.5,0,0,0,0,0,0,0h-.5Z"/>
          <path class="cls-7" d="M29.4,51.5s0,0,0,0c.1,0,.3,0,.4,0h-.4Z"/>
          <path class="cls-7" d="M30.2,51.5c.1-.1.3-.1.4,0h-.4Z"/>
          <path class="cls-8" d="M51.4,28.7c0,0,0-.2,0-.2v.3c0,0,0,0,0,0Z"/>
          <path class="cls-10" d="M51.4,28.7s0,0,0,0v.3c0,0,0-.2,0-.3Z"/>
          <path class="cls-16" d="M51.5,31.4c-.1,0,0-.2,0-.3v.3Z"/>
          <path class="cls-10" d="M31,51.5c0,0,.2,0,.3,0,0,0,0,0,0,0h-.3Z"/>
          <path class="cls-12" d="M28.7,8.6c0,0-.1,0-.2,0h.2c0,0,0,0,0,0Z"/>
          <path class="cls-2" d="M28.7,8.6s0,0,0,0h.2c0,0-.1,0-.2,0Z"/>
          <path class="cls-1" d="M31.4,8.6c0,0-.1,0-.2,0h.2c0,0,0,0,0,0Z"/>
          <path class="cls-11" d="M31.4,8.6s0,0,0,0h.2c0,0,0,0-.2,0Z"/>
          <path class="cls-3" d="M31.3,51.5s0,0,0,0c0,0,.1,0,.2,0h-.2Z"/>
        </g>
        <path class="cls-6" d="M24,26.6c2.2,0,4.4,0,6.6,0,.7,0,1-.2,1-1,0-1.2,0-2.3,0-3.5,0,0,0-.2,0-.3,0-.3.1-.5.4-.7.3-.1.5,0,.7.1.7.5,1.3,1,2,1.5,2.8,2.1,5.6,4.3,8.5,6.4.2.2.5.4.4.7,0,.2-.2.5-.4.6-2.1,1.6-4.2,3.2-6.3,4.8-1.3,1-2.7,2-4,3,0,0-.1.1-.2.1-.4.3-.9,0-1-.5,0-.8,0-1.5,0-2.3,0-.5,0-1.1,0-1.6,0-.7-.3-.9-.9-.9-4.4,0-8.8,0-13.2,0-.1,0-.2,0-.3,0-.4,0-.7-.3-.7-.7,0-1.8,0-3.6,0-5.4,0-.5.3-.7.8-.7,2.3,0,4.5,0,6.8,0Z"/>
      </g>
      <g>
        <path class="cls-9" d="M52.2,29.7v.3c0,.2,0,.3,0,.5v.3c0,.2,0,.3,0,.5v.5c0,0,0,.2,0,.3v.4c-.1.6,0,1.1-.1,1.7-.2,1.6-.6,3.1-1.2,4.6-.8,2-1.9,3.8-3.2,5.5-1.8,2.2-4,4.1-6.5,5.5-1.8,1-3.8,1.7-5.8,2.2-.8.2-1.7.2-2.5.2,0,0-.2,0-.2,0h-.3c0,0-.1,0-.2,0,0,0-.2,0-.2,0h-.4c-.1,0-.3,0-.4,0h-.3c-.1,0-.3,0-.4,0-.2,0-.3,0-.5,0h-.8c-.6-.1-1.1,0-1.7-.1-1.4-.1-2.7-.5-4-1-2.2-.8-4.3-2-6.1-3.5-2.2-1.8-4.1-4-5.5-6.6-1-2-1.8-4-2.2-6.2-.1-.7-.1-1.3-.2-2,0-1.8,0-3.7,0-5.5,0-1,.3-2,.6-2.9.9-3,2.4-5.6,4.4-8,1.8-2.1,3.9-3.8,6.4-5,2-1,4.1-1.8,6.3-2.1,1.7-.2,3.4-.2,5.1-.1,1.3,0,2.7.1,4,.5,3.2.8,6,2.3,8.5,4.4,2.2,1.9,4.1,4.2,5.4,6.8.9,1.7,1.5,3.5,1.9,5.5.1.8.1,1.6.2,2.3,0,0,0,.2,0,.3v.3c0,0,0,.2,0,.3,0,0,0,.2,0,.3Z"/>
        <path class="cls-7" d="M52.2,30.5c-.1-.2-.1-.3,0-.5v.5Z"/>
        <path class="cls-7" d="M52.2,31.4c-.1-.2-.1-.3,0-.5v.5Z"/>
        <path class="cls-5" d="M29.5,52.2c.1-.1.3,0,.5,0,0,0,0,0,0,0h-.5Z"/>
        <path class="cls-7" d="M30,52.2s0,0,0,0c.1,0,.3,0,.4,0h-.4Z"/>
        <path class="cls-7" d="M30.8,52.2c.1-.1.3-.1.4,0h-.4Z"/>
        <path class="cls-8" d="M52.1,29.4c0,0,0-.2,0-.2v.3c0,0,0,0,0,0Z"/>
        <path class="cls-10" d="M52.1,29.4s0,0,0,0v.3c0,0,0-.2,0-.3Z"/>
        <path class="cls-16" d="M52.2,32.1c-.1,0,0-.2,0-.3v.3Z"/>
        <path class="cls-10" d="M31.6,52.2c0,0,.2,0,.3,0,0,0,0,0,0,0h-.3Z"/>
        <path class="cls-3" d="M31.9,52.2s0,0,0,0c0,0,.1,0,.2,0h-.2Z"/>
        <path class="cls-14" d="M37.3,33.5c-1.2,0-2.4,0-3.5,0-.3,0-.4,0-.4.4,0,2.3,0,4.6,0,6.9,0,1.2-.6,1.8-1.8,1.8-.7,0-1.4,0-2.1,0-1,0-1.7-.6-1.7-1.7,0-2.3,0-4.6,0-6.9,0-.4,0-.5-.5-.5-2.3,0-4.5,0-6.8,0-1.2,0-1.8-.6-1.8-1.8,0-.7,0-1.4,0-2.1,0-1,.6-1.7,1.7-1.7,2.3,0,4.6,0,6.9,0,.4,0,.4,0,.4-.4,0-2.3,0-4.5,0-6.8,0-1.2.6-1.8,1.8-1.8.7,0,1.4,0,2.1,0,1,0,1.6.6,1.6,1.6,0,2.3,0,4.6,0,6.9,0,.5.1.5.6.5,2.2,0,4.5,0,6.7,0,1.1,0,1.7.6,1.7,1.7,0,.7,0,1.4,0,2.1,0,1-.6,1.6-1.7,1.6-1.1,0-2.3,0-3.4,0Z"/>
      </g>
    </g>
  </g>
</svg>
