<?xml version="1.0" encoding="UTF-8"?>
<svg xmlns="http://www.w3.org/2000/svg" version="1.1" viewBox="0 0 15 16">
  <defs>
    <style>
      .cls-1 {
        fill: #e54f38;
        fill-opacity: .9;
        fill-rule: evenodd;
      }
    </style>
  </defs>
  <!-- Generator: Adobe Illustrator 28.6.0, SVG Export Plug-In . SVG Version: 1.2.0 Build 709)  -->
  <g>
    <g id="Layer_1">
      <path class="cls-1" d="M0,8C0,3.9,3.4.5,7.5.5s7.5,3.4,7.5,7.5-3.4,7.5-7.5,7.5S0,12.1,0,8ZM7.5,2c-1.6,0-3.1.6-4.2,1.8-1.1,1.1-1.8,2.7-1.8,4.2s.6,3.1,1.8,4.2c1.1,1.1,2.7,1.8,4.2,1.8s3.1-.6,4.2-1.8c1.1-1.1,1.8-2.7,1.8-4.2s-.6-3.1-1.8-4.2c-1.1-1.1-2.7-1.8-4.2-1.8Z"/>
      <path class="cls-1" d="M8.2,4.3c0-.2,0-.4-.2-.5-.1-.1-.3-.2-.5-.2s-.4,0-.5.2c-.1.1-.2.3-.2.5v3h-3c-.2,0-.4,0-.5.2-.1.1-.2.3-.2.5s0,.4.2.5c.1.1.3.2.5.2h3v3c0,.2,0,.4.2.5.1.1.3.2.5.2s.4,0,.5-.2c.1-.1.2-.3.2-.5v-3h3c.2,0,.4,0,.5-.2.1-.1.2-.3.2-.5s0-.4-.2-.5c-.1-.1-.3-.2-.5-.2h-3v-3Z"/>
    </g>
  </g>
</svg>
