<?xml version="1.0" encoding="UTF-8"?>
<svg xmlns="http://www.w3.org/2000/svg" version="1.1" viewBox="0 0 20 20">
  <defs>
    <style>
      .cls-1 {
        fill: #191919;
      }
    </style>
  </defs>
  <!-- Generator: Adobe Illustrator 28.6.0, SVG Export Plug-In . SVG Version: 1.2.0 Build 709)  -->
  <g>
    <g id="Layer_1">
      <g>
        <path class="cls-1" d="M.8,6.4h18.4c0,0,0,.2,0,.3,0,3.3,0,6.7,0,10,0,1-.7,1.7-1.6,1.9-.1,0-.3,0-.4,0-4.9,0-9.8,0-14.6,0-1,0-1.6-.6-1.7-1.6,0,0,0-.2,0-.2,0-3.4,0-6.8,0-10.1v-.2ZM15.5,9.7c0-.2,0-.5,0-.7,0-.3-.2-.5-.5-.5-.5,0-.9,0-1.4,0-.3,0-.5.2-.5.5,0,.5,0,.9,0,1.4,0,.3.2.5.5.5.5,0,1,0,1.4,0,.3,0,.4-.2.4-.5,0-.2,0-.5,0-.7ZM9.8,16c.2,0,.5,0,.7,0,.3,0,.5-.1.5-.5,0-.5,0-.9,0-1.4,0-.3-.2-.5-.5-.5-.5,0-.9,0-1.4,0-.3,0-.5.2-.5.5,0,.5,0,.9,0,1.4,0,.3.2.5.5.5.2,0,.5,0,.7,0ZM15.5,14.8c0-.2,0-.5,0-.7,0-.3-.2-.5-.5-.5-.5,0-.9,0-1.4,0-.3,0-.5.2-.5.5,0,.5,0,.9,0,1.4,0,.3.2.5.5.5.5,0,.9,0,1.4,0,.3,0,.5-.2.5-.5,0-.2,0-.5,0-.7ZM8.6,9.7c0,.2,0,.5,0,.7,0,.3.2.5.4.5.5,0,1,0,1.5,0,.3,0,.4-.1.4-.4,0-.5,0-1,0-1.5,0-.3-.2-.4-.4-.4-.5,0-.9,0-1.4,0-.3,0-.5.2-.5.5,0,.2,0,.5,0,.7ZM4.1,14.8c0,.2,0,.4,0,.7,0,0,0,0,0,0,0,.3.2.5.5.5.4,0,.9,0,1.3,0,.3,0,.5-.2.5-.5,0-.5,0-1,0-1.4,0-.3-.2-.4-.4-.4-.5,0-1,0-1.5,0-.3,0-.4.2-.4.5,0,.2,0,.5,0,.7ZM5.3,8.5c-.2,0-.5,0-.7,0-.3,0-.5.2-.5.5,0,.5,0,.9,0,1.4,0,.3.2.5.4.5.5,0,.9,0,1.4,0,.3,0,.5-.2.5-.5,0-.5,0-.9,0-1.4,0-.3-.2-.4-.5-.4-.2,0-.5,0-.7,0Z"/>
        <path class="cls-1" d="M4,1.4c0,0,0,.2,0,.3,0,.5,0,.9,0,1.4,0,.4.2.6.6.6.3,0,.6-.2.6-.6,0-.5,0-1.1,0-1.6h9.1c0,0,0,.1,0,.2,0,.5,0,1,0,1.5,0,.3.2.5.4.6.2,0,.5,0,.6-.2,0-.1.1-.3.1-.4,0-.5,0-.9,0-1.4,0,0,0-.1,0-.2,0,0,0,0,.1,0,.6,0,1.3,0,1.9,0,.8,0,1.5.7,1.6,1.5,0,0,0,.1,0,.2,0,.7,0,1.4,0,2H.8c0-.8,0-1.6,0-2.4,0-.9.7-1.4,1.6-1.4.5,0,1,0,1.6,0Z"/>
      </g>
    </g>
  </g>
</svg>
