<svg width="24" height="24" viewBox="0 0 24 24" fill="none" xmlns="http://www.w3.org/2000/svg">
<path d="M6 15V9C6 7.4087 6.63214 5.88258 7.75736 4.75736C8.88258 3.63214 10.4087 3 12 3C13.5913 3 15.1174 3.63214 16.2426 4.75736C17.3679 5.88258 18 7.4087 18 9V17C18 18.0609 17.5786 19.0783 16.8284 19.8284C16.0783 20.5786 15.0609 21 14 21C12.9391 21 11.9217 20.5786 11.1716 19.8284C10.4214 19.0783 10 18.0609 10 17V9C10 8.46957 10.2107 7.96086 10.5858 7.58579C10.9609 7.21071 11.4696 7 12 7C12.5304 7 13.0391 7.21071 13.4142 7.58579C13.7893 7.96086 14 8.46957 14 9V17" stroke="black" stroke-opacity="0.878431" stroke-width="2" stroke-linecap="round" stroke-linejoin="round"/>
</svg>
