<?xml version="1.0" encoding="UTF-8"?>
<svg xmlns="http://www.w3.org/2000/svg" version="1.1" viewBox="0 0 60 60">
  <defs>
    <style>
      .cls-1 {
        fill: #e54f38;
      }
    </style>
  </defs>
  <!-- Generator: Adobe Illustrator 28.6.0, SVG Export Plug-In . SVG Version: 1.2.0 Build 709)  -->
  <g>
    <g id="Layer_1">
      <path class="cls-1" d="M37.1,59.3h-14.2c0,0,0-.2,0-.3-.3-2.7-.5-5.4-.8-8.1,0-.2-.3-.4-.5-.5-1.9-.8-3.7-1.8-5.4-3.1-.3-.2-.5-.3-.9-.1-2.1.9-4.2,1.9-6.3,2.8-.4.2-.9.4-1.3.6-2.4-4-4.7-8-7.1-12,.2-.2.4-.3.6-.5,2-1.4,4-2.9,6-4.3.4-.3.5-.5.5-1,0-1.6-.3-3.3,0-4.9.2-1.3-.2-2-1.3-2.7-2-1.3-3.8-2.7-5.7-4,2.4-4,4.7-8,7.1-12,.2,0,.4.2.6.3,2.3,1,4.7,2.1,7,3.1.2,0,.6,0,.8,0,1.7-1.3,3.6-2.4,5.6-3.2.2,0,.3-.3.4-.5.2-1.6.3-3.2.5-4.7.1-1.2.3-2.4.4-3.5h14.1c.3,2.7.6,5.4.8,8.1,0,.4.2.6.5.7,1.9.8,3.7,1.8,5.4,3.1.3.3.6.3.9.1,2.3-1.1,4.7-2.1,7-3.1.2,0,.4-.2.6-.2.1.2.2.4.3.5,1.4,2.3,2.7,4.7,4.1,7,.9,1.5,1.8,2.9,2.6,4.4h0c0,.1,0,.1-.1.1-2.3,1.6-4.6,3.2-6.8,4.8-.1,0-.2.4-.2.6,0,1.6.1,3.2.1,4.9,0,.6-.3,1.4,0,1.9.3.5,1,.8,1.6,1.2,1.8,1.3,3.7,2.6,5.5,3.8h0c-.1.3-.2.5-.3.6-2.1,3.6-4.3,7.3-6.4,10.9-.1.2-.2.4-.3.5-.2,0-.3-.1-.4-.2-2.4-1.1-4.8-2.1-7.2-3.2-.3-.2-.6-.2-.9,0-1.6,1.3-3.5,2.3-5.4,3.1-.3.1-.5.3-.5.6,0,.9-.2,1.9-.3,2.8-.2,1.8-.3,3.6-.5,5.4ZM18.8,39.1c3.8,4.2,8.4,6.1,13.9,4.9,6.5-1.3,10.2-5.6,11.6-12.1.5.4,1,.9,1.6,1.3.8-1,1.6-1.9,2.4-2.9-.1,0-.2-.1-.3-.2-1.5-1.2-2.9-2.4-4.4-3.6-.9-.7-1.6-.8-2.6-.2-1,.6-2.1,1.3-3.1,1.9-.6.4-1.3.8-2,1.2.7,1.1,1.3,2.1,2,3.2.9-.5,1.7-1,2.6-1.6-.6,3.9-2.5,6.8-6,8.4-4.9,2.3-9.2,1.1-12.9-2.7-.9.8-1.9,1.5-2.9,2.4ZM19.4,28.9c.6-4,2.6-6.9,6.2-8.5,4.6-2.1,8.7-1,12.4,2.4.9-.8,1.8-1.6,2.7-2.5-3.1-3.6-8.3-5.7-13.6-4.4-6.4,1.5-10,5.7-11.3,12.1-.5-.4-1-.8-1.6-1.3-.8,1-1.6,1.9-2.4,2.9,1.6,1.3,3.1,2.6,4.7,3.9.8.7,1.6.7,2.5.2,1.3-.8,2.7-1.6,4-2.5.4-.2.7-.5,1.1-.7-.7-1.1-1.3-2.1-2-3.2-.9.5-1.7,1-2.6,1.6Z"/>
    </g>
  </g>
</svg>
