<?xml version="1.0" encoding="UTF-8"?>
<svg xmlns="http://www.w3.org/2000/svg" version="1.1" viewBox="0 0 60 60">
  <defs>
    <style>
      .cls-1 {
        fill: #e54f38;
      }
    </style>
  </defs>
  <!-- Generator: Adobe Illustrator 28.6.0, SVG Export Plug-In . SVG Version: 1.2.0 Build 709)  -->
  <g>
    <g id="Layer_1">
      <g>
        <path class="cls-1" d="M23.8,5.7c.9.2,1.7.6,2.3,1.3.6.7.9,1.5.9,2.4,0,4.6,0,9.2,0,13.8,0,2.2-1.6,3.8-3.8,3.8-4.6,0-9.2,0-13.8,0-2.2,0-3.8-1.6-3.8-3.8,0-4.6,0-9.1,0-13.7,0-2,1.1-3.4,3.1-3.8,0,0,0,0,.1,0,5,0,9.9,0,14.9,0Z"/>
        <path class="cls-1" d="M54.3,23.8c-.2.9-.6,1.7-1.3,2.3-.7.6-1.5.9-2.4.9-4.6,0-9.2,0-13.8,0-2.2,0-3.8-1.6-3.8-3.8,0-4.6,0-9.1,0-13.7,0-2,1.1-3.4,3.1-3.8,0,0,0,0,.1,0,5,0,9.9,0,14.9,0,.6.3,1.2.4,1.7.8.9.6,1.3,1.5,1.5,2.4v14.9Z"/>
        <path class="cls-1" d="M54.3,51.1c-.2.9-.6,1.7-1.3,2.3-.7.6-1.6.9-2.5.9-4.6,0-9.2,0-13.8,0-2.2,0-3.8-1.6-3.8-3.7,0-4.6,0-9.2,0-13.9,0-2.2,1.6-3.7,3.8-3.8,4.6,0,9.2,0,13.8,0,1.9,0,3.3,1.2,3.7,3,0,0,0,.1,0,.2v14.9Z"/>
        <path class="cls-1" d="M5.7,43.6c0-2.2,0-4.5,0-6.7,0-2.4,1.6-4,4-4,4.5,0,8.9,0,13.4,0,2.4,0,4,1.6,4,4,0,4.4,0,8.9,0,13.3,0,2.4-1.6,4-4,4-4.5,0-8.9,0-13.4,0-2.4,0-4-1.6-4-4,0-2.2,0-4.5,0-6.7Z"/>
      </g>
    </g>
  </g>
</svg>
