<?xml version="1.0" encoding="UTF-8"?>
<svg xmlns="http://www.w3.org/2000/svg" version="1.1" viewBox="0 0 60 60">
  <defs>
    <style>
      .cls-1 {
        fill: #fec63b;
      }

      .cls-2 {
        fill: #fb4e3c;
      }

      .cls-3 {
        fill: #fe7e3e;
      }

      .cls-4 {
        fill: #e92f2f;
      }

      .cls-5 {
        fill: #eeaf25;
      }

      .cls-6 {
        fill: #fe4440;
      }

      .cls-7 {
        fill: #fec53b;
      }
    </style>
  </defs>
  <!-- Generator: Adobe Illustrator 28.6.0, SVG Export Plug-In . SVG Version: 1.2.0 Build 709)  -->
  <g>
    <g id="Layer_1">
      <g>
        <path class="cls-6" d="M45.7,4.2h1.4c1.6.2,2.5,1.2,3,2.6.4,1.2.9,2.3,1.3,3.5.6,1.9-.4,3.8-2.2,4.6-1.2.5-2.5.7-3.7,1.1-1.5.4-3.1.9-4.6,1.3-1.9.5-3.8,1.1-5.7,1.6-.6.2-.7.1-.6-.5,0-1.2,0-2.3,0-3.5,0-.5.2-.8.6-1.1,2.2-1.2,4.4-2.3,6.8-3,.8-.2,1.7-.4,2.5-.4.8,0,1.5.3,2.1.9,0,0,0,0,.1.1.3.3.7.3.9,0,.3-.3.3-.6,0-.9-.5-.8-1.2-1.1-2.1-1.3-1.2-.3-2.4-.1-3.6.2-2.2.6-4.3,1.5-6.4,2.6-.9.5-1,.5-1-.6,0-.6-.3-1.1-.5-1.6,0-.2.2-.3.4-.4,2.6-1.2,5.1-2.5,7.7-3.7.7-.3,1.3-.6,1.9-.9.5-.2,1.1-.5,1.6-.6Z"/>
        <path class="cls-6" d="M10.9,14.8c-1.8-.8-2.7-2.6-2.1-4.4.4-1.3.9-2.6,1.4-3.9.5-1.1,1.3-1.8,2.5-2.2,0,0,.2,0,.2-.1h1.3c.8,0,1.5.5,2.1.8,3,1.5,6.1,2.9,9.1,4.3.2.1.5.2.6.5-.4.6-.6,1.3-.5,2.1,0,.6-.1.7-.7.4-1.4-.8-2.9-1.5-4.4-2.1-1.7-.6-3.3-1.2-5.1-1.1-1.1,0-2.1.3-2.9,1.3-.3.4-.4.8-.1,1.1.3.3.7.3,1.1-.1.8-.8,1.8-1,2.9-.8,1.9.2,3.6.9,5.3,1.7,1.2.5,2.3,1.1,3.4,1.7.4.2.6.6.6,1,0,1.2,0,2.5,0,3.7,0,.4-.2.4-.5.3-1.3-.3-2.6-.7-3.8-1-.7-.2-1.3-.4-2-.5-.5-.2-1-.3-1.5-.4-2-.6-4-1.1-6-1.6-.3,0-.7-.1-.9-.4Z"/>
        <path class="cls-1" d="M40.8,17.2c1.5-.5,3.1-.9,4.6-1.3,1.3-.4,2.5-.7,3.7-1.1,1.7-.2,3.3,0,5,0,1,0,1.5.4,1.7,1.4v8.7c-.4.9-1.2,1.2-2.1,1.1-.5,0-1.1,0-1.6,0-.1.1-.3.1-.4.1-2,0-3.9,0-5.9,0-.3,0-.5-.4-.6-.6-.5-1.2-1.2-2.4-1.8-3.7-.8-1.3-1.5-2.6-2.4-3.9-.1-.2-.3-.3-.3-.6Z"/>
        <path class="cls-1" d="M26,55.8c-5.3,0-10.5,0-15.8,0-1.4,0-2.2-.8-2.2-2.1,0-8.1,0-16.2,0-24.3.2-.1.5,0,.7,0,1.2,0,2.3,0,3.5,0,.2,0,.5,0,.7.1.1.2,0,.3,0,.5-1.1,3-1.8,6.1-2.3,9.3,0,0,0,.1,0,.2,0,0,0,0,0,0,0,0,0,0,0,0,1.6-1.4,3.2-2.7,5-3.8.4-.3.5-.2.8.2.5.8.9,1.6,1.4,2.4.5.8,1.1,1.6,1.7,2.4.2-.2.2-.4.2-.6.6-3.5,1.6-6.9,3-10.2.1-.3.2-.5.5-.6.8,0,1.5,0,2.3,0,.2,0,.3,0,.4.1.1.2.1.5.1.7,0,8.3,0,16.7,0,25,0,.2,0,.4,0,.5Z"/>
        <path class="cls-1" d="M52,29.4c0,7.2,0,14.4,0,21.7,0,.8,0,1.7,0,2.5,0,1.4-.8,2.2-2.2,2.2-3.4,0-6.8,0-10.2,0-1.9,0-3.8,0-5.6,0-.1-.2,0-.4,0-.6,0-8.3,0-16.5,0-24.8,0-.3,0-.6.1-.8.1-.1.3-.2.5-.2.8,0,1.5,0,2.3,0,.3,0,.4.4.5.6,1.4,3.3,2.4,6.7,3,10.2,0,.2,0,.4.2.6.4-.4.7-.9,1-1.4.7-1.1,1.4-2.2,2-3.3.4-.6.5-.7,1.1-.3,1.7,1.1,3.3,2.3,4.8,3.7.1.1,0,0,0,0,0,0,0,0,0-.1-.5-2.7-1.1-5.5-1.9-8.1-.1-.4-.2-.7-.4-1.1,0-.2-.2-.4,0-.6.1-.1.3-.2.5-.2,1.4,0,2.8,0,4.2,0,0,0,.2,0,.2,0Z"/>
        <path class="cls-6" d="M34.1,29.5c0,.2,0,.4,0,.7,0,8.3,0,16.6,0,25,0,.2,0,.4,0,.6-2.7,0-5.4,0-8.1,0-.1-.2,0-.4,0-.6,0-8.3,0-16.6,0-25,0-.2,0-.4,0-.7,0,0,0-.1,0-.1,1.6,0,3.2,0,4.9,0,1.1,0,2.2,0,3.3,0,0,0,0,0,0,.1Z"/>
        <path class="cls-1" d="M10.9,14.8c2.1.7,4.2,1.2,6.4,1.8.2,0,.3.1.5.2,0,.3-.1.4-.3.6-1.4,2.2-2.8,4.4-3.9,6.8-.2.5-.4.9-.6,1.4-.2.3-.4.4-.7.4-1.3,0-2.5,0-3.8,0-.2,0-.3,0-.5-.1-.7,0-1.4,0-2.1,0-1,0-1.7-.6-1.7-1.7,0-2.5,0-5.1,0-7.6,0-1.1.6-1.7,1.6-1.7,1.5,0,3,0,4.4,0,.2,0,.4,0,.5,0Z"/>
        <path class="cls-5" d="M8,25.9c1.3,0,2.7,0,4,0,.5,0,.8-.2,1-.6,1.3-3,3-5.8,4.8-8.5.5,0,1,.2,1.5.4,0,.2,0,.3-.2.5-.9,1.3-1.7,2.6-2.4,4-1.3,2.5-2.5,4.9-3.4,7.5,0,.1,0,.3-.3.4-.1-.2-.3-.1-.5-.1-1.3,0-2.5,0-3.8,0-.2,0-.4,0-.6,0,0-1.2,0-2.3,0-3.5Z"/>
        <path class="cls-5" d="M52,29.4c-.2.1-.4,0-.6,0-1.3,0-2.5,0-3.8,0-.2,0-.4,0-.5.1-.2,0-.2-.2-.3-.3-.4-1-.8-2-1.2-2.9,0-.2-.1-.3,0-.5,2.1,0,4.3,0,6.4,0,0,1.2,0,2.3,0,3.5Z"/>
        <path class="cls-4" d="M16.5,21.6c.8-1.5,1.7-3,2.7-4.4,1.6.4,3.2.8,4.7,1.3.5.1,1,.3,1.5.4-.1-1.4,0-2.8,0-4.2,0-.2,0-.4-.3-.5-2.4-1.4-4.9-2.6-7.6-3.3-.9-.2-1.8-.4-2.7-.2-.5.1-.9.3-1.3.7-.2.2-.4.4-.8.4-.3,0-.6-.2-.7-.5-.1-.3,0-.6.2-.9.8-1,1.8-1.4,3.1-1.4,2,0,3.9.6,5.8,1.3,1.3.5,2.7,1.2,3.9,1.9.1,0,.2.2.4.1,0-.9,0-1.8.6-2.5.6-.5,1.2-.7,2-.7,1.4,0,2.7,0,4.1,0,.8,0,1.4.2,2,.7.5.6.7,1.3.6,2.1,0,.4.1.5.4.3,1.8-1,3.7-1.9,5.6-2.5,1.3-.4,2.6-.7,4-.6,1.2,0,2.3.4,3.1,1.5.3.4.2.9-.1,1.1-.3.3-.8.3-1.2-.1-.7-.9-1.7-1-2.8-.9-2.1.2-4.1,1.1-6,2-.9.4-1.8.9-2.7,1.4-.3.2-.5.4-.4.7,0,1.1,0,2.3,0,3.4,0,.2,0,.5-.1.7,1.1-.3,2.1-.6,3.2-.9,1-.3,2-.6,3.1-.8,1,1.4,1.9,2.9,2.7,4.4,0,.4-.2.4-.4.4-.9.3-1.8.5-2.7.7-2,.5-4,1.1-6,1.6,0,0-.2,0-.2,0,0,0-.2-.2-.3-.3-.7-1-1.3-2-2.1-3-.3-.3-.5-.5-1-.5-.6,0-1.2,0-1.8,0-.4,0-.6.1-.9.4-.8,1-1.4,2-2.1,3.1,0,0-.2.2-.3.3,0,0-.1,0-.2,0-2-.5-4-1.1-6-1.6-.9-.2-1.8-.5-2.7-.7-.2,0-.5,0-.4-.4Z"/>
        <path class="cls-6" d="M34.3,24.4c1.3-.4,2.6-.7,3.8-1.1,1.7-.5,3.3-.9,5-1.4.1,0,.4,0,.4-.3.7,1.2,1.3,2.5,1.9,3.7,0,.2.2.3.2.5.5,1.2,1,2.5,1.5,3.7.6,1.7,1.1,3.5,1.5,5.3.4,1.5.7,3,.9,4.6,0,.1,0,.2-.1.2-1.6-1.4-3.2-2.7-5-3.8-.4-.3-.6-.2-.8.2-.9,1.7-1.9,3.2-3,4.7,0,.1-.1.2-.3.3-.1-.7-.2-1.4-.4-2.1-.7-3.3-1.6-6.5-3-9.5-.1,0-.2-.2-.3-.3-.6-1.5-1.4-2.9-2.2-4.2,0-.2-.3-.3-.1-.6Z"/>
        <path class="cls-6" d="M16.5,21.6c0,.3.3.2.4.3,2.8.8,5.5,1.5,8.3,2.3.2,0,.3.1.5.2.1.3-.2.5-.3.8,0,.2-.2.4-.4.6-.6,1.1-1.2,2.2-1.7,3.3,0,.1-.2.3-.3.3-.9,2-1.6,4-2.2,6.1-.5,1.7-.9,3.5-1.1,5.2,0,0,0,.1-.1.3-.4-.5-.8-1-1.1-1.5-.8-1.2-1.6-2.3-2.2-3.6-.2-.4-.4-.5-.8-.2-1.7,1.2-3.4,2.5-5,3.8-.2,0-.2,0-.1-.2.3-2,.7-4,1.3-6,.4-1.3.8-2.6,1.2-3.8.7-1.8,1.4-3.7,2.3-5.4.4-.9.9-1.7,1.3-2.5Z"/>
        <path class="cls-5" d="M23.1,29.5c.6-1.3,1.2-2.5,1.9-3.7.3,0,.6,0,.9,0,0,0,0,0,0,.2.1,1,0,2.1,0,3.1,0,.1,0,.2-.1.3,0,0,0,0,0,0-.9,0-1.9,0-2.8,0Z"/>
        <path class="cls-3" d="M10.5,39.5c0,0,0,.2.1.2,0,0,0,.2-.2,0,0,0,0-.2,0-.3Z"/>
        <path class="cls-5" d="M34.3,24.4c.6,1.1,1.2,2.2,1.8,3.3.3.6.6,1.2.9,1.9-.9,0-1.9,0-2.8,0,0,0,0,0,0,0-.1-.1-.1-.3-.1-.5,0-1,0-2,0-3,0-.4,0-.8,0-1.2,0-.2,0-.4.2-.4h0Z"/>
        <path class="cls-3" d="M49.4,39.7c0,0,0-.1.1-.2,0,0,.1.2,0,.3,0,0-.1,0-.2,0Z"/>
        <path class="cls-4" d="M34.1,25.9c0,1.2,0,2.3,0,3.5-.2.1-.3,0-.5,0-2.4,0-4.8,0-7.2,0-.2,0-.4,0-.5,0,0-1.2,0-2.4,0-3.5.2-.2.4-.1.6-.1,2.3,0,4.7,0,7,0,.2,0,.4,0,.6.1Z"/>
        <path class="cls-6" d="M26,24.1c.7-1.2,1.5-2.3,2.3-3.4.1-.2.3-.2.5-.2.8,0,1.6,0,2.4,0,.2,0,.4,0,.5.2.8,1.1,1.6,2.2,2.3,3.4.1.5,0,1,0,1.5,0,.1,0,.2-.2.2,0,0-.2,0-.3,0-2.4,0-4.8,0-7.2,0-.4,0-.6-.1-.6-.5,0-.4,0-.8.1-1.2Z"/>
        <path class="cls-2" d="M26,24.1c0,.4,0,.9,0,1.3,0,.3,0,.4.4.4,2.4,0,4.8,0,7.3,0,.3,0,.4-.1.4-.4,0-.4,0-.9,0-1.3,0,0,.2.1.2.2-.2.5,0,1.1-.1,1.6-2.7,0-5.5,0-8.2,0,0,0,0,0,0,0-.3-.5,0-1.1,0-1.6,0-.1,0-.2.2-.2Z"/>
        <path class="cls-7" d="M25.8,24.3c.2.5,0,1.1,0,1.6-.3,0-.6.1-.9-.1.2-.5.5-.9.7-1.4,0,0,0,0,0,0Z"/>
      </g>
    </g>
  </g>
</svg>
