<?xml version="1.0" encoding="UTF-8"?>
<svg xmlns="http://www.w3.org/2000/svg" version="1.1" viewBox="0 0 60 60">
  <defs>
    <style>
      .cls-1 {
        fill: #76787b;
      }
    </style>
  </defs>
  <!-- Generator: Adobe Illustrator 28.6.0, SVG Export Plug-In . SVG Version: 1.2.0 Build 709)  -->
  <g>
    <g id="Layer_1">
      <g>
        <path class="cls-1" d="M24.9,40.1v-20.6c3-.8,5.8-1.9,8.5-3.2,4.5-2.1,8.7-4.6,13-7.1,2-1.1,4-2.2,6.1-3.2,2.1-1,4.7.5,4.9,2.8,0,.2,0,.5,0,.7,0,13.6,0,27.3,0,40.9,0,2-1,3.2-2.9,3.8-.8.2-1.4.1-2.1-.3-3.6-2.3-7.2-4.6-10.9-6.7-4.7-2.8-9.7-5.2-15.1-6.6-.5-.1-1.1-.3-1.6-.4Z"/>
        <path class="cls-1" d="M21.1,39.7c-3.4,0-6.7.3-10,0-4.9-.5-8.3-4.7-8.5-9.6-.1-4.7,3.2-8.9,7.9-9.9.6-.1,1.3-.2,2-.2,2.7,0,5.4,0,8.1,0,.2,0,.3,0,.6,0v19.7Z"/>
      </g>
    </g>
  </g>
</svg>
