<?xml version="1.0" encoding="UTF-8"?>
<svg xmlns="http://www.w3.org/2000/svg" version="1.1" viewBox="0 0 60 60">
  <defs>
    <style>
      .cls-1 {
        fill: #e54f38;
      }
    </style>
  </defs>
  <!-- Generator: Adobe Illustrator 28.6.0, SVG Export Plug-In . SVG Version: 1.2.0 Build 709)  -->
  <g>
    <g id="Layer_1">
      <g>
        <path class="cls-1" d="M48.6,1.2c.3,0,.7.2,1,.3,2.6.8,4.1,2.9,4.1,5.6,0,4.3,0,8.6,0,12.8,0,9.1,0,18.3,0,27.4,0,3.7-2.8,5.9-5.8,5.9-.1,0-.3,0-.4,0,0-.3,0-.5,0-.7,0-13.2,0-26.3,0-39.5,0-2.8-1.5-5-3.9-5.8-.8-.3-1.6-.3-2.4-.3-9.2,0-18.5,0-27.7,0h-.9c.1-.6.2-1.2.4-1.8.8-2.1,2.3-3.2,4.4-3.7.1,0,.2,0,.4-.1,10.3,0,20.6,0,31,0Z"/>
        <path class="cls-1" d="M43.7,34.7c0,7.2,0,14.3,0,21.5,0,1.7-1.1,2.6-2.6,2.6-10.8,0-21.6,0-32.4,0-1.7,0-2.5-.8-2.5-2.5,0-14.4,0-28.9,0-43.3,0-1.7.8-2.5,2.5-2.5,10.8,0,21.6,0,32.4,0,1.7,0,2.5.8,2.5,2.5,0,7.2,0,14.5,0,21.7ZM25.3,22.6c-2.9,0-5.8,0-8.7,0-.5,0-1,.2-1.4.5-.6.4-.8,1.3-.5,2,.3.8,1,1.2,1.9,1.2,5.8,0,11.6,0,17.3,0,1.2,0,2-.8,2.1-1.9,0-1.1-.8-1.9-2.1-1.9-2.9,0-5.7,0-8.6,0ZM25.4,41.1c2.9,0,5.7,0,8.6,0,.2,0,.5,0,.7,0,.9-.2,1.5-1.1,1.4-2-.1-1-.9-1.6-2-1.6-5.8,0-11.6,0-17.4,0-1.2,0-2,.8-2,1.9,0,1.1.8,1.8,2,1.8,2.9,0,5.8,0,8.7,0ZM25.4,30c-2.9,0-5.8,0-8.7,0-1.2,0-2,.7-2,1.8,0,1.1.8,1.9,2.1,1.9,5.7,0,11.5,0,17.2,0,.2,0,.5,0,.7,0,.9-.2,1.5-1.1,1.4-2-.1-1-.9-1.7-1.9-1.7-2.9,0-5.9,0-8.8,0Z"/>
      </g>
    </g>
  </g>
</svg>
