<svg width="20" height="21" viewBox="0 0 20 21" fill="none" xmlns="http://www.w3.org/2000/svg">
<path d="M6.83004 1.35572V3.39095C4.02037 4.52827 2.03837 7.28284 2.03837 10.5003C2.03837 14.7345 5.47085 18.167 9.70504 18.167C12.9225 18.167 15.6771 16.185 16.8144 13.3753H18.8496C17.6284 17.2634 13.9961 20.0837 9.70504 20.0837C4.41231 20.0837 0.121704 15.793 0.121704 10.5003C0.121704 6.20925 2.94197 2.57689 6.83004 1.35572ZM9.70504 0.916992C14.9977 0.916992 19.2884 5.20759 19.2884 10.5003C19.2884 10.8238 19.2724 11.1435 19.241 11.4587H8.7467V0.964315C9.0619 0.933016 9.3816 0.916992 9.70504 0.916992ZM10.6634 2.89297V9.54199H17.3124C16.88 6.07405 14.1313 3.32542 10.6634 2.89297Z" fill="black"/>
</svg>
