<?xml version="1.0" encoding="UTF-8"?>
<svg xmlns="http://www.w3.org/2000/svg" version="1.1" viewBox="0 0 20 20">
  <defs>
    <style>
      .cls-1 {
        fill: #191919;
      }
    </style>
  </defs>
  <!-- Generator: Adobe Illustrator 28.6.0, SVG Export Plug-In . SVG Version: 1.2.0 Build 709)  -->
  <g>
    <g id="Layer_1">
      <path class="cls-1" d="M4.1,15.8c-.7-.2-1.3-.4-1.8-.9-1-.8-1.6-1.9-1.6-3.3,0-2.3,0-4.5,0-6.8,0-2.1,1.5-3.8,3.6-4.2.2,0,.4,0,.7,0,3.3,0,6.6,0,9.9,0,2.1,0,3.8,1.4,4.2,3.4,0,.3,0,.6,0,.9,0,2.2,0,4.4,0,6.6,0,2.1-1.4,3.8-3.5,4.2-.3,0-.6,0-.9,0-1.5,0-3,0-4.5,0-.1,0-.2,0-.3.1-1.5,1-3.1,2-4.6,3.1-.2.1-.4.2-.6.2-.5,0-.8-.4-.8-.8,0-.8,0-1.6,0-2.4,0,0,0-.1,0-.2ZM10,7.5c1.2,0,2.5,0,3.7,0,.5,0,.9,0,1.4,0,.4,0,.8-.3.8-.7,0-.4-.2-.8-.6-.9-.1,0-.3,0-.4,0-3.3,0-6.5,0-9.8,0,0,0-.1,0-.2,0-.4,0-.6.2-.8.6-.2.6.2,1.1.8,1.1,1.7,0,3.3,0,5,0ZM10,10.8c.7,0,1.3,0,2,0,.5,0,1,0,1.4,0,.5,0,.9-.5.8-1,0-.4-.4-.7-.9-.7-2.2,0-4.4,0-6.6,0,0,0-.1,0-.2,0-.4,0-.7.3-.7.6-.1.6.3,1,.9,1,1.1,0,2.2,0,3.3,0Z"/>
    </g>
  </g>
</svg>
