<?xml version="1.0" encoding="UTF-8"?>
<svg xmlns="http://www.w3.org/2000/svg" version="1.1" viewBox="0 0 60 60">
  <defs>
    <style>
      .cls-1 {
        fill: #fff;
      }

      .cls-2 {
        fill: #f8595f;
      }
    </style>
  </defs>
  <!-- Generator: Adobe Illustrator 28.6.0, SVG Export Plug-In . SVG Version: 1.2.0 Build 709)  -->
  <g>
    <g id="Layer_1">
      <g>
        <path class="cls-2" d="M30,4.6c8,0,16,0,24,0,3.2,0,5.3,2.1,5.3,5.3,0,9.5,0,19,0,28.5,0,3.2-2,5.3-5.2,5.3-11.8,0-23.6,0-35.4,0-1.5,0-2.8.5-4,1.5-3.6,3.2-7.3,6.4-11,9.6-1.1,1-2.5.7-2.9-.6,0-.2,0-.4,0-.7,0-14.6,0-29.2,0-43.9,0-3,2.1-5.1,5.1-5.1,8.1,0,16.1,0,24.2,0Z"/>
        <path class="cls-1" d="M30,18.3c-4.5,0-9.1,0-13.6,0-.9,0-1.6-.5-1.9-1.3-.3-.8,0-1.6.6-2.1.4-.3.8-.4,1.2-.4,9.1,0,18.2,0,27.2,0,1.1,0,2,.9,2,2,0,1.1-.9,1.9-2,1.9-4.5,0-9.1,0-13.6,0Z"/>
        <path class="cls-1" d="M30,22.2c4.5,0,9,0,13.5,0,1.5,0,2.5,1.4,1.9,2.7-.3.8-1,1.2-1.9,1.2-1.7,0-3.5,0-5.2,0-7.2,0-14.4,0-21.6,0-.3,0-.6,0-.8,0-1-.2-1.6-1.2-1.5-2.1.1-1,1-1.7,2-1.7,4.5,0,9.1,0,13.6,0Z"/>
        <path class="cls-1" d="M25.1,33.9c-2.9,0-5.8,0-8.7,0-.9,0-1.6-.5-1.9-1.4-.3-.8,0-1.6.7-2.1.3-.3.7-.4,1.2-.4,5.9,0,11.7,0,17.6,0,1.1,0,1.9.9,1.9,1.9,0,1.1-.8,2-2,2-2.9,0-5.9,0-8.8,0Z"/>
      </g>
    </g>
  </g>
</svg>
