<?xml version="1.0" encoding="UTF-8"?>
<svg xmlns="http://www.w3.org/2000/svg" version="1.1" viewBox="0 0 60 60">
  <!-- Generator: Adobe Illustrator 28.6.0, SVG Export Plug-In . SVG Version: 1.2.0 Build 709)  -->
  <g>
    <g id="Layer_1">
      <g>
        <path d="M4.5,33.9c0-6.4,0-12.8,0-19.3,0-3.8,2.5-6.3,6.3-6.3,8.9,0,17.8,0,26.7,0,3.8,0,6.3,2.5,6.3,6.3,0,12.8,0,25.7,0,38.5,0,3.8-2.5,6.3-6.3,6.3-8.9,0-17.8,0-26.7,0-3.8,0-6.3-2.5-6.3-6.3,0-6.4,0-12.8,0-19.3Z"/>
        <path d="M47.7,51.6c0-.4,0-.6,0-.9,0-12.1,0-24.2,0-36.3,0-4.8-3.2-8.7-7.9-9.7-.7-.1-1.5-.2-2.2-.2-6.7,0-13.5,0-20.2,0-.2,0-.4,0-.7,0,.7-1.9,2-3.1,3.8-3.7.6-.2,1.2-.3,1.8-.3,9.1,0,18.2,0,27.2,0,3.4,0,6,2.6,6,6,0,13,0,26,0,39,0,3.4-2.6,6-6,6-.6,0-1.2,0-1.8,0Z"/>
      </g>
    </g>
  </g>
</svg>
