<svg width="23" height="22" viewBox="0 0 23 22" fill="none" xmlns="http://www.w3.org/2000/svg">
<g clip-path="url(#clip0_569_21897)">
<path d="M11.4871 22V20.2812C14.0298 20.2812 16.4203 19.3158 18.2182 17.5628C20.0162 15.8098 21.0064 13.4791 21.0064 11C21.0064 9.34171 20.5527 7.71465 19.6943 6.29475C19.171 5.42893 18.5065 4.65231 17.7328 3.99579L17.9505 6.42215L16.1943 6.57194L15.7335 1.43529L21.0018 0.985918L21.1555 2.69814L19.0911 2.87422C19.9217 3.61359 20.639 4.47253 21.213 5.42205C22.2311 7.10617 22.7692 9.035 22.7692 11C22.7692 13.9382 21.5956 16.7005 19.4648 18.7782C17.3338 20.8558 14.5007 22 11.4871 22ZM1.97248 21.0141L1.81885 19.3019L3.88311 19.1258C3.05256 18.3865 2.33527 17.5275 1.7613 16.578C0.743179 14.8938 0.205078 12.965 0.205078 11C0.205078 8.0618 1.37863 5.29947 3.50949 3.2218C5.64043 1.14421 8.47359 0 11.4871 0V1.71875C8.94448 1.71875 6.55396 2.68417 4.75602 4.43717C2.95807 6.19016 1.9679 8.52087 1.9679 11C1.9679 12.6583 2.4216 14.2853 3.27992 15.7052C3.8033 16.5711 4.4678 17.3477 5.2415 18.0042L5.02379 15.5778L6.77991 15.4281L7.24085 20.5647L1.97248 21.0141ZM12.3685 17.875H10.6057V16.1562C8.90469 16.1562 7.52078 14.8069 7.52078 13.1484H9.2836C9.2836 13.8592 9.8767 14.4375 10.6057 14.4375H12.3685C13.0976 14.4375 13.6907 13.8592 13.6907 13.1484C13.6907 12.4376 13.0976 11.8594 12.3685 11.8594H10.6057C8.90469 11.8594 7.52078 10.5101 7.52078 8.85156C7.52078 7.19305 8.90469 5.84375 10.6057 5.84375V4.125H12.3685V5.84375C14.0696 5.84375 15.4535 7.19305 15.4535 8.85156H13.6907C13.6907 8.14077 13.0976 7.5625 12.3685 7.5625H10.6057C9.8767 7.5625 9.2836 8.14077 9.2836 8.85156C9.2836 9.56235 9.8767 10.1406 10.6057 10.1406H12.3685C14.0696 10.1406 15.4535 11.4899 15.4535 13.1484C15.4535 14.8069 14.0696 16.1562 12.3685 16.1562V17.875Z" fill="black"/>
</g>
<defs>
<clipPath id="clip0_569_21897">
<rect width="22.5641" height="22" fill="white" transform="translate(0.205078)"/>
</clipPath>
</defs>
</svg>
