<svg width="25" height="21" viewBox="0 0 25 21" fill="none" xmlns="http://www.w3.org/2000/svg">
<path d="M0.25 21C0.25 18.8783 1.08827 16.8434 2.58041 15.3431C4.07255 13.8429 6.09632 13 8.20652 13C10.3167 13 12.3405 13.8429 13.8326 15.3431C15.3248 16.8434 16.163 18.8783 16.163 21H14.1739C14.1739 19.4087 13.5452 17.8826 12.4261 16.7574C11.307 15.6321 9.78916 15 8.20652 15C6.62387 15 5.10604 15.6321 3.98694 16.7574C2.86783 17.8826 2.23913 19.4087 2.23913 21H0.25ZM8.20652 12C4.90953 12 2.23913 9.315 2.23913 6C2.23913 2.685 4.90953 0 8.20652 0C11.5035 0 14.1739 2.685 14.1739 6C14.1739 9.315 11.5035 12 8.20652 12ZM8.20652 10C10.4045 10 12.1848 8.21 12.1848 6C12.1848 3.79 10.4045 2 8.20652 2C6.00853 2 4.22826 3.79 4.22826 6C4.22826 8.21 6.00853 10 8.20652 10ZM16.4455 13.703C17.8432 14.3359 19.0293 15.3612 19.8614 16.6557C20.6935 17.9502 21.136 19.4587 21.1359 21H19.1467C19.147 19.844 18.8151 18.7125 18.191 17.7416C17.567 16.7707 16.6773 16.0017 15.6289 15.527L16.4455 13.703ZM15.7612 2.413C16.7633 2.8283 17.62 3.53354 18.2228 4.43923C18.8255 5.34492 19.1471 6.41024 19.1467 7.5C19.1471 8.87233 18.6372 10.1952 17.7171 11.2088C16.797 12.2224 15.5331 12.8535 14.1739 12.978V10.965C14.9108 10.8589 15.5945 10.518 16.1245 9.99246C16.6546 9.4669 17.0031 8.78432 17.119 8.04493C17.2348 7.30555 17.1118 6.5483 16.7681 5.88435C16.4244 5.22041 15.878 4.68475 15.2092 4.356L15.7612 2.413Z" fill="#F6A723"/>
</svg>
