<?xml version="1.0" encoding="UTF-8"?>
<svg xmlns="http://www.w3.org/2000/svg" version="1.1" xmlns:xlink="http://www.w3.org/1999/xlink" viewBox="0 0 21 21">
  <defs>
    <style>
      .cls-1 {
        fill: none;
      }

      .cls-2 {
        fill: #191919;
      }

      .cls-3 {
        clip-path: url(#clippath);
      }
    </style>
    <clipPath id="clippath">
      <rect class="cls-1" width="21" height="21"/>
    </clipPath>
  </defs>
  <!-- Generator: Adobe Illustrator 28.6.0, SVG Export Plug-In . SVG Version: 1.2.0 Build 709)  -->
  <g>
    <g id="Layer_1">
      <g class="cls-3">
        <g>
          <path class="cls-2" d="M10.5,8.5c2,0,3.6-1.6,3.6-3.6s-1.6-3.6-3.6-3.6-3.6,1.6-3.6,3.6,1.6,3.6,3.6,3.6Z"/>
          <path class="cls-2" d="M17.7,8.5c1.2,0,2.3-1,2.3-2.3s-1-2.3-2.3-2.3-2.3,1-2.3,2.3,1,2.3,2.3,2.3Z"/>
          <path class="cls-2" d="M3.3,8.5c1.2,0,2.3-1,2.3-2.3s-1-2.3-2.3-2.3-2.3,1-2.3,2.3,1,2.3,2.3,2.3Z"/>
          <path class="cls-2" d="M5.5,10.5c-.9-.7-1.7-.6-2.7-.6-1.5,0-2.8,1.2-2.8,2.8v4.5c0,.7.5,1.2,1.2,1.2,2.9,0,2.5,0,2.5-.1,0-3.2-.4-5.5,1.8-7.7Z"/>
          <path class="cls-2" d="M11.5,9.9c-1.8-.1-3.4,0-4.7,1.1-2.2,1.8-1.8,4.2-1.8,7.2s.6,1.4,1.4,1.4c8.7,0,9,.3,9.5-.9.2-.4.1-.3.1-3.9s-2.5-4.9-4.6-4.9Z"/>
          <path class="cls-2" d="M18.2,9.9c-1,0-1.8,0-2.7.6,2.1,2.2,1.8,4.3,1.8,7.7s-.3.1,2.5.1,1.2-.6,1.2-1.2v-4.4c0-1.5-1.2-2.8-2.8-2.8Z"/>
        </g>
      </g>
    </g>
  </g>
</svg>
