<?xml version="1.0" encoding="UTF-8"?>
<svg xmlns="http://www.w3.org/2000/svg" version="1.1" xmlns:xlink="http://www.w3.org/1999/xlink" viewBox="0 0 20 20">
  <defs>
    <style>
      .cls-1 {
        fill: none;
      }

      .cls-2 {
        fill: #191919;
      }

      .cls-3 {
        clip-path: url(#clippath);
      }
    </style>
    <clipPath id="clippath">
      <rect class="cls-1" y="0" width="20" height="20"/>
    </clipPath>
  </defs>
  <!-- Generator: Adobe Illustrator 28.6.0, SVG Export Plug-In . SVG Version: 1.2.0 Build 709)  -->
  <g>
    <g id="Layer_1">
      <g class="cls-3">
        <g>
          <path class="cls-2" d="M.6,12.8h2.2c.3,0,.6.2.6.6v5.6c0,.3-.2.6-.6.6H.6c-.3,0-.6-.2-.6-.6v-5.6c0-.3.2-.6.6-.6Z"/>
          <path class="cls-2" d="M6.1,8.3h2.2c.3,0,.6.2.6.6v10c0,.3-.2.6-.6.6h-2.2c-.3,0-.6-.2-.6-.6v-10c0-.3.2-.6.6-.6Z"/>
          <path class="cls-2" d="M11.7,10.6h2.2c.3,0,.6.2.6.6v7.8c0,.3-.2.6-.6.6h-2.2c-.3,0-.6-.2-.6-.6v-7.8c0-.3.2-.6.6-.6Z"/>
          <path class="cls-2" d="M17.2,7.2h2.2c.3,0,.6.2.6.6v11.1c0,.3-.2.6-.6.6h-2.2c-.3,0-.6-.2-.6-.6V7.8c0-.3.2-.6.6-.6Z"/>
          <path class="cls-2" d="M18.3.6c-.9,0-1.7.7-1.7,1.7,0,.2,0,.4,0,.5l-2.8,1.7c-.4-.4-.9-.6-1.4-.5-.5,0-1,.4-1.2.9l-2.5-1.2c0,0,0-.1,0-.2,0-.7-.4-1.3-1-1.5-.6-.3-1.3-.1-1.8.4-.5.5-.6,1.2-.4,1.8l-3.2,2.4c-.3-.2-.5-.2-.8-.2-.9,0-1.7.7-1.7,1.7s.7,1.7,1.7,1.7,1.7-.7,1.7-1.7c0-.2,0-.4-.1-.6l3.2-2.4c.6.4,1.4.2,1.9-.3l2.8,1.4c.2.8,1,1.4,1.8,1.3.8,0,1.5-.8,1.5-1.7,0,0,0,0,0-.1l3-1.8c.3.2.6.3.9.3.9,0,1.7-.7,1.7-1.7s-.7-1.7-1.7-1.7Z"/>
        </g>
      </g>
    </g>
  </g>
</svg>
