<?xml version="1.0" encoding="UTF-8"?>
<svg xmlns="http://www.w3.org/2000/svg" version="1.1" viewBox="0 0 60 60">
  <defs>
    <style>
      .cls-1 {
        fill: #e54f38;
      }
    </style>
  </defs>
  <!-- Generator: Adobe Illustrator 28.6.0, SVG Export Plug-In . SVG Version: 1.2.0 Build 709)  -->
  <g>
    <g id="Layer_1">
      <g>
        <path class="cls-1" d="M58.8,31.6c-.2,1.1-.3,2.3-.5,3.4-.8,4.6-2.7,8.8-5.6,12.5-.7.9-1.8,1-2.7.2-1.5-1.5-3.1-3.1-4.6-4.6-.8-.8-.9-1.6-.2-2.5,1.7-2.5,2.9-5.2,3.2-8.2.8-7.8-2.1-13.9-8.6-18.3-2-1.4-4.3-2.2-6.7-2.6-1.1-.2-1.6-.8-1.6-1.9,0-2,0-4.1,0-6.1,0-1,.3-1.8,1.2-2.2.3,0,.7,0,1,0,0,0,.2,0,.2.1,7,1,12.8,4.2,17.5,9.5,3.6,4.1,5.9,8.8,6.8,14.2.2,1.1.3,2.1.4,3.2v3.4Z"/>
        <path class="cls-1" d="M27,1.2c.9.4,1.3,1.2,1.2,2.2,0,2,0,4,0,6,0,1.2-.5,1.8-1.7,2-7.9,1.7-12.9,6.5-15,14.4,0,.3-.1.6-.2.9-.2.9-.8,1.4-1.7,1.4-2.3,0-4.5,0-6.8,0-1.1,0-1.8-.9-1.7-2C2.7,14.3,11.5,4.5,23.3,1.7c.9-.2,1.8-.4,2.7-.6.3,0,.7,0,1,0Z"/>
        <path class="cls-1" d="M6.3,31.6c1.1,0,2.2,0,3.3,0,1.1,0,1.7.5,1.9,1.6,1.4,6.8,5.2,11.7,11.7,14.2,6,2.4,11.8,1.6,17.3-1.9,1.3-.8,1.9-.8,2.9.3,1.4,1.4,2.9,2.9,4.3,4.3,1,1,1,2.1-.2,2.9-5.5,4.2-11.8,6.1-18.7,5.9-13.3-.5-24.7-10.4-27.2-23.4-.1-.6-.2-1.2-.3-1.8-.2-1.1.6-2,1.7-2,1.1,0,2.3,0,3.4,0Z"/>
        <path class="cls-1" d="M32.6,39.7h-5.6c0-.2,0-.4,0-.6,0-6.3,0-12.5,0-18.8,0-1.3.6-2,2-2,.7,0,1.3,0,2,0,.9,0,1.6.7,1.6,1.7,0,6.5,0,13,0,19.5,0,0,0,.1,0,.2Z"/>
        <path class="cls-1" d="M36.1,39.7v-16.8c.1,0,.2,0,.4,0,1.2,0,2.3,0,3.5,0,1,0,1.7.7,1.7,1.7,0,4.5,0,9,0,13.4,0,.9-.7,1.7-1.6,1.7-1.3,0-2.6,0-4,0Z"/>
        <path class="cls-1" d="M23.7,39.7c-1.4,0-2.7,0-4,0-.9,0-1.6-.7-1.6-1.6,0-3,0-6.1,0-9.1,0-.9.7-1.6,1.5-1.6,1.3,0,2.7,0,4.1,0v12.4Z"/>
      </g>
    </g>
  </g>
</svg>
