<?xml version="1.0" encoding="UTF-8"?>
<svg xmlns="http://www.w3.org/2000/svg" version="1.1" viewBox="0 0 60 60">
  <defs>
    <style>
      .cls-1 {
        fill: #f8595f;
      }
    </style>
  </defs>
  <!-- Generator: Adobe Illustrator 28.6.0, SVG Export Plug-In . SVG Version: 1.2.0 Build 709)  -->
  <g>
    <g id="Layer_1">
      <g>
        <path class="cls-1" d="M59.6,31.2v-2.1c0-.2-.1-.5-.2-.7-.9-5.3-1.8-10.6-2.7-15.9-.8-4.7-4.8-8.2-9.6-8.3-5.3,0-10.5,0-15.8.9-4.1.7-8.1,1.7-11.9,3.4-.3.1-.5.3-.5.7,0,9.9,0,19.7,0,29.6,0,.4.1.5.4.7,1.1.8,2.2,1.7,3.3,2.6,1.6,1.4,3,2.9,4.1,4.8,1.1,1.8,1.6,3.7,1.6,5.8,0,1.7,0,3.4.6,5,.5,1.4,1.4,2,2.9,2.1,1.7,0,3.2-.6,4.5-1.6,2.6-1.9,3.6-4.6,3.7-7.7,0-3.5-.4-6.8-1.7-10.1,0,0,0-.2,0-.3.3,0,.5,0,.7,0,3.8,0,7.5,0,11.3,0,4.4,0,8.3-3.4,9.2-7.7,0-.4.2-.7.2-1.1Z"/>
        <path class="cls-1" d="M15.2,23.4c0-4.6,0-9.2,0-13.9,0-2.8-1.8-4.6-4.6-4.6-1.8,0-3.7,0-5.5,0-2.8,0-4.6,1.8-4.6,4.6,0,9.2,0,18.5,0,27.7,0,2.8,1.8,4.6,4.6,4.6,1.8,0,3.7,0,5.5,0,2.8,0,4.6-1.8,4.6-4.6,0-4.6,0-9.2,0-13.9Z"/>
      </g>
    </g>
  </g>
</svg>
