<svg width="4" height="18" viewBox="0 0 4 18" fill="none" xmlns="http://www.w3.org/2000/svg">
<path d="M2.2087 0C1.36936 0 0.682617 0.675 0.682617 1.5C0.682617 2.325 1.36936 3 2.2087 3C3.04805 3 3.73479 2.325 3.73479 1.5C3.73479 0.675 3.04805 0 2.2087 0ZM2.2087 15C1.36936 15 0.682617 15.675 0.682617 16.5C0.682617 17.325 1.36936 18 2.2087 18C3.04805 18 3.73479 17.325 3.73479 16.5C3.73479 15.675 3.04805 15 2.2087 15ZM2.2087 7.5C1.36936 7.5 0.682617 8.175 0.682617 9C0.682617 9.825 1.36936 10.5 2.2087 10.5C3.04805 10.5 3.73479 9.825 3.73479 9C3.73479 8.175 3.04805 7.5 2.2087 7.5Z" fill="black"/>
</svg>
