<?xml version="1.0" encoding="UTF-8"?>
<svg xmlns="http://www.w3.org/2000/svg" version="1.1" viewBox="0 0 60 60">
  <!-- Generator: Adobe Illustrator 28.6.0, SVG Export Plug-In . SVG Version: 1.2.0 Build 709)  -->
  <g>
    <g id="Layer_1">
      <path d="M30.6,60c-6,0-11.4-.6-16.6-2.3-5.5-1.7-9.5-5.2-11.4-10.7-.4-1.3-.9-2.6-1.2-3.9C-.2,36-.4,28.9.6,21.7c.4-3.1,1.1-6.1,2.2-9.1,1.8-5.1,5.4-8.3,10.4-10.1,3.8-1.3,7.7-2,11.7-2.4,5.9-.5,11.8-.2,17.5,1.1,1.7.4,3.3.9,4.9,1.5,5.1,1.8,8.3,5.4,10.1,10.4,1.3,3.8,2,7.6,2.3,11.6.5,6.2.2,12.3-1.2,18.3-.4,1.6-.9,3.1-1.5,4.6-1.9,5.1-5.6,8.2-10.6,9.9-3.8,1.3-7.8,1.9-11.8,2.2-1.6.1-3.1.2-4.1.2ZM27,28.7c-1.4-1.4-2.6-2.6-3.9-3.8-1.2-1.2-3-1.2-4.2,0-1.2,1.2-1.2,3,0,4.2,3,3.1,6,6.1,9.1,9.1,1.2,1.2,2.9,1.2,4.1,0,3.1-3,6.1-6,9.1-9.1,1.2-1.2,1.1-3.1,0-4.2-1.2-1.2-3-1.2-4.2,0-1.1,1.1-2.2,2.2-3.3,3.3-.2.2-.3.3-.6.6,0-.4,0-.6,0-.9,0-4.2,0-8.4,0-12.6,0-1.5-.8-2.6-2-3-2-.6-3.9.8-3.9,2.9,0,4.2,0,8.5,0,12.7,0,.2,0,.5,0,.9ZM30,48c1.9,0,3.9,0,5.8,0,1.8,0,3.1-1.3,3.2-3,0-1.7-1.3-3-3.1-3-3.9,0-7.9,0-11.8,0-1.8,0-3.1,1.3-3.1,3,0,1.7,1.4,3,3.2,3,1.9,0,3.9,0,5.8,0Z"/>
    </g>
  </g>
</svg>
