<?xml version="1.0" encoding="UTF-8"?>
<svg xmlns="http://www.w3.org/2000/svg" version="1.1" viewBox="0 0 60 60">
  <defs>
    <style>
      .cls-1 {
        fill: #191919;
      }
    </style>
  </defs>
  <!-- Generator: Adobe Illustrator 28.6.0, SVG Export Plug-In . SVG Version: 1.2.0 Build 709)  -->
  <g>
    <g id="Layer_1">
      <path class="cls-1" d="M3.3,31.6c0-1,0-2.1,0-3.1,0-.1,0-.3,0-.4.3-3.7,1.2-7.3,3.1-10.5C11.4,8.7,18.9,4,28.9,3.4c4.8-.3,9.4.7,13.6,3.1,8.8,4.9,13.6,12.4,14.2,22.4.3,4.8-.8,9.4-3.1,13.6-4.1,7.5-10.5,12.1-18.9,13.8-1,.2-2.1.3-3.1.4h-3.1c-.1,0-.3,0-.4,0-3.3-.2-6.4-1-9.4-2.4-8.2-4-13.2-10.5-15-19.5-.2-1-.3-2.1-.4-3.1ZM15.1,26.6c5,5,9.9,10,14.9,15,5-5,9.9-10,14.9-15-.7-.7-1.6-1.5-2.5-2.4-4.1,4.2-8.3,8.3-12.5,12.6-4.2-4.2-8.3-8.4-12.5-12.6-.8.8-1.6,1.6-2.4,2.4Z"/>
    </g>
  </g>
</svg>
