<svg width="24" height="24" viewBox="0 0 24 24" fill="none" xmlns="http://www.w3.org/2000/svg">
<path fill-rule="evenodd" clip-rule="evenodd" d="M14.3109 2C14.6341 2 14.9525 2.07832 15.2388 2.22827C15.5251 2.37822 15.7708 2.59533 15.9549 2.861L16.0429 3L21.8159 13C21.9763 13.2779 22.0675 13.5904 22.0818 13.911C22.0961 14.2316 22.033 14.5509 21.8979 14.842L21.8159 15L19.5059 19C19.3443 19.2798 19.1174 19.5162 18.8445 19.6892C18.5716 19.8621 18.2609 19.9664 17.9389 19.993L17.7749 20H6.22788C5.90451 20.0002 5.58591 19.9219 5.29941 19.772C5.01291 19.622 4.76704 19.4048 4.58288 19.139L4.49588 19L2.18588 15C2.02543 14.7221 1.93422 14.4096 1.91995 14.089C1.90568 13.7684 1.96876 13.4491 2.10388 13.158L2.18588 13L7.96088 3C8.12254 2.72009 8.34964 2.48354 8.62272 2.3106C8.8958 2.13766 9.20673 2.03349 9.52888 2.007L9.69188 2H14.3109ZM19.5069 15H9.11388L7.38188 18H17.7749L19.5069 15ZM9.11488 5L3.91788 14L5.64988 17L10.8459 8L9.11488 5ZM14.3109 4H10.8469L16.0429 13H19.5069L14.3109 4ZM12.0009 10L10.2689 13H13.7329L12.0009 10Z" fill="black" fill-opacity="0.878431"/>
</svg>
