<?xml version="1.0" encoding="UTF-8"?>
<svg xmlns="http://www.w3.org/2000/svg" version="1.1" viewBox="0 0 60 60">
  <defs>
    <style>
      .cls-1 {
        fill: #fec007;
      }
    </style>
  </defs>
  <!-- Generator: Adobe Illustrator 28.6.0, SVG Export Plug-In . SVG Version: 1.2.0 Build 709)  -->
  <g>
    <g id="Layer_1">
      <path class="cls-1" d="M1.1,23.5c.2-.3.3-.6.5-.9.6-1.1,1.7-1.4,2.9-1.5,5.2-.5,10.4-.9,15.6-1.4.5,0,.7-.2.9-.6,2.1-4.9,4.2-9.8,6.2-14.6.6-1.3,1.5-2.1,3-2.1,1.4,0,2.4.8,2.9,2.1,2.1,4.8,4.1,9.7,6.2,14.5.2.5.5.7,1.1.8,5.3.5,10.6,1,16,1.4,1.3.1,2.2.9,2.6,2.2.4,1.2,0,2.4-.9,3.2-3.4,3-6.8,5.9-10.1,8.9-.7.6-1.4,1.2-2.1,1.9-.2.2-.3.4-.2.7,1.2,5.2,2.4,10.5,3.6,15.7.3,1.4,0,2.7-1.1,3.4-1.2.8-2.4.8-3.6,0-4.6-2.7-9.1-5.5-13.7-8.2-.4-.2-.6-.2-1,0-4.6,2.7-9.1,5.4-13.7,8.2-2.1,1.3-4.2.1-4.7-1.7-.2-.6-.1-1.2,0-1.7,1.2-5.2,2.4-10.4,3.6-15.6.1-.5,0-.8-.4-1.1-4-3.5-7.9-7-11.9-10.4-.6-.5-1-1.2-1.3-1.9v-1.2Z"/>
    </g>
  </g>
</svg>
