<svg width="24" height="24" viewBox="0 0 24 24" fill="none" xmlns="http://www.w3.org/2000/svg">
<path d="M14.5 18C13.8 18 13.2083 17.7583 12.725 17.275C12.2417 16.7917 12 16.2 12 15.5C12 14.8 12.2417 14.2083 12.725 13.725C13.2083 13.2417 13.8 13 14.5 13C15.2 13 15.7917 13.2417 16.275 13.725C16.7583 14.2083 17 14.8 17 15.5C17 16.2 16.7583 16.7917 16.275 17.275C15.7917 17.7583 15.2 18 14.5 18ZM5 22C4.45 22 3.97933 21.8043 3.588 21.413C3.19667 21.0217 3.00067 20.5507 3 20V6C3 5.45 3.196 4.97933 3.588 4.588C3.98 4.19667 4.45067 4.00067 5 4H6V2H8V4H16V2H18V4H19C19.55 4 20.021 4.196 20.413 4.588C20.805 4.98 21.0007 5.45067 21 6V20C21 20.55 20.8043 21.021 20.413 21.413C20.0217 21.805 19.5507 22.0007 19 22H5ZM5 20H19V10H5V20ZM5 8H19V6H5V8Z" fill="#1E1E1E"/>
</svg>
