<svg width="21" height="13" viewBox="0 0 21 13" fill="none" xmlns="http://www.w3.org/2000/svg">
<path d="M1.5 7.54004C5.1 -0.459961 15.9 -0.459961 19.5 7.54004" stroke="black" stroke-opacity="0.878431" stroke-width="1.5" stroke-linecap="round" stroke-linejoin="round"/>
<path d="M10.5 11.54C10.106 11.54 9.71593 11.4624 9.35195 11.3117C8.98797 11.1609 8.65726 10.9399 8.37868 10.6614C8.1001 10.3828 7.87913 10.0521 7.72836 9.68809C7.5776 9.32411 7.5 8.934 7.5 8.54004C7.5 8.14607 7.5776 7.75597 7.72836 7.39199C7.87913 7.02801 8.1001 6.69729 8.37868 6.41872C8.65726 6.14014 8.98797 5.91916 9.35195 5.7684C9.71593 5.61764 10.106 5.54004 10.5 5.54004C11.2956 5.54004 12.0587 5.85611 12.6213 6.41872C13.1839 6.98133 13.5 7.74439 13.5 8.54004C13.5 9.33569 13.1839 10.0988 12.6213 10.6614C12.0587 11.224 11.2956 11.54 10.5 11.54Z" stroke="black" stroke-opacity="0.878431" stroke-width="1.5" stroke-linecap="round" stroke-linejoin="round"/>
</svg>
