<?xml version="1.0" encoding="UTF-8"?>
<svg xmlns="http://www.w3.org/2000/svg" version="1.1" viewBox="0 0 60 60">
  <!-- Generator: Adobe Illustrator 28.6.0, SVG Export Plug-In . SVG Version: 1.2.0 Build 709)  -->
  <g>
    <g id="Layer_1">
      <g>
        <path d="M59.4,30.5c-.6.9-1.2,1.8-1.8,2.7-3.7,4.5-8,8.2-13.2,10.9-3.6,1.8-7.3,3-11.3,3.3-7.7.7-14.7-1.3-21.2-5.6-4.2-2.8-7.6-6.3-10.7-10.2-.7-1-.7-2,0-3,3.5-4.6,7.6-8.5,12.6-11.4,4.1-2.4,8.5-4,13.3-4.4,7-.7,13.4,1,19.4,4.5,4.9,2.9,9,6.8,12.4,11.4.2.3.4.7.5,1v.9ZM30.1,42.3c6.9-.1,12.3-5.7,12.2-12.7,0-6.6-5.8-12.1-12.4-12-7,.1-12.3,5.6-12.3,12.7,0,6.6,5.8,12.1,12.5,12Z"/>
        <path d="M36.7,30c0,3.7-3.1,6.7-6.8,6.6-3.6,0-6.5-3-6.5-6.7,0-3.7,3.1-6.6,6.8-6.6,3.6,0,6.5,3.1,6.5,6.7Z"/>
      </g>
    </g>
  </g>
</svg>
