<?xml version="1.0" encoding="UTF-8"?>
<svg xmlns="http://www.w3.org/2000/svg" version="1.1" viewBox="0 0 60 60">
  <defs>
    <style>
      .cls-1 {
        fill: #fff;
      }
    </style>
  </defs>
  <!-- Generator: Adobe Illustrator 28.6.0, SVG Export Plug-In . SVG Version: 1.2.0 Build 709)  -->
  <g>
    <g id="Layer_1">
      <path class="cls-1" d="M30,.5c7.2,0,14.4,0,21.6,0,2.9,0,5.1,1.4,6.4,4,1.3,2.7,1.1,5.4-.8,7.7-2.2,2.7-4.5,5.4-6.8,8-3.4,4-6.9,8-10.3,12-.8.9-1.1,1.9-1.1,3.1,0,4.8,0,9.6,0,14.5,0,2.8-1.2,4.8-3.7,6-2,1-4,2-5.9,3-4.2,2-8.5-.6-8.5-5.3,0-5.9,0-11.9,0-17.8,0-1.5-.4-2.6-1.4-3.7-5.5-6.4-11.1-12.9-16.6-19.4C-.7,8.4,1.4,2,6.8.7c.7-.2,1.5-.2,2.2-.2,7,0,14,0,21,0,0,0,0,0,0,0ZM30,5.5c-7,0-14.1,0-21.1,0-1.1,0-2.1.3-2.6,1.4-.5,1.1,0,2,.6,2.8,5.4,6.3,10.8,12.7,16.3,19,1.8,2.1,2.7,4.5,2.7,7.3,0,5.8,0,11.6,0,17.4,0,1.2.5,1.5,1.6,1,1.9-1,3.8-1.9,5.7-2.9.7-.3,1-.8.9-1.6,0-4.8,0-9.6,0-14.4,0-2.4.7-4.6,2.3-6.4,3.8-4.4,7.5-8.8,11.3-13.2,1.8-2.1,3.6-4.2,5.4-6.3.7-.8,1-1.7.5-2.8-.5-1-1.4-1.4-2.5-1.4-.2,0-.4,0-.5,0-6.9,0-13.8,0-20.6,0Z"/>
    </g>
  </g>
</svg>
