<svg width="15" height="16" viewBox="0 0 15 16" fill="none" xmlns="http://www.w3.org/2000/svg">
<path fill-rule="evenodd" clip-rule="evenodd" d="M0 8C0 3.85775 3.35775 0.5 7.5 0.5C11.6423 0.5 15 3.85775 15 8C15 12.1423 11.6423 15.5 7.5 15.5C3.35775 15.5 0 12.1423 0 8ZM7.5 2C5.9087 2 4.38258 2.63214 3.25736 3.75736C2.13214 4.88258 1.5 6.4087 1.5 8C1.5 9.5913 2.13214 11.1174 3.25736 12.2426C4.38258 13.3679 5.9087 14 7.5 14C9.0913 14 10.6174 13.3679 11.7426 12.2426C12.8679 11.1174 13.5 9.5913 13.5 8C13.5 6.4087 12.8679 4.88258 11.7426 3.75736C10.6174 2.63214 9.0913 2 7.5 2Z" fill="#34C759"/>
<path fill-rule="evenodd" clip-rule="evenodd" d="M8.25 4.25146C8.25 4.05255 8.17098 3.86179 8.03033 3.72113C7.88968 3.58048 7.69891 3.50146 7.5 3.50146C7.30109 3.50146 7.11032 3.58048 6.96967 3.72113C6.82902 3.86179 6.75 4.05255 6.75 4.25146V7.25146H3.75C3.55109 7.25146 3.36032 7.33048 3.21967 7.47113C3.07902 7.61179 3 7.80255 3 8.00146C3 8.20038 3.07902 8.39114 3.21967 8.53179C3.36032 8.67245 3.55109 8.75146 3.75 8.75146H6.75V11.7515C6.75 11.9504 6.82902 12.1411 6.96967 12.2818C7.11032 12.4224 7.30109 12.5015 7.5 12.5015C7.69891 12.5015 7.88968 12.4224 8.03033 12.2818C8.17098 12.1411 8.25 11.9504 8.25 11.7515V8.75146H11.25C11.4489 8.75146 11.6397 8.67245 11.7803 8.53179C11.921 8.39114 12 8.20038 12 8.00146C12 7.80255 11.921 7.61179 11.7803 7.47113C11.6397 7.33048 11.4489 7.25146 11.25 7.25146H8.25V4.25146Z" fill="#34C759"/>
</svg>
