<?xml version="1.0" encoding="UTF-8"?>
<svg xmlns="http://www.w3.org/2000/svg" version="1.1" viewBox="0 0 60 60">
  <defs>
    <style>
      .cls-1 {
        fill: #787878;
      }
    </style>
  </defs>
  <!-- Generator: Adobe Illustrator 28.6.0, SVG Export Plug-In . SVG Version: 1.2.0 Build 709)  -->
  <g>
    <g id="Layer_1">
      <g>
        <path class="cls-1" d="M21.8,30c0-8.7,0-17.4,0-26.1,0-1.8.7-2.5,2.5-2.5,3.8,0,7.7,0,11.5,0,1.6,0,2.4.8,2.4,2.4,0,17.5,0,35,0,52.4,0,1.6-.8,2.4-2.4,2.4-3.9,0-7.7,0-11.6,0-1.6,0-2.3-.8-2.3-2.4,0-8.7,0-17.5,0-26.2Z"/>
        <path class="cls-1" d="M42.3,38.2c0-6,0-12,0-18,0-1.7.7-2.4,2.5-2.4,3.9,0,7.7,0,11.6,0,1.5,0,2.3.8,2.3,2.3,0,12.1,0,24.2,0,36.3,0,1.5-.8,2.3-2.3,2.3-3.9,0-7.8,0-11.8,0-1.5,0-2.3-.8-2.3-2.3,0-6,0-12.1,0-18.1Z"/>
        <path class="cls-1" d="M17.7,46.4c0,3.3,0,6.6,0,9.9,0,1.6-.8,2.4-2.4,2.4-3.9,0-7.7,0-11.6,0-1.6,0-2.4-.8-2.4-2.3,0-6.6,0-13.2,0-19.9,0-1.5.8-2.3,2.3-2.3,3.9,0,7.8,0,11.7,0,1.5,0,2.3.8,2.3,2.3,0,3.3,0,6.6,0,10Z"/>
      </g>
    </g>
  </g>
</svg>
