<?xml version="1.0" encoding="UTF-8"?>
<svg xmlns="http://www.w3.org/2000/svg" version="1.1" viewBox="0 0 60 60">
  <defs>
    <style>
      .cls-1 {
        fill: #e54f38;
      }
    </style>
  </defs>
  <!-- Generator: Adobe Illustrator 28.6.0, SVG Export Plug-In . SVG Version: 1.2.0 Build 709)  -->
  <g>
    <g id="Layer_1">
      <g>
        <path class="cls-1" d="M0,40.4c.1-.7.2-1.3.4-2,.2-1.2,1-1.9,2.2-2.1,3-.5,4.9-2.8,4.6-5.8,0-.4-.2-.8-.3-1.1-.3-1,0-2,.8-2.6,1.6-1.4,3.4-2.4,5.4-3.2,1-.4,1.9-.1,2.6.8,1.6,1.8,4,2.3,6.1,1.2.5-.3,1-.8,1.5-1.2.9-.9,1.7-1.1,2.9-.7,1.9.8,3.7,1.9,5.3,3.2.9.8,1.2,1.7.9,2.9-.9,3,.9,6,4,6.6,1.4.3,2,.9,2.3,2.3.4,2,.4,3.9,0,5.9-.3,1.3-.9,1.9-2.2,2.2-2.9.6-4.6,2.8-4.4,5.7,0,.4.1.8.3,1.2.3,1.1,0,2-.7,2.7-1.5,1.4-3.3,2.5-5.2,3.3-1,.5-2,.2-2.8-.8-1.2-1.4-2.7-2.1-4.5-1.8-1.3.2-2.3.8-3.1,1.8-.4.6-.9,1-1.6,1.2h-.9c-2.1-.9-4-1.9-5.7-3.4-1.1-1-1.4-1.8-.9-3.2.4-1.2.4-2.5-.1-3.7-.8-1.7-2.1-2.8-4-3.1-1.5-.3-2.2-.9-2.5-2.4,0-.4-.1-.7-.2-1.1,0-.9,0-1.8,0-2.7ZM19.4,35.2c-3.5,0-6.5,2.9-6.5,6.4,0,3.5,2.9,6.5,6.4,6.5,3.6,0,6.6-2.8,6.6-6.4,0-3.6-2.9-6.5-6.5-6.6Z"/>
        <path class="cls-1" d="M60,15.7c0,.5-.2.9-.2,1.4-.2,1-.8,1.6-1.8,1.8-2.7.5-4.2,2.9-3.4,5.5.3.9,0,1.6-.6,2.2-1.2,1.1-2.6,1.9-4.1,2.6-.8.4-1.6.2-2.2-.5-1.9-2.2-4.6-2.2-6.4,0-.6.8-1.3,1-2.2.6-1.6-.7-3.1-1.6-4.4-2.7-.7-.6-.9-1.4-.6-2.3.9-2.6-.5-5.1-3.3-5.6-1.2-.2-1.7-.7-1.9-1.9-.3-1.6-.2-3.1.1-4.7.2-1,.8-1.6,1.8-1.7,2.8-.4,4.3-3.1,3.5-5.5-.3-.8,0-1.6.6-2.2,1.3-1.1,2.7-1.9,4.3-2.5.8-.3,1.5-.2,2.1.5,1.5,2,4.7,2.1,6.3,0,.5-.7,1.3-.9,2.1-.5,1.6.6,3.1,1.5,4.4,2.7.8.6,1,1.4.7,2.4-.7,2.3.7,4.6,3,5.2,1.6.4,2,.8,2.2,2.5,0,.2,0,.5.1.7v2.1ZM44.4,19.9c2.9,0,5.2-2.3,5.2-5.2,0-2.9-2.4-5.3-5.3-5.3-2.8,0-5.2,2.4-5.2,5.2,0,2.9,2.3,5.2,5.2,5.2Z"/>
        <path class="cls-1" d="M60,45c-.6,1-1.1,1.9-1.8,2.9-.4.6-1,.7-1.7.4-1.7-.6-3.2.2-3.7,1.9-.2.6-.6,1-1.2,1-1,0-2.1,0-3.1,0-.6,0-.9-.4-1-1-.4-2.1-1.6-2.8-3.7-2.2-.6.2-1.1,0-1.4-.5-.5-1-1.1-2-1.5-3-.2-.5,0-1.1.4-1.5,1.5-1.3,1.5-3,0-4.4-.6-.5-.7-1-.4-1.7.5-.9,1.1-1.7,1.6-2.5.4-.6,1-.6,1.6-.4,1.8.7,3.3,0,3.9-1.9.2-.6.6-1,1.3-1,.9,0,1.9,0,2.8,0,.9,0,1.2.4,1.3,1.2.3,1.6,1.7,2.5,3.2,2,1-.3,1.3-.2,1.8.7.5.9,1,1.9,1.4,2.8v.8c-.2.2-.4.5-.6.7-1.1,1.1-1.1,2.8,0,3.9.2.3.4.5.7.8v.7ZM53.9,41.3c0-1.9-1.5-3.4-3.4-3.4-1.9,0-3.4,1.5-3.4,3.4,0,1.9,1.5,3.4,3.4,3.4,1.9,0,3.4-1.5,3.4-3.4Z"/>
      </g>
    </g>
  </g>
</svg>
