<?xml version="1.0" encoding="UTF-8"?>
<svg xmlns="http://www.w3.org/2000/svg" version="1.1" viewBox="0 0 21 21">
  <defs>
    <style>
      .cls-1 {
        fill: #444;
      }
    </style>
  </defs>
  <!-- Generator: Adobe Illustrator 28.6.0, SVG Export Plug-In . SVG Version: 1.2.0 Build 709)  -->
  <g>
    <g id="Layer_1">
      <g id="Layer_1-2" data-name="Layer_1">
        <path class="cls-1" d="M5.4,17.1c-.4,0-.7,0-1.1.3-.9.4-1.6.3-2.2-.5-.6-.7-1-1.5-1.4-2.4-.4-.9-.1-1.6.7-2.1,1.2-.8,1.4-2.5.3-3.5-.1-.1-.3-.2-.4-.3-.7-.5-1-1.2-.6-2,.4-.9.8-1.7,1.4-2.5.5-.7,1.3-.9,2.1-.5,1,.5,2,.3,2.7-.4.4-.4.6-.9.6-1.5,0-.9.5-1.5,1.4-1.6C9.9,0,10.8,0,11.8,0c.9,0,1.4.7,1.4,1.6s.6,1.8,1.5,2c.6.2,1.2,0,1.8-.2.4-.2.9-.3,1.3-.2.3,0,.6.3.8.5.6.8,1.1,1.6,1.5,2.6.3.8,0,1.5-.7,2-1.2.7-1.4,2.2-.6,3.3.2.2.4.4.6.5.8.5,1,1.2.7,2.1-.4.9-.8,1.6-1.4,2.4s-1.3,1-2.2.5c-1.2-.6-2.7,0-3.1,1.2,0,.2-.1.4-.1.6,0,.9-.5,1.5-1.5,1.7-1,.1-1.9.1-2.9,0-.9-.1-1.4-.7-1.4-1.6s-1-2.1-2.2-2.2v.2ZM13.6,10.6c0-1.7-1.3-3.1-3-3.2-1.7,0-3.1,1.3-3.2,3,0,1.7,1.3,3.1,3,3.2,1.7,0,3.1-1.3,3.2-3Z"/>
      </g>
    </g>
  </g>
</svg>
