<?xml version="1.0" encoding="UTF-8"?>
<svg xmlns="http://www.w3.org/2000/svg" version="1.1" viewBox="0 0 21 21">
  <defs>
    <style>
      .cls-1 {
        fill: #444;
      }

      .cls-2 {
        fill: #191919;
        font-family: MyriadPro-Regular, 'Myriad Pro';
        font-size: 12px;
      }
    </style>
  </defs>
  <!-- Generator: Adobe Illustrator 28.6.0, SVG Export Plug-In . SVG Version: 1.2.0 Build 709)  -->
  <g>
    <g id="Layer_1">
      <g>
        <path class="cls-1" d="M1,10.5c0-2.4,0-4.9,0-7.3,0-.3,0-.5,0-.8.1-.8.6-1.2,1.3-1.3.2,0,.4,0,.6,0,1.4,0,2.8,0,4.2,0,.2,0,.5,0,.7,0,.7.2,1.1.6,1.2,1.3,0,.2,0,.5,0,.7,0,4.9,0,9.9,0,14.8,0,.3,0,.6,0,.9-.1.6-.5,1-1.1,1.1-.2,0-.5,0-.7,0-1.4,0-2.8,0-4.3,0-.2,0-.4,0-.6,0-.8-.2-1.2-.7-1.3-1.5,0-.2,0-.4,0-.6,0-2.4,0-4.9,0-7.3Z"/>
        <path class="cls-1" d="M20,7.2c0,1.3,0,2.7,0,4,0,.2,0,.5,0,.7-.1.8-.6,1.2-1.4,1.3-.2,0-.5,0-.7,0-1.2,0-2.5,0-3.7,0-.3,0-.6,0-.9,0-.7-.1-1.1-.6-1.2-1.3,0-.2,0-.5,0-.7,0-2.7,0-5.4,0-8.2,0-.2,0-.5,0-.7.1-.7.6-1.2,1.3-1.3.2,0,.4,0,.6,0,1.4,0,2.8,0,4.1,0,.3,0,.6,0,.8.1.7.2,1.1.7,1.1,1.5,0,.9,0,1.8,0,2.7,0,.6,0,1.2,0,1.8Z"/>
      </g>
      <text class="cls-2" transform="translate(-287.2 -781.1)"><tspan x="0" y="0">&lt;div class=&quot;flex items-center gap-5&quot;&gt;</tspan><tspan x="0" y="14.4" xml:space="preserve">                  &lt;div class=&quot;flex items-center&quot;&gt;</tspan><tspan x="0" y="28.8" xml:space="preserve">                    &lt;button&gt;</tspan><tspan x="0" y="43.2" xml:space="preserve">                      &lt;img src=&quot;/assets/icons/l5.svg&quot; alt=&quot;&quot; width=&quot;18&quot; /&gt;</tspan><tspan x="0" y="57.6" xml:space="preserve">                    &lt;/button&gt;</tspan><tspan x="0" y="72" xml:space="preserve">                  &lt;/div&gt;</tspan><tspan x="0" y="100.8" xml:space="preserve">                  &lt;div class=&quot;flex items-center&quot;&gt;</tspan><tspan x="0" y="115.2" xml:space="preserve">                    &lt;button class=&quot;filtermenu&quot;&gt;</tspan><tspan x="0" y="129.6" xml:space="preserve">                      &lt;img src=&quot;/assets/icons/l4.svg&quot; alt=&quot;&quot; width=&quot;18&quot; /&gt;</tspan><tspan x="0" y="144" xml:space="preserve">                    &lt;/button&gt;</tspan><tspan x="0" y="158.4" xml:space="preserve">                  &lt;/div&gt;</tspan><tspan x="0" y="172.8" xml:space="preserve">                  &lt;div class=&quot;flex items-center&quot;&gt;</tspan><tspan x="0" y="187.2" xml:space="preserve">                    &lt;button class=&quot;filtermenu&quot; id=&quot;tableBtn&quot;&gt;</tspan><tspan x="0" y="201.6" xml:space="preserve">                      &lt;img src=&quot;/assets/icons/l3.svg&quot; alt=&quot;&quot; width=&quot;18&quot; /&gt;</tspan><tspan x="0" y="216" xml:space="preserve">                    &lt;/button&gt;</tspan><tspan x="0" y="230.4" xml:space="preserve">                  &lt;/div&gt;</tspan><tspan x="0" y="244.8" xml:space="preserve">                  &lt;div class=&quot;flex items-center&quot;&gt;</tspan><tspan x="0" y="259.2" xml:space="preserve">                    &lt;button class=&quot;filtermenu&quot; id=&quot;kanbanBtn&quot;&gt;</tspan><tspan x="0" y="273.6" xml:space="preserve">                      &lt;img src=&quot;/assets/icons/l2.svg&quot; alt=&quot;&quot; width=&quot;18&quot; /&gt;</tspan><tspan x="0" y="288" xml:space="preserve">                    &lt;/button&gt;</tspan><tspan x="0" y="302.4" xml:space="preserve">                  &lt;/div&gt;            </tspan><tspan x="0" y="316.8" xml:space="preserve">                  &lt;div class=&quot;flex items-center&quot;&gt;</tspan><tspan x="0" y="331.2" xml:space="preserve">                    &lt;button</tspan><tspan x="0" y="345.6" xml:space="preserve">                      id=&quot;dropdownDefaultButton&quot;</tspan><tspan x="0" y="360" xml:space="preserve">                      data-dropdown-toggle=&quot;dropdown&quot;</tspan><tspan x="0" y="374.4" xml:space="preserve">                      type=&quot;button&quot;</tspan><tspan x="0" y="388.8" xml:space="preserve">                    &gt;</tspan><tspan x="0" y="403.2" xml:space="preserve">                      &lt;img src=&quot;/assets/icons/l1.svg&quot; alt=&quot;&quot; width=&quot;18&quot; /&gt;</tspan><tspan x="0" y="417.6" xml:space="preserve">                    &lt;/button&gt;</tspan><tspan x="0" y="446.4" xml:space="preserve">                    &lt;div</tspan><tspan x="0" y="460.8" xml:space="preserve">                      id=&quot;dropdown&quot;</tspan><tspan x="0" y="475.2" xml:space="preserve">                      class=&quot;z-10 hidden bg-white rounded-lg [box-shadow:0px_0px_20px_0px_rgb(0_0_0_/_5%)] min-w-[160px]&quot;</tspan><tspan x="0" y="489.6" xml:space="preserve">                    &gt;</tspan><tspan x="0" y="504" xml:space="preserve">                      &lt;ul</tspan><tspan x="0" y="518.4" xml:space="preserve">                        class=&quot;text-sm&quot;</tspan><tspan x="0" y="532.8" xml:space="preserve">                        aria-labelledby=&quot;dropdownDefaultButton&quot;</tspan><tspan x="0" y="547.2" xml:space="preserve">                      &gt;</tspan><tspan x="0" y="561.6" xml:space="preserve">                        &lt;li&gt;</tspan><tspan x="0" y="576" xml:space="preserve">                          &lt;button</tspan><tspan x="0" y="590.4" xml:space="preserve">                            data-modal-target=&quot;default-modal1&quot;</tspan><tspan x="0" y="604.8" xml:space="preserve">                            data-modal-toggle=&quot;default-modal1&quot;</tspan><tspan x="0" y="619.2" xml:space="preserve">                            class=&quot;block px-4 py-2 hover:text-primary-600 transition duration-300 text-sm&quot;</tspan><tspan x="0" y="633.6" xml:space="preserve">                          &gt;</tspan><tspan x="0" y="648" xml:space="preserve">                            Kanban Settings</tspan><tspan x="0" y="662.4" xml:space="preserve">                          &lt;/button&gt;</tspan><tspan x="0" y="676.8" xml:space="preserve">                        &lt;/li&gt;</tspan><tspan x="0" y="691.2" xml:space="preserve">                        &lt;li&gt;</tspan><tspan x="0" y="705.6" xml:space="preserve">                          &lt;button</tspan><tspan x="0" y="720" xml:space="preserve">                            data-modal-target=&quot;default-modal&quot;</tspan><tspan x="0" y="734.4" xml:space="preserve">                            data-modal-toggle=&quot;default-modal&quot;</tspan><tspan x="0" y="748.8" xml:space="preserve">                            class=&quot;block px-4 py-2 hover:text-primary-600 transition duration-300 text-sm&quot;</tspan><tspan x="0" y="763.2" xml:space="preserve">                          &gt;</tspan><tspan x="0" y="777.6" xml:space="preserve">                            Add Columns to List</tspan><tspan x="0" y="792" xml:space="preserve">                          &lt;/button&gt;</tspan><tspan x="0" y="806.4" xml:space="preserve">                        &lt;/li&gt;</tspan><tspan x="0" y="820.8" xml:space="preserve">                        &lt;li&gt;</tspan><tspan x="0" y="835.2" xml:space="preserve">                          &lt;a</tspan><tspan x="0" y="849.6" xml:space="preserve">                            href=&quot;#&quot;</tspan><tspan x="0" y="864" xml:space="preserve">                            class=&quot;block px-4 py-2 hover:text-primary-600 transition duration-300 text-sm&quot;</tspan><tspan x="0" y="878.4" xml:space="preserve">                            &gt;Delete&lt;/a</tspan><tspan x="0" y="892.8" xml:space="preserve">                          &gt;</tspan><tspan x="0" y="907.2" xml:space="preserve">                        &lt;/li&gt;</tspan><tspan x="0" y="921.6" xml:space="preserve">                        &lt;li&gt;</tspan><tspan x="0" y="936" xml:space="preserve">                          &lt;button</tspan><tspan x="0" y="950.4" xml:space="preserve">                            data-modal-target=&quot;default-modal2&quot;</tspan><tspan x="0" y="964.8" xml:space="preserve">                            data-modal-toggle=&quot;default-modal2&quot;</tspan><tspan x="0" y="979.2" xml:space="preserve">                            class=&quot;block px-4 py-2 hover:text-primary-600 transition duration-300 text-sm&quot;</tspan><tspan x="0" y="993.6" xml:space="preserve">                          &gt;</tspan><tspan x="0" y="1008" xml:space="preserve">                            Export</tspan><tspan x="0" y="1022.4" xml:space="preserve">                          &lt;/button&gt;</tspan><tspan x="0" y="1036.8" xml:space="preserve">                        &lt;/li&gt;</tspan><tspan x="0" y="1051.2" xml:space="preserve">                        &lt;li&gt;</tspan><tspan x="0" y="1065.6" xml:space="preserve">                          &lt;a</tspan><tspan x="0" y="1080" xml:space="preserve">                            href=&quot;#&quot;</tspan><tspan x="0" y="1094.4" xml:space="preserve">                            class=&quot;block px-4 py-2 hover:text-primary-600 transition duration-300 text-sm&quot;</tspan><tspan x="0" y="1108.8" xml:space="preserve">                            &gt;Import&lt;/a</tspan><tspan x="0" y="1123.2" xml:space="preserve">                          &gt;</tspan><tspan x="0" y="1137.6" xml:space="preserve">                        &lt;/li&gt;</tspan><tspan x="0" y="1152" xml:space="preserve">                        &lt;li&gt;</tspan><tspan x="0" y="1166.4" xml:space="preserve">                          &lt;button</tspan><tspan x="0" y="1180.8" xml:space="preserve">                            data-modal-target=&quot;default-modal3&quot;</tspan><tspan x="0" y="1195.2" xml:space="preserve">                            data-modal-toggle=&quot;default-modal3&quot;</tspan><tspan x="0" y="1209.6" xml:space="preserve">                            class=&quot;block px-4 py-2 hover:text-primary-600 transition duration-300 text-sm&quot;</tspan><tspan x="0" y="1224" xml:space="preserve">                          &gt;</tspan><tspan x="0" y="1238.4" xml:space="preserve">                            Add to Campaign</tspan><tspan x="0" y="1252.8" xml:space="preserve">                          &lt;/button&gt;</tspan><tspan x="0" y="1267.2" xml:space="preserve">                        &lt;/li&gt;</tspan><tspan x="0" y="1281.6" xml:space="preserve">                        &lt;li&gt;</tspan><tspan x="0" y="1296" xml:space="preserve">                          &lt;button</tspan><tspan x="0" y="1310.4" xml:space="preserve">                            data-modal-target=&quot;default-modal4&quot;</tspan><tspan x="0" y="1324.8" xml:space="preserve">                            data-modal-toggle=&quot;default-modal4&quot;</tspan><tspan x="0" y="1339.2" xml:space="preserve">                            class=&quot;block px-4 py-2 hover:text-primary-600 transition duration-300 text-sm&quot;</tspan><tspan x="0" y="1353.6" xml:space="preserve">                          &gt;</tspan><tspan x="0" y="1368" xml:space="preserve">                            Change Owner</tspan><tspan x="0" y="1382.4" xml:space="preserve">                          &lt;/button&gt;</tspan><tspan x="0" y="1396.8" xml:space="preserve">                        &lt;/li&gt;</tspan><tspan x="0" y="1411.2" xml:space="preserve">                        &lt;li&gt;</tspan><tspan x="0" y="1425.6" xml:space="preserve">                          &lt;button</tspan><tspan x="0" y="1440" xml:space="preserve">                            data-modal-target=&quot;default-modal5&quot;</tspan><tspan x="0" y="1454.4" xml:space="preserve">                            data-modal-toggle=&quot;default-modal5&quot;</tspan><tspan x="0" y="1468.8" xml:space="preserve">                            class=&quot;block px-4 py-2 hover:text-primary-600 transition duration-300 text-sm&quot;</tspan><tspan x="0" y="1483.2" xml:space="preserve">                          &gt;</tspan><tspan x="0" y="1497.6" xml:space="preserve">                            Change Status</tspan><tspan x="0" y="1512" xml:space="preserve">                          &lt;/button&gt;</tspan><tspan x="0" y="1526.4" xml:space="preserve">                        &lt;/li&gt;</tspan><tspan x="0" y="1540.8" xml:space="preserve">                      &lt;/ul&gt;</tspan><tspan x="0" y="1555.2" xml:space="preserve">                    &lt;/div&gt;</tspan><tspan x="0" y="1569.6" xml:space="preserve">                  &lt;/div&gt;</tspan><tspan x="0" y="1584" xml:space="preserve">                &lt;/div&gt;</tspan></text>
    </g>
  </g>
</svg>
