<?xml version="1.0" encoding="UTF-8"?>
<svg xmlns="http://www.w3.org/2000/svg" version="1.1" viewBox="0 0 21 21">
  <defs>
    <style>
      .cls-1 {
        fill: #444;
      }
    </style>
  </defs>
  <!-- Generator: Adobe Illustrator 28.6.0, SVG Export Plug-In . SVG Version: 1.2.0 Build 709)  -->
  <g>
    <g id="Layer_1">
      <g>
        <path class="cls-1" d="M13.6,12.9c-1.8,0-3.6,0-5.4,0-.7,0-.9-.3-.9-.9,0-1,0-2,0-2.9,0-.6.3-.9.9-.9,3.6,0,7.2,0,10.9,0,.6,0,.9.3.9.9,0,1,0,2,0,3,0,.6-.3.9-.9.9-1.8,0-3.6,0-5.4,0Z"/>
        <path class="cls-1" d="M13.6,19.1c-1.8,0-3.6,0-5.4,0-.6,0-.9-.3-.9-.9,0-1,0-2,0-3,0-.6.3-.9.9-.9,2.4,0,4.9,0,7.3,0,1.1,0,2.3,0,3.4,0,.2,0,.5,0,.7.2.1.1.2.3.2.5,0,1.1,0,2.2,0,3.3,0,.5-.3.7-.8.7-1.8,0-3.7,0-5.5,0Z"/>
        <path class="cls-1" d="M13.6,6.6c-1.8,0-3.5,0-5.3,0-.1,0-.2,0-.3,0-.4,0-.6-.3-.6-.7,0-1.1,0-2.2,0-3.3,0-.4.3-.7.7-.7,0,0,0,0,.1,0,3.6,0,7.2,0,10.9,0,.3,0,.6,0,.7.3,0,.2.1.4.1.5,0,1,0,2,0,2.9,0,.6-.3.9-.9.9-1.7,0-3.4,0-5,0-.1,0-.2,0-.3,0Z"/>
        <path class="cls-1" d="M5.8,10.5c0,.5,0,1,0,1.5,0,.5-.3.8-.8.8-1,0-2,0-3.1,0-.5,0-.8-.3-.8-.8,0-1,0-2,0-3.1,0-.5.3-.8.8-.8,1,0,2,0,3.1,0,.5,0,.8.3.8.8,0,0,0,0,0,0,0,.5,0,1,0,1.5Z"/>
        <path class="cls-1" d="M5.8,4.2c0,.5,0,1,0,1.5,0,.5-.3.8-.8.8-1.1,0-2.1,0-3.2,0-.5,0-.8-.3-.8-.8,0-1,0-2.1,0-3.1,0-.5.3-.8.8-.8,1,0,2,0,3.1,0,.5,0,.8.3.8.8,0,.5,0,1,0,1.5Z"/>
        <path class="cls-1" d="M5.8,16.8c0,.5,0,1,0,1.5,0,.5-.3.8-.8.8-1,0-2,0-3.1,0-.5,0-.8-.3-.8-.8,0-1,0-2,0-3.1,0-.5.3-.8.8-.8,1,0,2.1,0,3.1,0,.5,0,.8.3.8.8,0,.5,0,1,0,1.5Z"/>
      </g>
    </g>
  </g>
</svg>
