<?xml version="1.0" encoding="UTF-8"?>
<svg xmlns="http://www.w3.org/2000/svg" version="1.1" viewBox="0 0 21 21">
  <defs>
    <style>
      .cls-1 {
        fill: #444;
      }
    </style>
  </defs>
  <!-- Generator: Adobe Illustrator 28.6.0, SVG Export Plug-In . SVG Version: 1.2.0 Build 709)  -->
  <g>
    <g id="Layer_1">
      <path class="cls-1" d="M10.5.6c2.8,0,5.5,0,8.3,0,1.3,0,2.3,1,2.2,2.3,0,.5-.2,1-.6,1.4-2.3,2.5-4.6,5.1-6.9,7.6-.2.2-.3.4-.3.7,0,1.3,0,2.6,0,3.9,0,.3-.1.6-.4.8-1.2,1-2.5,2-3.7,3-.1.1-.3.2-.4.2-.5.1-.9-.3-.9-.7,0-.4,0-.8,0-1.2,0-2,0-4,0-6,0-.2,0-.3-.2-.5C5.3,9.4,2.9,6.8.6,4.3-.5,3,0,1.1,1.6.7c.2,0,.5,0,.7,0,2.7,0,5.5,0,8.2,0Z"/>
    </g>
  </g>
</svg>
