<?xml version="1.0" encoding="UTF-8"?>
<svg xmlns="http://www.w3.org/2000/svg" version="1.1" viewBox="0 0 21 21">
  <defs>
    <style>
      .cls-1 {
        fill: #444;
      }
    </style>
  </defs>
  <!-- Generator: Adobe Illustrator 28.6.0, SVG Export Plug-In . SVG Version: 1.2.0 Build 709)  -->
  <g>
    <g id="Layer_1">
      <g>
        <path class="cls-1" d="M20.9,11.1c0,.4,0,.7-.2,1.1-.3,2-1.2,3.7-2.6,5.2,0,0,0,0-.1.2,0,0,.1,0,.2.1.6.6,1.1,1.1,1.7,1.7,0,0,.1.2,0,.2,0,0-.1.1-.2.2-.7.1-1.4.2-2.2.3-1.5.2-2.9.4-4.4.7,0,0,0,0-.1,0-.2,0-.3,0-.2-.3.1-.8.3-1.6.4-2.4.2-1.4.4-2.7.6-4.1,0,0,0-.1,0-.2,0,0,0-.2.2-.2,0,0,.2,0,.2,0,.6.6,1.2,1.2,1.8,1.8,1.4-1.3,2.5-3.9,1.9-6.7-.4-1.8-1.3-3.2-2.8-4.2-1.5-1.1-3.1-1.5-4.9-1.4.1-.9.3-1.9.4-2.8.7,0,1.3,0,2,.1,4.1.8,6.7,3.3,7.9,7.3.2.6.2,1.2.3,1.8,0,0,0,.1,0,.2v1.2Z"/>
        <path class="cls-1" d="M10.8,17.7c-.1.9-.3,1.9-.4,2.8-2.5.2-6.3-.9-8.6-4.5C-.6,12.4-.5,7,3,3.4c0,0-.1,0-.2-.1-.6-.6-1.1-1.1-1.7-1.7,0,0-.1-.2-.1-.2,0,0,.2-.1.2-.2C3.5.9,5.7.5,7.9.2c.3,0,.4,0,.3.3-.3,2.2-.7,4.3-1,6.5,0,0,0,0,0,.1,0,0,0,.2-.2.2,0,0-.2,0-.2,0-.5-.4-.9-.9-1.3-1.3-.2-.2-.3-.3-.5-.5-1.5,1.4-2.6,4.1-1.8,6.9.4,1.7,1.4,3.1,2.8,4.1,1.4,1,3.1,1.4,4.9,1.3Z"/>
      </g>
    </g>
  </g>
</svg>
