<svg width="25" height="24" viewBox="0 0 25 24" fill="none" xmlns="http://www.w3.org/2000/svg">
<path d="M13.5765 14.9719V17.3331C12.5287 16.9716 11.4074 16.8607 10.3066 17.0098C9.20584 17.1588 8.15778 17.5635 7.25045 18.1898C6.34312 18.816 5.60301 19.6456 5.09227 20.6089C4.58154 21.5721 4.31509 22.6409 4.3153 23.7255L2 23.7243C1.99964 22.3447 2.32289 20.9834 2.94499 19.7445C3.56708 18.5057 4.47151 17.4223 5.58897 16.5774C6.70643 15.7324 8.00726 15.1483 9.39178 14.8698C10.7763 14.5913 12.2078 14.627 13.5765 14.9719ZM11.2612 13.5574C7.42359 13.5574 4.3153 10.5239 4.3153 6.7787C4.3153 3.03347 7.42359 0 11.2612 0C15.0988 0 18.2071 3.03347 18.2071 6.7787C18.2071 10.5239 15.0988 13.5574 11.2612 13.5574ZM11.2612 11.2978C13.8196 11.2978 15.8918 9.27553 15.8918 6.7787C15.8918 4.28188 13.8196 2.25957 11.2612 2.25957C8.7028 2.25957 6.6306 4.28188 6.6306 6.7787C6.6306 9.27553 8.7028 11.2978 11.2612 11.2978ZM19.8487 18.0765H24V20.3361H19.8487L21.966 22.4014L20.3291 24L15.4172 19.2063L20.3291 14.4127L21.966 16.0113L19.8487 18.0765Z" fill="#38BDF8"/>
</svg>
