<?xml version="1.0" encoding="UTF-8"?>
<svg xmlns="http://www.w3.org/2000/svg" version="1.1" viewBox="0 0 60 60">
  <defs>
    <style>
      .cls-1 {
        fill: #fff;
      }
    </style>
  </defs>
  <!-- Generator: Adobe Illustrator 28.6.0, SVG Export Plug-In . SVG Version: 1.2.0 Build 709)  -->
  <g>
    <g id="Layer_1">
      <g>
        <path class="cls-1" d="M24.4,0c1.1,0,2.3,0,3.4,0,.1,0,.3,0,.4.1,2.1.2,4.2.6,6.2,1.3,16.3,5.5,22.8,24.9,13.3,39.2-.1.2-.2.3-.3.5,1.7,1.2,3.4,2.3,5.1,3.5,2.3,1.6,4.6,3.2,6.4,5.4.3.4.6.8.7,1.2.8,2.2.3,4.1-1.2,5.8-.3.4-.7.7-1.1,1.1-2.6,2.6-5.7,2.6-8.3,0-2.4-2.4-4.2-5.2-6.1-8-.6-.9-1.2-1.8-1.8-2.7-.2.1-.4.2-.6.4-3.7,2.5-7.8,3.9-12.2,4.3-6.9.5-13.1-1.3-18.6-5.7C4.7,42.3,1.7,37.1.5,30.8.3,29.8.2,28.8,0,27.8c0-1.1,0-2.3,0-3.4,0-.7.2-1.5.3-2.2.8-5.1,2.8-9.5,6.2-13.4C10.5,4.4,15.4,1.6,21.3.5c1-.2,2.1-.3,3.1-.5ZM45.3,26.1c0-10.7-8.7-19.3-19.4-19.3-10.6,0-19.2,8.7-19.1,19.4,0,10.5,8.8,19.2,19.3,19.1,10.7,0,19.2-8.7,19.2-19.2Z"/>
        <path class="cls-1" d="M26.2,30.2c2.6.1,5.4.2,8.2.4,2.5.2,4.4,2.5,4.2,5,0,.2-.1.4-.2.5-5.8,7.4-17.3,8-23.9,1.1-.1-.1-.3-.3-.4-.4-.9-.7-.9-1.6-.7-2.7.5-1.9,2.1-3.4,4.1-3.5,2.8-.2,5.6-.2,8.6-.4Z"/>
        <path class="cls-1" d="M33.7,20.9c0,4.3-3.6,7.6-7.8,7.6-4.3,0-7.6-3.6-7.5-7.9,0-4.1,3.6-7.5,7.7-7.4,4.2,0,7.6,3.6,7.6,7.7Z"/>
      </g>
    </g>
  </g>
</svg>
