<?xml version="1.0" encoding="UTF-8"?>
<svg xmlns="http://www.w3.org/2000/svg" version="1.1" viewBox="0 0 60 60">
  <defs>
    <style>
      .cls-1 {
        fill: #e54f38;
      }
    </style>
  </defs>
  <!-- Generator: Adobe Illustrator 28.6.0, SVG Export Plug-In . SVG Version: 1.2.0 Build 709)  -->
  <g>
    <g id="Layer_1">
      <g>
        <path class="cls-1" d="M.3,35.1c0-.4.2-.7.3-1.1.9-3.3,3.8-5.7,7.2-5.7,1.7,0,3.4,0,5.1.3,1.1.1,2.1.7,2.9,1.5-.1.2-.3.3-.4.4-2.5,2.6-3.9,5.8-4.4,9.4-.4,2.9-.3,5.9-.3,8.8,0,1.1,0,2.2,0,3.4-.3,0-.5,0-.8,0-2,0-4.1,0-6.1,0-1.8,0-2.9-.9-3.5-2.6,0,0,0,0,0-.1,0-4.8,0-9.5,0-14.3Z"/>
        <path class="cls-1" d="M29.3,55.8c-3.5,0-6.9,0-10.4,0-.7,0-1.4,0-2-.3-1.6-.6-2.5-1.9-2.6-3.6,0-3.3-.1-6.6,0-9.9.2-5.3,2.5-9.4,7.2-12,1.9-1.1,4-1.6,6.2-1.8,2.5-.2,5-.2,7.5.4,5.3,1.3,9.9,6.5,10.3,12,.3,3.8.1,7.7.1,11.5,0,.5-.2,1-.4,1.5-.4,1.1-1.2,1.7-2.3,1.8-2,.2-3.9.3-5.9.4-2.5,0-5.1,0-7.6,0,0,0,0,0,0,0Z"/>
        <path class="cls-1" d="M30,4.1c5.6,0,10.1,4.5,10.1,10.1,0,5.6-4.5,10.1-10.1,10.1-5.5,0-10.1-4.5-10.1-10.1,0-5.6,4.5-10.1,10.1-10.1Z"/>
        <path class="cls-1" d="M49.1,52c0-.2,0-.4,0-.6,0-3,0-5.9,0-8.9,0-3.9-1-7.5-3.4-10.7-.5-.6-1-1.2-1.5-1.8,1.2-1,2.5-1.6,4.1-1.7,1.8-.1,3.7-.3,5.5.2,3.5.9,5.9,4,5.9,7.5,0,4.2,0,8.3,0,12.5,0,2-1.3,3.5-3.3,3.6-2.3.1-4.6,0-6.8,0-.1,0-.3,0-.4,0Z"/>
        <path class="cls-1" d="M9.6,11.5c3.5,0,6.4,2.9,6.4,6.4,0,3.5-2.9,6.4-6.4,6.4-3.5,0-6.4-2.9-6.4-6.4,0-3.5,2.9-6.4,6.4-6.3Z"/>
        <path class="cls-1" d="M50.4,11.5c3.5,0,6.4,2.8,6.4,6.4,0,3.5-2.8,6.4-6.4,6.4-3.5,0-6.4-2.9-6.4-6.4,0-3.5,2.8-6.4,6.4-6.4Z"/>
      </g>
    </g>
  </g>
</svg>
