<?xml version="1.0" encoding="UTF-8"?>
<svg xmlns="http://www.w3.org/2000/svg" version="1.1" viewBox="0 0 60 60">
  <defs>
    <style>
      .cls-1 {
        fill: #e54f38;
      }
    </style>
  </defs>
  <!-- Generator: Adobe Illustrator 28.6.0, SVG Export Plug-In . SVG Version: 1.2.0 Build 709)  -->
  <g>
    <g id="Layer_1">
      <g id="Layer_1-2" data-name="Layer_1">
        <g>
          <path class="cls-1" d="M2.6,43.6c.2-1,.4-2,.7-3,.6-2,1.7-3.7,3.2-5.1,3.8-3.8,7.6-7.6,11.4-11.4,4.4-4.3,10.7-5.1,15.8-2,1.2.7,2.3,1.5,3,2.8.8,1.5.4,3.3-.8,4.3-1.4,1.1-3.3,1.2-4.6.2-.2-.2-.4-.3-.6-.5-2.1-1.8-5.2-1.8-7.3,0l-.9.9c-3.6,3.6-7.2,7.2-10.9,10.9-2,2-2.3,4.9-.8,7.1,2,2.8,6,3.2,8.5.7,2.2-2.1,4.3-4.3,6.4-6.4.1,0,.2-.2.3-.3.3-.3.7-.4,1.1-.2,2,.8,4,1.1,6.1,1.1s.7.2.9.6c.2.4,0,.7-.2,1-.5.5-1,1-1.5,1.6-2.8,2.8-5.6,5.6-8.5,8.4-1.9,1.8-4.3,2.9-6.9,3.2-.2,0-.3,0-.5,0h-2.1c-.2,0-.4,0-.6,0-5-.8-8.5-3.5-10.3-8.2-.4-1.1-.6-2.3-.9-3.5v-2.2Z"/>
          <path class="cls-1" d="M31.4,39.7c-2.2,0-5.3-1.3-7.6-4-1.2-1.4-1.1-3.5.2-4.8,1.2-1.3,3.4-1.4,4.8-.3.8.7,1.6,1.4,2.7,1.6,2,.5,3.7.2,5.2-1.2,1.2-1.1,2.3-2.3,3.5-3.5l8.2-8.2c2.3-2.3,2.3-5.9,0-8.1-2.1-1.9-5.4-1.8-7.6.3-2.2,2.1-4.3,4.3-6.5,6.5s-1,.7-1.8.4c-1.8-.7-3.7-1-5.6-1s-.8-.1-1-.6c-.2-.4,0-.8.3-1.1,3.3-3.3,6.6-6.7,10-9.9,5-4.7,13.2-4.3,17.8.8,4.3,4.8,4.6,11.6.6,16.7-.3.4-.6.7-.9,1-3.9,3.9-7.8,7.8-11.7,11.7s-5.7,3.7-10.6,3.6h0Z"/>
        </g>
      </g>
    </g>
  </g>
</svg>
