<?xml version="1.0" encoding="UTF-8"?>
<svg xmlns="http://www.w3.org/2000/svg" version="1.1" viewBox="0 0 60 60">
  <defs>
    <style>
      .cls-1 {
        fill: #787878;
      }
    </style>
  </defs>
  <!-- Generator: Adobe Illustrator 28.6.0, SVG Export Plug-In . SVG Version: 1.2.0 Build 709)  -->
  <g>
    <g id="Layer_1">
      <g>
        <path class="cls-1" d="M30,56.5c-8.7,0-17.4,0-26,0-2,0-3.1-1.1-3.1-3.1,0-7.3,0-14.7,0-22,0-1,.1-1.1,1-.7,9.1,3,18.2,6.1,27.3,9.1.4.1,1,0,1.5,0,3.8-1.2,7.7-2.5,11.5-3.8,5.3-1.8,10.6-3.5,15.9-5.3.8-.3,1-.1,1,.7,0,7.4,0,14.8,0,22.2,0,1.8-1.1,2.9-2.9,2.9-8.7,0-17.4,0-26.2,0Z"/>
        <path class="cls-1" d="M10,15.2c2,0,4.1,0,6.1,0,.6,0,.8-.2.9-.8.9-5.3,5.2-9.7,10.4-10.6,6.4-1.2,12.5,2.2,14.9,8.3.3.8.5,1.7.7,2.5.1.5.3.6.8.6,4.1,0,8.1,0,12.2,0,1.8,0,3.2,1.2,3.2,3.2,0,2.4,0,4.8,0,7.2q0,.9-.9,1.2c-8.3,2.8-16.6,5.5-25,8.3-.9.3-1.9.6-2.8.9-.2,0-.5,0-.7,0-9.2-3.1-18.5-6.1-27.7-9.2q-1-.3-1-1.3c0-2.5,0-4.9,0-7.4,0-1.8,1.1-2.9,2.9-2.9,2,0,4.1,0,6.1,0ZM30,15c2.8,0,5.6,0,8.4,0,.8,0,.9-.1.7-.9-1.1-4.1-4.8-6.9-9.2-6.9-4.1,0-8,3-9,7-.2.7-.1.8.7.8,2.8,0,5.6,0,8.4,0Z"/>
      </g>
    </g>
  </g>
</svg>
