<?xml version="1.0" encoding="UTF-8"?>
<svg xmlns="http://www.w3.org/2000/svg" version="1.1" viewBox="0 0 60 60">
  <defs>
    <style>
      .cls-1 {
        fill: #e54f38;
      }
    </style>
  </defs>
  <!-- Generator: Adobe Illustrator 28.6.0, SVG Export Plug-In . SVG Version: 1.2.0 Build 709)  -->
  <g>
    <g id="Layer_1">
      <g>
        <path class="cls-1" d="M25.6,57.8c-.8-.4-1.8-.7-2.5-1.2-1.3-1-1.8-2.4-1.9-4,0-1.2,0-2.3,0-3.5h17.6c0,1.6,0,3.3-.3,4.9-.4,1.9-1.8,3.1-3.7,3.7-.2,0-.3.1-.5.2h-8.8Z"/>
        <path class="cls-1" d="M38.9,44.6h-17.8c0-.2,0-.3-.1-.5-.5-2.2-1.7-3.9-3.4-5.3-4-3.1-6.5-7.2-7.6-12.2C7.6,15.6,15.2,4.5,26.3,2.5c10.9-1.9,21.1,4.7,23.6,15.5,1.8,8.1-.6,15-6.9,20.4-1.7,1.5-3.2,3.1-3.9,5.3,0,.3-.1.5-.2.8ZM31.2,9.5c-1.5,0-2.5.8-2.6,2.1,0,1.3,1,2.2,2.5,2.3,4.2.1,7.7,3.6,7.8,7.9,0,1.4,1,2.4,2.2,2.4,1.3,0,2.2-1.1,2.2-2.5,0-6.5-5.5-12-12-12.1Z"/>
      </g>
    </g>
  </g>
</svg>
