<svg width="40" height="50" viewBox="0 0 40 50" fill="none" xmlns="http://www.w3.org/2000/svg">
<path d="M22.5 17.5H36.25L22.5 3.75V17.5ZM5 0H25L40 15V45C40 46.3261 39.4732 47.5979 38.5355 48.5355C37.5979 49.4732 36.3261 50 35 50H5C3.67392 50 2.40215 49.4732 1.46447 48.5355C0.526784 47.5979 0 46.3261 0 45V5C0 3.67392 0.526784 2.40215 1.46447 1.46447C2.40215 0.526784 3.67392 0 5 0ZM17.325 26.1C18.35 28.35 19.65 30.2 21.15 31.475L22.175 32.275C20 32.675 17 33.375 13.825 34.6L13.55 34.7L14.8 32.1C15.925 29.925 16.75 27.95 17.325 26.1ZM33.525 35.625C33.975 35.175 34.2 34.6 34.225 33.975C34.3 33.475 34.175 33 33.925 32.6C33.2 31.425 31.325 30.875 28.225 30.875L25 31.05L22.825 29.6C21.25 28.3 19.825 26.025 18.825 23.2L18.925 22.85C19.75 19.525 20.525 15.5 18.875 13.85C18.6732 13.654 18.4345 13.5001 18.1727 13.3971C17.9109 13.2941 17.6313 13.2441 17.35 13.25H16.75C15.825 13.25 15 14.225 14.775 15.175C13.85 18.5 14.4 20.325 15.325 23.35V23.375C14.7 25.575 13.9 28.125 12.625 30.7L10.225 35.2L8 36.425C5 38.3 3.575 40.4 3.3 41.725C3.2 42.2 3.25 42.625 3.425 43.075L3.5 43.2L4.7 43.975L5.8 44.25C7.825 44.25 10.125 41.875 13.225 36.575L13.675 36.4C16.25 35.575 19.45 35 23.75 34.525C26.325 35.8 29.35 36.375 31.25 36.375C32.35 36.375 33.1 36.1 33.525 35.625ZM32.5 33.85L32.725 34.125C32.7 34.375 32.625 34.4 32.5 34.45H32.4L31.925 34.5C30.775 34.5 29 34.025 27.175 33.225C27.4 32.975 27.5 32.975 27.75 32.975C31.25 32.975 32.25 33.6 32.5 33.85ZM9.575 37.5C7.95 40.475 6.475 42.125 5.35 42.5C5.475 41.55 6.6 39.9 8.375 38.275L9.575 37.5ZM17.125 20.225C16.55 17.975 16.525 16.15 16.95 15.1L17.125 14.8L17.5 14.925C17.925 15.525 17.975 16.325 17.725 17.675L17.65 18.075L17.25 20.125L17.125 20.225Z" fill="#EF5350"/>
</svg>
