<?xml version="1.0" encoding="UTF-8"?>
<svg xmlns="http://www.w3.org/2000/svg" version="1.1" viewBox="0 0 20 20">
  <defs>
    <style>
      .cls-1 {
        fill: #191919;
      }
    </style>
  </defs>
  <!-- Generator: Adobe Illustrator 28.6.0, SVG Export Plug-In . SVG Version: 1.2.0 Build 709)  -->
  <g>
    <g id="Layer_1">
      <path class="cls-1" d="M5.3,12.4c0,0-.1,0-.2-.1-.8-.8-1.7-1.7-2.5-2.5-.1-.1-.2-.2-.3-.4-.3-.4-.3-.9,0-1.3.4-.5.9-.8,1.5-1,1-.4,2-.6,3.1-.2.3,0,.6.3.8.4,1-1,2-2,3.1-3.1-.3-.5-.4-1-.3-1.6.4-1.4,2.1-1.8,3.2-.8.6.6,1.1,1.1,1.7,1.7,1,1,1.9,1.9,2.9,2.9,1.2,1.2.3,2.9-.8,3.2-.5.1-1,0-1.4-.2-.1,0-.2,0-.3,0-1,1-1.9,1.9-2.9,2.9,0,0,0,0,0,0,0,0,0,0,0,0,.8,1.2.8,2.5.2,3.7-.2.5-.5.9-.8,1.3-.1.1-.3.3-.4.4-.3.2-.7.2-1,0-.2,0-.3-.2-.5-.4-.9-.9-1.8-1.8-2.8-2.8-.1-.1-.2-.1-.3,0-1.4,1.2-2.8,2.3-4.3,3.5-.4.3-.8.3-1.1,0-.2-.2-.2-.4-.1-.7,0-.1.1-.2.2-.3,1.1-1.5,2.2-2.9,3.2-4.4,0,0,0-.1.2-.2Z"/>
    </g>
  </g>
</svg>
