<?xml version="1.0" encoding="UTF-8"?>
<svg xmlns="http://www.w3.org/2000/svg" version="1.1" viewBox="0 0 20 20">
  <defs>
    <style>
      .cls-1 {
        fill: #191919;
      }
    </style>
  </defs>
  <!-- Generator: Adobe Illustrator 28.6.0, SVG Export Plug-In . SVG Version: 1.2.0 Build 709)  -->
  <g>
    <g id="Layer_1">
      <path class="cls-1" d="M8.4,13.5c0,0-.1,0-.2,0-1.2,0-2.4,0-3.5,0-.2,0-.3,0-.5,0-.5,0-.9-.4-.9-1,0-.6,0-1.2.3-1.8.4-1,1-1.9,2-2.4.3-.1.6-.2.8-.3,0-1.4,0-2.9,0-4.3-.6-.1-1-.4-1.3-.9C4.4,1.6,5.3,0,6.8,0c.8,0,1.6,0,2.4,0,1.4,0,2.7,0,4.1,0,1.7,0,2.3,1.8,1.7,2.9-.3.5-.7.7-1.2.9-.1,0-.2,0-.2.2,0,1.4,0,2.7,0,4.1,0,0,0,0,0,0,0,0,0,0,0,0,1.4.3,2.3,1.2,2.7,2.5.2.5.2,1,.3,1.5,0,.2,0,.4,0,.5,0,.4-.3.6-.7.7-.2,0-.4,0-.6,0-1.3,0-2.6,0-3.9,0-.2,0-.2,0-.3.2-.2,1.8-.4,3.6-.6,5.5,0,.5-.3.8-.8.7-.3,0-.5-.2-.6-.4,0-.1,0-.2,0-.4-.3-1.8-.5-3.6-.8-5.4,0,0,0-.2,0-.3Z"/>
    </g>
  </g>
</svg>
