<svg width="15" height="20" viewBox="0 0 15 20" fill="none" xmlns="http://www.w3.org/2000/svg">
<path d="M10.4925 10.0001L2.5 4.6714V15.3289L10.4925 10.0001ZM14.22 10.5201L0.971251 19.3526C0.877132 19.4153 0.767788 19.4512 0.654864 19.4566C0.541941 19.462 0.429666 19.4367 0.329999 19.3833C0.230332 19.33 0.147005 19.2506 0.088892 19.1536C0.0307794 19.0566 5.84005e-05 18.9457 0 18.8326V1.16765C5.84005e-05 1.05459 0.0307794 0.943674 0.088892 0.8467C0.147005 0.749727 0.230332 0.670331 0.329999 0.61697C0.429666 0.563609 0.541941 0.538281 0.654864 0.543683C0.767788 0.549085 0.877132 0.585015 0.971251 0.647646L14.22 9.48015C14.3056 9.53722 14.3758 9.61455 14.4243 9.70526C14.4729 9.79597 14.4983 9.89726 14.4983 10.0001C14.4983 10.103 14.4729 10.2043 14.4243 10.295C14.3758 10.3857 14.3056 10.4631 14.22 10.5201Z" fill="#A7ADB7"/>
</svg>
