<svg width="45" height="45" viewBox="0 0 45 45" fill="none" xmlns="http://www.w3.org/2000/svg">
<path d="M22.5 0.5C34.6551 0.5 44.5 10.3449 44.5 22.5C44.5 34.6551 34.6551 44.5 22.5 44.5C10.3449 44.5 0.5 34.6551 0.5 22.5C0.5 10.3449 10.3449 0.5 22.5 0.5ZM22.5 2.3125C11.3395 2.3125 2.3125 11.3395 2.3125 22.5C2.3125 33.6605 11.3395 42.6875 22.5 42.6875C33.6605 42.6875 42.6875 33.6605 42.6875 22.5C42.6875 11.3395 33.6605 2.3125 22.5 2.3125ZM22.5 32C22.6585 32 22.8157 32.0235 22.9668 32.0693L23.1162 32.1221C23.2625 32.1827 23.3985 32.2651 23.5205 32.3652L23.6377 32.4717C23.7498 32.5837 23.8445 32.7113 23.9189 32.8506L23.9873 32.9932C24.0682 33.1884 24.1094 33.398 24.1094 33.6094C24.1094 33.7678 24.0858 33.9251 24.04 34.0762L23.9873 34.2256C23.9064 34.4208 23.7871 34.5977 23.6377 34.7471C23.4883 34.8965 23.3114 35.0158 23.1162 35.0967C22.921 35.1776 22.7113 35.2188 22.5 35.2188C22.1267 35.2188 21.7668 35.089 21.4805 34.8545L21.3623 34.7471C21.0605 34.4453 20.8906 34.0362 20.8906 33.6094C20.8906 33.2361 21.0204 32.8762 21.2549 32.5898L21.3623 32.4717C21.6641 32.1699 22.0732 32 22.5 32ZM22.5 8.79688C24.1239 8.79688 25.6857 9.40148 26.8838 10.4863L27.1182 10.71C28.343 11.9348 29.0312 13.5959 29.0312 15.3281C29.0312 16.6808 28.6019 17.6962 27.9512 18.502C27.5345 18.9972 27.0597 19.44 26.5361 19.8193L26.3076 19.9785L26.2998 19.9844L25.832 20.3115C25.199 20.7513 24.6645 21.1279 24.251 21.5713L24.083 21.7627C23.6742 22.2589 23.4383 22.8724 23.4072 23.5098L23.4062 23.7627V26.5752C23.4062 26.8155 23.3105 27.0459 23.1406 27.2158C22.9707 27.3858 22.7404 27.4814 22.5 27.4814C22.2897 27.4814 22.087 27.4085 21.9258 27.2764L21.8594 27.2158C21.6895 27.0459 21.5938 26.8155 21.5938 26.5752V23.7627C21.5938 22.5903 21.9228 21.6738 22.4424 20.9287L22.6758 20.6201C23.1519 20.0384 23.7476 19.5697 24.3086 19.166L24.7949 18.8262L24.7939 18.8252C25.5112 18.3258 26.1047 17.9043 26.5371 17.3672L26.5381 17.3682C27.007 16.794 27.2477 16.0683 27.2178 15.3281H27.2188C27.2188 14.1549 26.7818 13.0267 25.998 12.1611L25.8369 11.9912C24.952 11.1063 23.7515 10.6094 22.5 10.6094C21.3268 10.6094 20.1986 11.0463 19.333 11.8301L19.1631 11.9912C18.2781 12.8761 17.7812 14.0766 17.7812 15.3281C17.7812 15.5384 17.7082 15.7411 17.5762 15.9023L17.5156 15.9688C17.3457 16.1387 17.1154 16.2344 16.875 16.2344C16.6648 16.2344 16.462 16.1614 16.3008 16.0293L16.2344 15.9688C16.0644 15.7988 15.9688 15.5685 15.9688 15.3281C15.9688 13.7042 16.5734 12.1424 17.6582 10.9443L17.8818 10.71C19.1067 9.48511 20.7678 8.79688 22.5 8.79688Z" fill="#7FD0F3" stroke="#7FD0F3"/>
</svg>
