<svg width="25" height="26" viewBox="0 0 25 26" fill="none" xmlns="http://www.w3.org/2000/svg">
<path d="M5.65741 5.04493C7.53648 3.43403 9.94044 2.54882 12.4268 2.55226C18.1462 2.55226 22.7823 7.13906 22.7823 12.7975C22.7823 14.9859 22.0885 17.0145 20.908 18.6783L17.6046 12.7975H20.7112C20.7114 11.1907 20.2341 9.61924 19.3388 8.2786C18.4435 6.93795 17.1696 5.88725 15.6755 5.25713C14.1815 4.62701 12.5332 4.44528 10.9356 4.73452C9.33797 5.02376 7.86153 5.77121 6.68985 6.88395L5.65741 5.04493ZM19.1962 20.5501C17.3171 22.161 14.9132 23.0462 12.4268 23.0428C6.70746 23.0428 2.07129 18.456 2.07129 12.7975C2.07129 10.6091 2.76511 8.58057 3.94564 6.91674L7.24905 12.7975H4.14239C4.14226 14.4044 4.61953 15.9758 5.51485 17.3164C6.41017 18.6571 7.68405 19.7078 9.1781 20.3379C10.6721 20.968 12.3204 21.1498 13.9181 20.8605C15.5157 20.5713 16.9921 19.8238 18.1638 18.7111L19.1962 20.5501Z" fill="#E54F38"/>
</svg>
