<svg width="20" height="20" viewBox="0 0 20 20" fill="none" xmlns="http://www.w3.org/2000/svg">
<path d="M15.4627 3.16875H15.0189V2.73125C15.0189 1.75625 14.2314 0.96875 13.2627 0.96875H2.93145C1.95645 0.96875 1.16895 1.75625 1.16895 2.73125V14.5625C1.16895 15.5375 1.95645 16.325 2.93145 16.325H3.36895V16.7625C3.36895 17.7313 4.1627 18.525 5.13145 18.525H12.1621C11.4596 17.7494 11.0277 16.7244 11.0277 15.5981C11.0277 13.1881 12.9883 11.2275 15.3983 11.2275C16.0508 11.2275 16.6683 11.375 17.2252 11.6331V4.93125C17.2252 3.9625 16.4314 3.16875 15.4627 3.16875ZM4.49395 6.94812V6.6375C4.49395 6.55375 4.5302 6.46812 4.58582 6.40938L6.5977 4.39125C6.66082 4.32875 6.74395 4.29375 6.83145 4.29375H7.14645V6.315C7.14645 6.66375 6.86207 6.94812 6.51332 6.94812H4.49395ZM10.2033 13.9844H7.19082C6.8802 13.9844 6.62832 13.7325 6.62832 13.4219C6.62832 13.1113 6.8802 12.8594 7.19082 12.8594H10.2033C10.5139 12.8594 10.7658 13.1113 10.7658 13.4219C10.7658 13.7325 10.5146 13.9844 10.2033 13.9844ZM12.4564 11.375H7.19395C6.88332 11.375 6.63144 11.1231 6.63144 10.8125C6.63144 10.5019 6.88332 10.25 7.19395 10.25H12.4564C12.7671 10.25 13.0189 10.5019 13.0189 10.8125C13.0189 11.1231 12.7671 11.375 12.4564 11.375ZM13.8971 3.16875H6.83145C6.44332 3.16875 6.0777 3.32063 5.80207 3.59687L3.7827 5.6225C3.51582 5.89937 3.36895 6.26 3.36895 6.6375V15.1994H2.92832C2.57832 15.1994 2.29332 14.9144 2.29332 14.5644V2.72875C2.29332 2.385 2.58395 2.09375 2.92832 2.09375H13.2627C13.6127 2.09375 13.8971 2.37875 13.8971 2.72875V3.16875Z" fill="black"/>
<path d="M15.3985 12.165C13.5022 12.165 11.9653 13.7019 11.9653 15.5982C11.9653 17.4944 13.5022 19.0313 15.3985 19.0313C17.2947 19.0313 18.8316 17.4944 18.8316 15.5982C18.8316 13.7019 17.2947 12.165 15.3985 12.165ZM16.9185 15.4513L15.2422 16.8019C15.1416 16.8832 15.0172 16.9263 14.8897 16.9263C14.8685 16.9263 14.8472 16.925 14.826 16.9225C14.6766 16.9057 14.5397 16.8294 14.4472 16.7107L13.7885 15.8707C13.5966 15.6263 13.6397 15.2725 13.8841 15.0807C14.1285 14.8894 14.4822 14.9325 14.6741 15.1763L14.981 15.5675L16.2135 14.575C16.4553 14.38 16.8097 14.4188 17.0041 14.66C17.1985 14.9025 17.1603 15.2569 16.9185 15.4513Z" fill="black"/>
</svg>
