<svg width="24" height="23" viewBox="0 0 24 23" fill="none" xmlns="http://www.w3.org/2000/svg">
<g clip-path="url(#clip0_49_22689)">
<path d="M12.36 10.0944C9.636 9.34056 8.76 8.56111 8.76 7.34722C8.76 5.95444 9.972 4.98333 12 4.98333C13.704 4.98333 14.556 5.67333 14.868 6.77222C15.012 7.28333 15.408 7.66667 15.912 7.66667H16.272C17.064 7.66667 17.628 6.83611 17.352 6.04389C16.848 4.53611 15.672 3.28389 13.8 2.79833V1.91667C13.8 0.856111 12.996 0 12 0C11.004 0 10.2 0.856111 10.2 1.91667V2.76C7.872 3.29667 6 4.90667 6 7.37278C6 10.3244 8.292 11.7939 11.64 12.65C14.64 13.4167 15.24 14.5411 15.24 15.7294C15.24 16.6111 14.652 18.0167 12 18.0167C10.02 18.0167 9 17.2628 8.604 16.1894C8.424 15.6911 8.016 15.3333 7.524 15.3333H7.188C6.384 15.3333 5.82 16.2022 6.12 16.9944C6.804 18.7706 8.4 19.8183 10.2 20.2272V21.0833C10.2 22.1439 11.004 23 12 23C12.996 23 13.8 22.1439 13.8 21.0833V20.2528C16.14 19.78 18 18.3361 18 15.7167C18 12.0878 15.084 10.8483 12.36 10.0944Z" fill="#ED4F9D"/>
</g>
<defs>
<clipPath id="clip0_49_22689">
<rect width="24" height="23" fill="white"/>
</clipPath>
</defs>
</svg>
