<?xml version="1.0" encoding="UTF-8"?>
<svg xmlns="http://www.w3.org/2000/svg" version="1.1" viewBox="0 0 20 20">
  <defs>
    <style>
      .cls-1 {
        fill: #191919;
      }
    </style>
  </defs>
  <!-- Generator: Adobe Illustrator 28.6.0, SVG Export Plug-In . SVG Version: 1.2.0 Build 709)  -->
  <g>
    <g id="Layer_1">
      <g>
        <path class="cls-1" d="M20,9.4h-9.4V0c.4,0,.8,0,1.1,0,0,0,0,0,.2,0,1.5.1,2.9.6,4.2,1.5,2,1.4,3.3,3.3,3.8,5.8,0,.3.1.7.2,1v1.1Z"/>
        <path class="cls-1" d="M17.6,10.6c.2,3.7-1.8,7.1-5.1,8.6-3.3,1.5-7,.8-9.5-1.4,0,0,0-.1.1-.2,2.3-2.3,4.6-4.6,6.9-6.9.1-.1.2-.1.4-.1,2.3,0,4.6,0,6.9,0h.2Z"/>
        <path class="cls-1" d="M8.6,10.6c-2.1,2.1-4.2,4.2-6.3,6.3-2.8-3-3.3-8.4.6-12.1,1.9,1.9,3.8,3.9,5.8,5.8Z"/>
        <path class="cls-1" d="M9.4,2.4v7.3c-1.9-1.9-3.8-3.8-5.6-5.6,1.5-1.1,3.5-1.7,5.6-1.6Z"/>
      </g>
    </g>
  </g>
</svg>
