<?xml version="1.0" encoding="UTF-8"?>
<svg xmlns="http://www.w3.org/2000/svg" version="1.1" viewBox="0 0 60 60">
  <defs>
    <style>
      .cls-1 {
        fill: #f8595f;
      }
    </style>
  </defs>
  <!-- Generator: Adobe Illustrator 28.6.0, SVG Export Plug-In . SVG Version: 1.2.0 Build 709)  -->
  <g>
    <g id="Layer_1">
      <path class="cls-1" d="M0,31.9c0-1.2,0-2.5,0-3.7,0-.2,0-.4.1-.6.2-1.2.3-2.5.5-3.7C4.1,7.7,19.6-2.6,35.8.6c13.5,2.6,23.6,14.4,24.1,28.1.3,8-2.1,15-7.4,21-4.6,5.3-10.5,8.6-17.4,9.8-1.1.2-2.2.3-3.3.5h-3.8c-.1,0-.3,0-.4,0-5.2-.4-10-2-14.3-4.9C6.4,50.2,2,43.6.5,35.2.3,34.1.2,33,0,31.9ZM33.8,37.4c-1.9-1.1-3.8-2.2-5.7-3.3-1.1-.7-2.3-1.3-3.4-2-.1,0-.2-.4-.2-.6,0-1,0-2,0-3,0-.4,0-.5.4-.7,2.8-1.6,5.6-3.2,8.4-4.9.4-.2.6-.2.9,0,2.2,1.8,4.7,2.2,7.3,1.1,2.6-1.1,4.1-3.2,4.3-6,.2-2.9-1.1-5.2-3.7-6.6-2.5-1.4-5.1-1.2-7.4.5-2.4,1.7-3.3,4.2-2.7,7.1,0,.4,0,.6-.3.8-2.8,1.6-5.6,3.3-8.4,4.9-.4.2-.6.2-.8-.1-1.2-1-2.5-1.6-4.1-1.7-3.2-.2-6.2,1.7-7.2,4.8-1,3,.1,6.3,2.8,8,2.7,1.8,6.1,1.6,8.6-.6.3-.2.5-.3.8,0,2.8,1.7,5.7,3.3,8.5,5,.3.2.4.3.3.7-1.1,5.2,3.6,9.6,8.7,8.2,3.5-.9,5.8-4.6,5.1-8.2-.7-3.7-4.3-6.1-8-5.6-1.5.2-2.8.9-3.9,2Z"/>
    </g>
  </g>
</svg>
