<svg width="26" height="26" viewBox="0 0 26 26" fill="none" xmlns="http://www.w3.org/2000/svg">
<path d="M8.875 11.375L17.125 7.125M8.875 14.625L17.125 18.875M1.75 13C1.75 13.9946 2.14509 14.9484 2.84835 15.6517C3.55161 16.3549 4.50544 16.75 5.5 16.75C6.49456 16.75 7.44839 16.3549 8.15165 15.6517C8.85491 14.9484 9.25 13.9946 9.25 13C9.25 12.0054 8.85491 11.0516 8.15165 10.3483C7.44839 9.64509 6.49456 9.25 5.5 9.25C4.50544 9.25 3.55161 9.64509 2.84835 10.3483C2.14509 11.0516 1.75 12.0054 1.75 13ZM16.75 5.5C16.75 6.49456 17.1451 7.44839 17.8483 8.15165C18.5516 8.85491 19.5054 9.25 20.5 9.25C21.4946 9.25 22.4484 8.85491 23.1517 8.15165C23.8549 7.44839 24.25 6.49456 24.25 5.5C24.25 4.50544 23.8549 3.55161 23.1517 2.84835C22.4484 2.14509 21.4946 1.75 20.5 1.75C19.5054 1.75 18.5516 2.14509 17.8483 2.84835C17.1451 3.55161 16.75 4.50544 16.75 5.5ZM16.75 20.5C16.75 21.4946 17.1451 22.4484 17.8483 23.1517C18.5516 23.8549 19.5054 24.25 20.5 24.25C21.4946 24.25 22.4484 23.8549 23.1517 23.1517C23.8549 22.4484 24.25 21.4946 24.25 20.5C24.25 19.5054 23.8549 18.5516 23.1517 17.8483C22.4484 17.1451 21.4946 16.75 20.5 16.75C19.5054 16.75 18.5516 17.1451 17.8483 17.8483C17.1451 18.5516 16.75 19.5054 16.75 20.5Z" stroke="#AEAEB2" stroke-width="2" stroke-linecap="round" stroke-linejoin="round"/>
</svg>
