<?xml version="1.0" encoding="UTF-8"?>
<svg xmlns="http://www.w3.org/2000/svg" version="1.1" viewBox="0 0 60 60">
  <defs>
    <style>
      .cls-1 {
        fill: #0794fd;
      }

      .cls-2 {
        fill: #fefefe;
      }

      .cls-3 {
        fill: #1d9dfd;
      }
    </style>
  </defs>
  <!-- Generator: Adobe Illustrator 28.6.0, SVG Export Plug-In . SVG Version: 1.2.0 Build 709)  -->
  <g>
    <g id="Layer_1">
      <g>
        <path class="cls-1" d="M3.7,32.4c-.4-6.7,1-13,5.2-18.3C15.7,5.5,24.6,2,35.3,4.3c10.9,2.3,17.9,9.4,20.4,20.2,3.4,14.9-6.3,28.8-21.3,31.5-.3,0-.7-.1-.8.3h-2c-1-.2-2.1-.2-3.1,0h-1.7c-.7-.6-1.7-.5-2.5-.7-5.1-1.2-9.5-3.8-13.2-7.5-2.2-1.3-3.2-3.6-4.4-5.6-1.4-2.4-2.2-5.1-2.8-7.8-.2-.8.3-1.6,0-2.3Z"/>
        <path class="cls-3" d="M28.4,56.4c1-.5,2.1-.5,3.1,0h-3.1Z"/>
        <path class="cls-2" d="M27,41.5c-1.2,0-2.3-.5-3.2-1.4-2.8-2.8-5.6-5.7-8.4-8.5-.5-.5-.5-.8,0-1.3,1.9-1.8,3.8-3.7,5.7-5.6.6-.6.9-.4,1.4,0,1.2,1.3,2.6,2.5,3.7,3.8.8.9,1.2.7,1.9,0,2.9-3.1,6-6.1,8.9-9.2.7-.7,1.1-.9,1.9,0,1.7,1.8,3.6,3.6,5.4,5.3.6.5.6.8,0,1.4-4.5,4.6-9,9.2-13.4,13.8-1.1,1.1-2.3,1.7-4,1.7Z"/>
      </g>
    </g>
  </g>
</svg>
