<?xml version="1.0" encoding="UTF-8"?>
<svg xmlns="http://www.w3.org/2000/svg" version="1.1" viewBox="0 0 60 60">
  <!-- Generator: Adobe Illustrator 28.6.0, SVG Export Plug-In . SVG Version: 1.2.0 Build 709)  -->
  <g>
    <g id="Layer_1">
      <g>
        <path d="M21.1,2.7c5.9,0,11.8,0,17.7,0,1.3.4,1.8,1.3,1.7,2.7,0,.5,0,1,0,1.5.2,0,.4,0,.6,0,1.5,0,3,0,4.4,0,3.2,0,5.5,2.3,5.5,5.5,0,13.2,0,26.3,0,39.5,0,3.2-2.4,5.5-5.6,5.5-10.3,0-20.7,0-31,0-3.2,0-5.6-2.3-5.6-5.6,0-13.1,0-26.2,0-39.3,0-3.3,2.3-5.6,5.6-5.6,1.4,0,2.9,0,4.3,0,.2,0,.4,0,.6,0,0-.7,0-1.3,0-2,0-.5.3-1.1.5-1.5.2-.3.7-.5,1.1-.7ZM19.5,11.1c-1.7,0-3.3,0-4.8,0-1.1,0-1.4.4-1.4,1.5,0,13,0,26,0,39,0,1.1.4,1.4,1.4,1.4,10.2,0,20.5,0,30.7,0,1,0,1.4-.4,1.4-1.4,0-13,0-26,0-39.1,0-1-.4-1.4-1.4-1.4-1.5,0-2.9,0-4.4,0-.2,0-.3,0-.5,0,0,.6,0,1.2,0,1.8,0,1.6-.9,2.4-2.4,2.4-5.4,0-10.8,0-16.3,0-1.5,0-2.4-.9-2.4-2.4,0-.6,0-1.2,0-1.8ZM36.2,7h-12.4v4.1h12.4v-4.1Z"/>
        <path d="M27.2,37.4c.2-.3.3-.4.4-.6,3-3,6-6,9-9.1.7-.7,1.4-1,2.4-.7,1.4.5,1.9,2.2,1,3.3-.1.2-.3.3-.4.5-3.5,3.5-7.1,7.1-10.6,10.6-1.2,1.2-2.4,1.2-3.6,0-1.7-1.7-3.4-3.4-5.1-5.1-.8-.8-1-1.7-.6-2.5.6-1.4,2.4-1.7,3.5-.6,1.2,1.2,2.4,2.4,3.5,3.5.1.1.3.3.5.6Z"/>
      </g>
    </g>
  </g>
</svg>
