<?xml version="1.0" encoding="UTF-8"?>
<svg xmlns="http://www.w3.org/2000/svg" version="1.1" viewBox="0 0 20 20">
  <defs>
    <style>
      .cls-1 {
        fill: #191919;
      }
    </style>
  </defs>
  <!-- Generator: Adobe Illustrator 28.6.0, SVG Export Plug-In . SVG Version: 1.2.0 Build 709)  -->
  <g>
    <g id="Layer_1">
      <path class="cls-1" d="M18.6,10.4c0-.8,0-1.5,0-2.3-.3,0-.6,0-.9,0-.6,0-1-.3-1.2-.8-.9-2.4-2.6-3.9-5-4.4-3.2-.7-6.6,1.2-7.7,4.3,0,0,0,.2,0,.2-.2.4-.5.7-1,.7-.3,0-.7,0-1,0,0,.8,0,1.6,0,2.4,0,0,.1,0,.1-.1.9-1,2-1.4,3.3-1.4.6,0,1.1.5,1.1,1.2,0,1.5,0,3.1,0,4.6,0,.4,0,.8,0,1.2,0,.8-.5,1.3-1.3,1.3-2,0-3.6-1.3-4-3.3,0-.2,0-.5,0-.8,0-1.4,0-2.8,0-4.2,0-2.9,1.3-5.2,3.5-7.1C5.4,1,6.9.4,8.6.1c4.2-.6,8.3,1.6,10,5.4.6,1.3.8,2.6.8,3.9,0,1.2,0,2.5,0,3.7,0,2.1-1.4,3.7-3.4,4.1-.3,0-.6,0-1,0-.1,0-.2,0-.2.2-.3,1-1.1,1.6-2.2,1.6,0,0,0,0,0,0-.3,0-.5,0-.6.3-.2.4-.6.6-1,.6-.3,0-.5,0-.8,0-.7,0-1.3-.6-1.3-1.3,0-.7.6-1.3,1.3-1.3.3,0,.5,0,.8,0,.5,0,.9.3,1.2.7,0,.1.1.2.2.2.2,0,.5,0,.7,0,.6-.1,1-.7,1-1.4,0-2.2,0-4.4,0-6.6,0-.2,0-.4.1-.6.2-.4.6-.6,1-.7,1.2,0,2.4.4,3.3,1.4,0,0,0,0,0,0Z"/>
    </g>
  </g>
</svg>
