<?xml version="1.0" encoding="UTF-8"?>
<svg xmlns="http://www.w3.org/2000/svg" version="1.1" viewBox="0 0 60 60">
  <defs>
    <style>
      .cls-1 {
        fill: #34c759;
      }
    </style>
  </defs>
  <!-- Generator: Adobe Illustrator 28.6.0, SVG Export Plug-In . SVG Version: 1.2.0 Build 709)  -->
  <g>
    <g id="Layer_1">
      <g>
        <path class="cls-1" d="M60.1,30c0,16.6-13.5,30-30.1,30C13.4,60,0,46.5,0,29.9,0,13.4,13.5,0,30.1,0c16.5,0,29.9,13.5,29.9,30ZM56.1,30c0-14.3-11.6-25.9-26-26-14.4,0-26.1,11.5-26.1,25.9,0,14.3,11.6,26,26,26,14.3,0,26-11.6,26.1-26Z"/>
        <path class="cls-1" d="M27.9,24.9c-.9.9-1.7,1.7-2.6,2.6-.6.6-1.3,1.3-1.9,1.9-.8.7-2,.7-2.8,0-.8-.8-.8-2,0-2.8,2.7-2.7,5.4-5.4,8.1-8,.8-.8,1.9-.8,2.7,0,.4.3.8.7,1.1,1.1,2.3,2.3,4.6,4.6,6.9,6.9.6.6.8,1.4.5,2.2-.3.8-.8,1.2-1.6,1.3-.7,0-1.3-.2-1.8-.7-1.3-1.3-2.6-2.6-3.9-3.9-.1-.1-.3-.3-.5-.5,0,.3,0,.5,0,.8,0,4.7,0,9.4,0,14.1,0,1.3-.8,2.2-1.9,2.3-1.2,0-2.1-.8-2.1-2,0-2.7,0-5.4,0-8,0-2.3,0-4.6,0-6.9,0,0,0,0-.1,0Z"/>
      </g>
    </g>
  </g>
</svg>
