<?xml version="1.0" encoding="UTF-8"?>
<svg xmlns="http://www.w3.org/2000/svg" version="1.1" viewBox="0 0 60 60">
  <defs>
    <style>
      .cls-1 {
        fill: #e54f38;
      }
    </style>
  </defs>
  <!-- Generator: Adobe Illustrator 28.6.0, SVG Export Plug-In . SVG Version: 1.2.0 Build 709)  -->
  <g>
    <g id="Layer_1">
      <path class="cls-1" d="M.8,45.9c.2-.7.3-1.3.5-2,1.9-6.2,5.7-10.6,11.7-13.2,0,0,.2,0,.3-.1-3.7-3-5.4-6.9-4.7-11.7.5-3.2,2-5.7,4.5-7.7,4.9-3.8,11.6-3.1,15.8,1.6,4.3,4.8,4.2,13.2-1.8,17.7,1.3.7,2.5,1.3,3.7,1.9,1-1.1,2-2.2,3.1-3.2,1.1-1,2.5-1.7,3.7-2.5-4.8-4.2-3.9-11.2,0-14.6,3.8-3.3,9.3-3.2,12.9.3,3.8,3.7,4.1,10.3-.5,14.4,1.7.7,3.1,1.7,4.5,2.9,2.6,2.5,4.2,5.5,4.8,9,.4,2.3-1.5,4.4-3.9,4.4-4.3,0-8.7,0-13,0-1.1,0-2.2,0-3.3,0,.2.9.4,1.8.6,2.7.4,2.7-1.6,5.2-4.3,5.2-10,0-20,0-30,0-2,0-3.7-1.4-4.3-3.3,0-.1,0-.3-.1-.4,0-.5,0-1,0-1.5ZM20.1,47.7c4.9,0,9.7,0,14.6,0,1.1,0,1.5-.5,1.3-1.6-.2-.8-.3-1.5-.6-2.3-2.5-7.5-10-12.1-17.8-10.9-6.6,1-12.1,6.3-13.4,12.9-.3,1.3.2,1.8,1.5,1.8,4.8,0,9.5,0,14.3,0ZM20.2,29.4c4.6,0,8.3-3.8,8.3-8.5,0-4.7-3.7-8.5-8.3-8.6-4.6,0-8.3,3.8-8.3,8.6,0,4.7,3.7,8.5,8.3,8.5ZM33.6,34.8c1.5,1.5,2.7,3.1,3.7,4.8,0,.1.4.2.6.2,5.7,0,11.4,0,17.2,0,.7,0,.8-.2.7-.8-1.3-6.1-6.5-10.3-12.7-9.9-4,.2-7.1,2.3-9.4,5.7ZM43.8,13.2c-3.3,0-6,2.8-6,6.2,0,3.4,2.7,6.2,6.1,6.2,3.3,0,6-2.8,6-6.2,0-3.4-2.7-6.2-6.1-6.2Z"/>
    </g>
  </g>
</svg>
