<svg width="24" height="24" fill="#ffffff" viewBox="0 0 24 24" xmlns="http://www.w3.org/2000/svg">
  <path d="M21.75 11.717a.496.496 0 0 0-.439-.466l-1.202-.194a.253.253 0 0 1-.21-.22 6.815 6.815 0 0 0-.08-.446.259.259 0 0 1 .123-.274l1.068-.593a.485.485 0 0 0 .234-.601l-.185-.511a.484.484 0 0 0-.569-.305l-1.197.234a.258.258 0 0 1-.273-.132 8.426 8.426 0 0 0-.225-.394.262.262 0 0 1 .02-.305l.797-.92a.488.488 0 0 0 .019-.646l-.348-.417a.48.48 0 0 0-.637-.094l-1.048.63a.253.253 0 0 1-.3-.03 12.13 12.13 0 0 0-.345-.29.256.256 0 0 1-.08-.291l.433-1.144a.485.485 0 0 0-.202-.613l-.473-.276a.483.483 0 0 0-.63.133l-.767.963a.216.216 0 0 1-.262.08 8.715 8.715 0 0 0-.458-.173.254.254 0 0 1-.176-.245l.018-1.222a.49.49 0 0 0-.401-.51l-.537-.094a.49.49 0 0 0-.55.336l-.4 1.163a.256.256 0 0 1-.25.171h-.457a.258.258 0 0 1-.249-.172l-.396-1.156a.49.49 0 0 0-.552-.34l-.538.094a.49.49 0 0 0-.401.505l.019 1.227a.256.256 0 0 1-.181.246l-.447.17c-.093.034-.196-.003-.278-.099l-.762-.937a.483.483 0 0 0-.631-.136l-.472.274a.486.486 0 0 0-.202.617l.433 1.141a.26.26 0 0 1-.08.292c-.113.094-.23.187-.346.292a.252.252 0 0 1-.298.03l-1.036-.642a.487.487 0 0 0-.638.094l-.347.416a.483.483 0 0 0 .018.645l.8.92a.254.254 0 0 1 .021.302c-.08.127-.156.261-.225.396a.26.26 0 0 1-.275.132L3.502 8.1a.485.485 0 0 0-.569.305l-.188.51a.487.487 0 0 0 .235.602l1.068.593a.253.253 0 0 1 .124.278l-.011.06c-.025.13-.047.254-.069.385a.257.257 0 0 1-.209.218l-1.204.194a.489.489 0 0 0-.429.482v.543a.481.481 0 0 0 .43.48l1.203.195a.254.254 0 0 1 .211.219c.023.148.047.3.08.446a.259.259 0 0 1-.124.274l-1.067.594a.485.485 0 0 0-.234.601l.187.511a.484.484 0 0 0 .569.305l1.198-.232a.257.257 0 0 1 .272.132c.07.131.146.264.225.395a.262.262 0 0 1-.02.304l-.797.92a.488.488 0 0 0-.024.646l.348.418a.48.48 0 0 0 .636.094l1.049-.63a.253.253 0 0 1 .3.03c.116.101.234.2.345.29a.256.256 0 0 1 .081.29l-.435 1.145a.485.485 0 0 0 .202.612l.474.274a.483.483 0 0 0 .63-.132l.777-.954c.065-.081.168-.117.245-.087.163.068.272.106.466.17a.255.255 0 0 1 .176.246l-.02 1.22a.493.493 0 0 0 .403.51l.536.095a.49.49 0 0 0 .551-.336l.398-1.162a.256.256 0 0 1 .252-.17h.457a.257.257 0 0 1 .248.171l.397 1.157a.49.49 0 0 0 .552.34l.538-.094a.49.49 0 0 0 .401-.506l-.018-1.226a.255.255 0 0 1 .175-.244c.18-.06.307-.11.418-.152l.028-.011c.145-.05.216.01.257.061l.785.968a.483.483 0 0 0 .63.132l.472-.274a.486.486 0 0 0 .202-.614l-.433-1.14a.258.258 0 0 1 .079-.293c.114-.093.23-.187.347-.291a.252.252 0 0 1 .299-.03l1.05.629a.487.487 0 0 0 .637-.094l.347-.417a.483.483 0 0 0-.017-.645l-.8-.922a.253.253 0 0 1-.021-.302 5.32 5.32 0 0 0 .226-.396.26.26 0 0 1 .275-.132l1.194.233a.485.485 0 0 0 .569-.305l.185-.51a.486.486 0 0 0-.234-.602l-1.069-.594a.254.254 0 0 1-.122-.276l.011-.06c.024-.13.047-.254.068-.386a.257.257 0 0 1 .21-.217l1.204-.194a.49.49 0 0 0 .43-.482v-.549ZM8.51 16.123a.741.741 0 0 1-1.194.125 6.33 6.33 0 0 1 .02-8.515.741.741 0 0 1 1.195.13l2.14 3.766a.743.743 0 0 1 0 .738l-2.16 3.756ZM12 18.335a6.37 6.37 0 0 1-1.327-.14.741.741 0 0 1-.48-1.096l2.157-3.75a.741.741 0 0 1 .642-.372h4.319a.74.74 0 0 1 .708.963c-.82 2.546-3.206 4.395-6.019 4.395Zm.352-7.683-2.133-3.757a.74.74 0 0 1 .483-1.092c.427-.09.862-.135 1.298-.135 2.813 0 5.199 1.849 6.017 4.397a.741.741 0 0 1-.707.962h-4.313a.739.739 0 0 1-.645-.375Z"></path>
</svg>
