<svg width="22" height="22" viewBox="0 0 22 22" fill="none" xmlns="http://www.w3.org/2000/svg">
<path d="M11 13.0625C11.547 13.0625 12.0716 12.8452 12.4584 12.4584C12.8452 12.0716 13.0625 11.547 13.0625 11C13.0625 10.453 12.8452 9.92839 12.4584 9.54159C12.0716 9.1548 11.547 8.9375 11 8.9375C10.453 8.9375 9.92839 9.1548 9.54159 9.54159C9.1548 9.92839 8.9375 10.453 8.9375 11C8.9375 11.547 9.1548 12.0716 9.54159 12.4584C9.92839 12.8452 10.453 13.0625 11 13.0625V13.0625Z" fill="white"/>
<path d="M11 19.9375C11.547 19.9375 12.0716 19.7202 12.4584 19.3334C12.8452 18.9466 13.0625 18.422 13.0625 17.875C13.0625 17.328 12.8452 16.8034 12.4584 16.4166C12.0716 16.0298 11.547 15.8125 11 15.8125C10.453 15.8125 9.92839 16.0298 9.54159 16.4166C9.1548 16.8034 8.9375 17.328 8.9375 17.875C8.9375 18.422 9.1548 18.9466 9.54159 19.3334C9.92839 19.7202 10.453 19.9375 11 19.9375V19.9375Z" fill="white"/>
<path d="M11 6.1875C11.547 6.1875 12.0716 5.9702 12.4584 5.58341C12.8452 5.19661 13.0625 4.67201 13.0625 4.125C13.0625 3.57799 12.8452 3.05339 12.4584 2.66659C12.0716 2.2798 11.547 2.0625 11 2.0625C10.453 2.0625 9.92839 2.2798 9.54159 2.66659C9.1548 3.05339 8.9375 3.57799 8.9375 4.125C8.9375 4.67201 9.1548 5.19661 9.54159 5.58341C9.92839 5.9702 10.453 6.1875 11 6.1875V6.1875Z" fill="white"/>
</svg>
