<svg xmlns="http://www.w3.org/2000/svg" version="1.1" xmlns:xlink="http://www.w3.org/1999/xlink" xmlns:svgjs="http://svgjs.com/svgjs" width="512" height="512" x="0" y="0" viewBox="0 0 64 64" style="enable-background:new 0 0 512 512" xml:space="preserve" class=""><g><linearGradient id="a" x1="4" x2="60" y1="32" y2="32" gradientUnits="userSpaceOnUse"><stop stop-opacity="1" stop-color="#e4e4e4" offset="0"></stop><stop stop-opacity="1" stop-color="#ffc6bd" offset="1"></stop></linearGradient><path fill="url(#a)" d="M59 38h-5v-3c0-.55-.45-1-1-1s-1 .45-1 1v3H40V26h12v5c0 .55.45 1 1 1s1-.45 1-1v-5h5c.55 0 1-.45 1-1s-.45-1-1-1h-5V11c0-.55-.45-1-1-1H39.98V5c0-.55-.45-1-1-1s-1 .45-1 1v5H26V5c0-.55-.45-1-1-1s-1 .45-1 1v5H11c-.55 0-1 .45-1 1v13H5c-.55 0-1 .45-1 1s.45 1 1 1h5v12H5c-.55 0-1 .45-1 1s.45 1 1 1h5v13c0 .55.45 1 1 1h13v5c0 .55.45 1 1 1s1-.45 1-1v-5h11.98v5c0 .55.45 1 1 1s1-.45 1-1v-5H53c.55 0 1-.45 1-1V40h5c.55 0 1-.45 1-1s-.45-1-1-1zM40 12h12v12H40zM12 26h12v12H12zm25.98 26H12V40h12v9a1 1 0 0 0 2 0v-9h11.98zm0-14H26V26h11.98zm0-14H12V12h12v9c0 .55.45 1 1 1s1-.45 1-1v-9h11.98zM52 52H40V40h12z" data-original="url(#a)" class=""></path></g></svg>
