<svg width="24" height="24" fill="none" stroke="#ffffff" stroke-linecap="round" stroke-linejoin="round" stroke-width="1.5" viewBox="0 0 24 24" xmlns="http://www.w3.org/2000/svg">
  <path d="M16.125 13.125 20.25 9"></path>
  <path d="m10.875 10.125 3 3"></path>
  <path d="m3.75 15 4.875-4.875"></path>
  <path d="M21.375 9a1.125 1.125 0 1 0 0-2.25 1.125 1.125 0 0 0 0 2.25Z"></path>
  <path d="M15 15.375a1.125 1.125 0 1 0 0-2.25 1.125 1.125 0 0 0 0 2.25Z"></path>
  <path d="M9.75 10.125a1.125 1.125 0 1 0 0-2.25 1.125 1.125 0 0 0 0 2.25Z"></path>
  <path d="M2.625 17.25a1.125 1.125 0 1 0 0-2.25 1.125 1.125 0 0 0 0 2.25Z"></path>
</svg>