<svg width="24" height="24" fill="none" stroke="#ffffff" stroke-linecap="round" stroke-linejoin="round" stroke-width="1.5" viewBox="0 0 24 24" xmlns="http://www.w3.org/2000/svg">
  <path d="M21.647 2.522a.206.206 0 0 0-.155-.16c-2.549-.623-8.438 1.599-11.631 4.79A13.824 13.824 0 0 0 8.31 8.984c-.985-.09-1.969-.014-2.807.352-2.367 1.04-3.055 3.758-3.248 4.925a.422.422 0 0 0 .46.487l3.8-.417c.003.287.02.573.052.858a.85.85 0 0 0 .248.52l1.471 1.471a.85.85 0 0 0 .52.248c.284.032.568.05.853.052l-.416 3.797a.422.422 0 0 0 .487.459c1.167-.188 3.89-.876 4.925-3.242.366-.84.44-1.819.356-2.799a13.775 13.775 0 0 0 1.837-1.55c3.206-3.188 5.413-8.947 4.799-11.623Zm-7.648 7.493a2 2 0 1 1 2.829-2.83 2 2 0 0 1-2.829 2.83v0Z"></path>
  <path d="M5.14 16.5c-.468.057-.903.27-1.236.602C3.078 17.93 3 21 3 21s3.071-.078 3.898-.905c.334-.333.546-.768.602-1.236"></path>
</svg>
