<svg xmlns="http://www.w3.org/2000/svg" height="48" viewBox="0 -960 960 960" width="48"><path d="M194-806v275-4 381-652 144-144Zm112 374h132q5-5 10-11t10-11H306v22Zm0 163h91q-1-4.667-1-10.333V-291h-90v22ZM172-132v-696h380l156 156v150q-6-3-11.5-5t-10.5-4v-131H541v-144H194v652h246q4 6 9.043 11.518Q454.087-136.965 459-132H172Zm465-309q60.51 0 103.255 42.745T783-294.5q0 61.01-42.745 103.755T636.5-148q-61.01 0-103.755-42.708Q490-233.415 490-295q0-60.51 42.708-103.255Q575.415-441 637-441Zm.108 260q9.354 0 14.623-6.089T657-202.108q0-8.93-5.377-14.911Q646.245-223 636.892-223q-9.354 0-15.123 6.089T616-201.892q0 8.93 6.089 14.911T637.108-181ZM622-253h29v-5.952q0-13.048 6.5-20.548Q664-287 672-295q14-12 22.5-25t8.5-32.367q0-27.539-18.374-45.586Q666.253-416 637.242-416 615-416 595.5-402 576-388 568-365.514L596-356q3.727-13.2 15.364-22.1Q623-387 637.231-387q17.122 0 26.946 9.165Q674-368.671 674-352.341q0 12.017-7.7 20.797-7.7 8.779-15.3 16.544-6 6-12 13t-11 14.286q-3 3.714-4.5 10.514-1.5 6.8-1.5 13.018V-253Z"/></svg>
